<svg width="561" height="106" viewBox="0 0 561 106" fill="none" xmlns="http://www.w3.org/2000/svg">
<g filter="url(#filter0_d_1563_13968)">
<path fill-rule="evenodd" clip-rule="evenodd" d="M11 41C11 24.4315 24.4315 11 41 11H512C528.569 11 542 24.4315 542 41V57C542 73.5685 528.569 87 512 87H41C24.4314 87 11 73.5685 11 57V41Z" fill="#AA276D"/>
<path d="M184.587 37.408C185.185 37.408 185.867 37.4613 186.635 37.568C187.425 37.6533 188.161 37.824 188.843 38.08C189.526 38.3147 190.102 38.6347 190.571 39.04C191.041 39.424 191.275 39.904 191.275 40.48C191.275 40.8213 191.179 41.1093 190.987 41.344C190.795 41.5787 190.486 41.696 190.059 41.696C189.739 41.696 189.409 41.632 189.067 41.504C188.747 41.376 188.374 41.248 187.947 41.12C187.542 40.9707 187.062 40.832 186.507 40.704C185.974 40.576 185.345 40.512 184.619 40.512C183.211 40.512 182.166 40.768 181.483 41.28C180.822 41.7707 180.491 42.4533 180.491 43.328C180.491 43.9253 180.641 44.4267 180.939 44.832C181.238 45.2373 181.633 45.5893 182.123 45.888C182.635 46.1653 183.201 46.4 183.819 46.592C184.459 46.784 185.11 46.9653 185.771 47.136C186.518 47.328 187.254 47.5627 187.979 47.84C188.726 48.1173 189.387 48.48 189.963 48.928C190.539 49.376 190.998 49.9413 191.339 50.624C191.702 51.3067 191.883 52.1707 191.883 53.216C191.883 54.304 191.681 55.2853 191.275 56.16C190.87 57.0133 190.315 57.7493 189.611 58.368C188.907 58.9653 188.065 59.4347 187.083 59.776C186.102 60.096 185.035 60.256 183.883 60.256C183.243 60.256 182.497 60.192 181.643 60.064C180.79 59.9573 179.979 59.7653 179.211 59.488C178.443 59.1893 177.793 58.8053 177.259 58.336C176.726 57.8453 176.459 57.248 176.459 56.544C176.459 56.1173 176.566 55.776 176.779 55.52C177.014 55.264 177.355 55.136 177.803 55.136C178.166 55.136 178.465 55.2107 178.699 55.36C178.934 55.488 179.137 55.6373 179.307 55.808C179.947 56.3627 180.673 56.736 181.483 56.928C182.294 57.12 183.126 57.216 183.979 57.216C184.47 57.216 184.982 57.184 185.515 57.12C186.07 57.0347 186.571 56.8747 187.019 56.64C187.467 56.4053 187.841 56.0747 188.139 55.648C188.438 55.2 188.587 54.6027 188.587 53.856C188.587 53.1733 188.449 52.6187 188.171 52.192C187.915 51.744 187.563 51.3707 187.115 51.072C186.667 50.7733 186.134 50.528 185.515 50.336C184.918 50.144 184.267 49.952 183.563 49.76C182.774 49.5467 181.995 49.312 181.227 49.056C180.459 48.8 179.777 48.4587 179.179 48.032C178.582 47.584 178.091 47.0293 177.707 46.368C177.345 45.6853 177.163 44.8213 177.163 43.776C177.163 42.7307 177.355 41.8133 177.739 41.024C178.123 40.2347 178.646 39.5733 179.307 39.04C179.969 38.5067 180.747 38.1013 181.643 37.824C182.561 37.5467 183.542 37.408 184.587 37.408ZM198.188 57.92C198.124 56.576 198.082 54.9867 198.06 53.152C198.06 51.296 198.06 49.1947 198.06 46.848C197.847 46.8693 197.591 46.88 197.292 46.88C197.015 46.88 196.791 46.88 196.62 46.88C196.236 46.88 195.884 46.8693 195.564 46.848C195.266 46.8267 194.999 46.7627 194.764 46.656C194.53 46.5493 194.348 46.4 194.22 46.208C194.092 45.9947 194.028 45.7067 194.028 45.344C194.028 44.32 194.796 43.808 196.332 43.808C196.567 43.808 196.855 43.808 197.196 43.808C197.538 43.808 197.826 43.8293 198.06 43.872C198.06 42.7413 198.082 41.8347 198.124 41.152C198.167 40.4693 198.242 39.9467 198.348 39.584C198.476 39.2 198.636 38.9547 198.828 38.848C199.042 38.72 199.308 38.656 199.628 38.656C199.97 38.656 200.247 38.7733 200.46 39.008C200.674 39.2427 200.834 39.5413 200.94 39.904C201.068 40.2667 201.143 40.672 201.164 41.12C201.207 41.568 201.228 42.0053 201.228 42.432C201.228 42.7307 201.218 43.008 201.196 43.264C201.196 43.4987 201.196 43.712 201.196 43.904C201.495 43.8187 201.804 43.776 202.124 43.776C202.444 43.7547 202.754 43.744 203.052 43.744C203.842 43.744 204.45 43.872 204.876 44.128C205.303 44.3627 205.516 44.7573 205.516 45.312C205.516 45.6533 205.442 45.9307 205.292 46.144C205.143 46.336 204.94 46.4853 204.684 46.592C204.45 46.6987 204.162 46.7733 203.82 46.816C203.5 46.8373 203.148 46.848 202.764 46.848C202.551 46.848 202.306 46.848 202.028 46.848C201.751 46.848 201.495 46.8267 201.26 46.784C201.26 47.9147 201.26 48.9493 201.26 49.888C201.26 50.8267 201.25 51.7333 201.228 52.608C201.207 53.4613 201.186 54.3147 201.164 55.168C201.143 56.0213 201.111 56.928 201.068 57.888C201.047 58.4 200.994 58.7947 200.908 59.072C200.844 59.3493 200.748 59.5627 200.62 59.712C200.492 59.8613 200.343 59.9573 200.172 60C200.023 60.0213 199.842 60.032 199.628 60.032C199.244 60.032 198.914 59.904 198.636 59.648C198.38 59.3707 198.231 58.7947 198.188 57.92ZM221.275 60.128C220.934 60.128 220.656 60.0747 220.443 59.968C220.251 59.84 220.102 59.68 219.995 59.488C219.888 59.296 219.814 59.072 219.771 58.816C219.728 58.5387 219.696 58.2507 219.675 57.952C219.142 58.6133 218.448 59.168 217.595 59.616C216.763 60.064 215.696 60.288 214.395 60.288C213.563 60.288 212.71 60.1707 211.835 59.936C210.982 59.68 210.203 59.2533 209.499 58.656C208.795 58.0373 208.219 57.216 207.771 56.192C207.323 55.168 207.099 53.8773 207.099 52.32C207.099 51.104 207.248 49.9627 207.547 48.896C207.846 47.8293 208.294 46.9013 208.891 46.112C209.51 45.3013 210.278 44.6613 211.195 44.192C212.112 43.7227 213.19 43.488 214.427 43.488C215.515 43.488 216.486 43.6907 217.339 44.096C218.192 44.48 218.96 45.12 219.643 46.016C219.643 45.76 219.654 45.504 219.675 45.248C219.696 44.9707 219.75 44.7253 219.835 44.512C219.942 44.2773 220.102 44.096 220.315 43.968C220.528 43.8187 220.816 43.744 221.179 43.744C221.499 43.744 221.798 43.872 222.075 44.128C222.352 44.384 222.512 44.9387 222.555 45.792C222.619 46.9227 222.662 47.936 222.683 48.832C222.726 49.728 222.747 50.656 222.747 51.616C222.747 52.7893 222.736 53.8667 222.715 54.848C222.694 55.8293 222.64 56.8747 222.555 57.984C222.512 58.4747 222.448 58.8693 222.363 59.168C222.299 59.4453 222.214 59.6587 222.107 59.808C222 59.936 221.872 60.0213 221.723 60.064C221.574 60.1067 221.424 60.128 221.275 60.128ZM219.547 52C219.547 50.8907 219.376 49.984 219.035 49.28C218.715 48.576 218.299 48.032 217.787 47.648C217.296 47.2427 216.763 46.9653 216.187 46.816C215.611 46.6667 215.078 46.592 214.587 46.592C213.819 46.592 213.158 46.7307 212.603 47.008C212.07 47.2853 211.632 47.6693 211.291 48.16C210.95 48.6293 210.694 49.1947 210.523 49.856C210.374 50.496 210.299 51.2 210.299 51.968C210.299 53.8453 210.704 55.232 211.515 56.128C212.347 57.024 213.467 57.472 214.875 57.472C215.707 57.472 216.411 57.3333 216.987 57.056C217.584 56.7573 218.064 56.3627 218.427 55.872C218.811 55.3813 219.088 54.8053 219.259 54.144C219.451 53.4613 219.547 52.7467 219.547 52ZM226.659 58.048C226.574 57.3013 226.52 56.3947 226.499 55.328C226.478 54.2613 226.467 52.9707 226.467 51.456C226.467 49.9627 226.467 48.7573 226.467 47.84C226.488 46.9227 226.552 46.112 226.659 45.408C226.766 44.5333 226.926 43.968 227.139 43.712C227.374 43.456 227.672 43.328 228.035 43.328C228.291 43.328 228.515 43.3493 228.707 43.392C228.92 43.4347 229.102 43.5307 229.251 43.68C229.422 43.808 229.55 44 229.635 44.256C229.72 44.512 229.763 44.864 229.763 45.312C229.763 45.3973 229.774 45.4827 229.795 45.568C229.795 45.6533 229.795 45.7493 229.795 45.856C229.816 45.9413 229.827 46.048 229.827 46.176C230.403 45.4507 231.054 44.832 231.779 44.32C232.526 43.808 233.368 43.552 234.307 43.552C235.566 43.552 236.195 44.0747 236.195 45.12C236.195 45.504 236.11 45.824 235.939 46.08C235.79 46.336 235.566 46.5493 235.267 46.72C234.99 46.8693 234.659 46.9867 234.275 47.072C233.912 47.1573 233.507 47.2427 233.059 47.328C232.376 47.456 231.736 47.7013 231.139 48.064C230.542 48.4053 230.136 48.8427 229.923 49.376C229.923 49.7813 229.923 50.08 229.923 50.272C229.944 50.464 229.955 50.624 229.955 50.752C229.976 50.88 229.987 51.0187 229.987 51.168C229.987 51.3173 229.987 51.552 229.987 51.872C229.987 52.96 229.966 53.984 229.923 54.944C229.88 55.8827 229.838 56.9067 229.795 58.016C229.774 58.528 229.71 58.9227 229.603 59.2C229.518 59.4773 229.4 59.6907 229.251 59.84C229.123 59.9893 228.974 60.0747 228.803 60.096C228.632 60.1387 228.462 60.16 228.291 60.16C227.694 60.16 227.288 60.032 227.075 59.776C226.883 59.4987 226.744 58.9227 226.659 58.048ZM241.313 57.92C241.249 56.576 241.207 54.9867 241.185 53.152C241.185 51.296 241.185 49.1947 241.185 46.848C240.972 46.8693 240.716 46.88 240.417 46.88C240.14 46.88 239.916 46.88 239.745 46.88C239.361 46.88 239.009 46.8693 238.689 46.848C238.391 46.8267 238.124 46.7627 237.889 46.656C237.655 46.5493 237.473 46.4 237.345 46.208C237.217 45.9947 237.153 45.7067 237.153 45.344C237.153 44.32 237.921 43.808 239.457 43.808C239.692 43.808 239.98 43.808 240.321 43.808C240.663 43.808 240.951 43.8293 241.185 43.872C241.185 42.7413 241.207 41.8347 241.249 41.152C241.292 40.4693 241.367 39.9467 241.473 39.584C241.601 39.2 241.761 38.9547 241.953 38.848C242.167 38.72 242.433 38.656 242.753 38.656C243.095 38.656 243.372 38.7733 243.585 39.008C243.799 39.2427 243.959 39.5413 244.065 39.904C244.193 40.2667 244.268 40.672 244.289 41.12C244.332 41.568 244.353 42.0053 244.353 42.432C244.353 42.7307 244.343 43.008 244.321 43.264C244.321 43.4987 244.321 43.712 244.321 43.904C244.62 43.8187 244.929 43.776 245.249 43.776C245.569 43.7547 245.879 43.744 246.177 43.744C246.967 43.744 247.575 43.872 248.001 44.128C248.428 44.3627 248.641 44.7573 248.641 45.312C248.641 45.6533 248.567 45.9307 248.417 46.144C248.268 46.336 248.065 46.4853 247.809 46.592C247.575 46.6987 247.287 46.7733 246.945 46.816C246.625 46.8373 246.273 46.848 245.889 46.848C245.676 46.848 245.431 46.848 245.153 46.848C244.876 46.848 244.62 46.8267 244.385 46.784C244.385 47.9147 244.385 48.9493 244.385 49.888C244.385 50.8267 244.375 51.7333 244.353 52.608C244.332 53.4613 244.311 54.3147 244.289 55.168C244.268 56.0213 244.236 56.928 244.193 57.888C244.172 58.4 244.119 58.7947 244.033 59.072C243.969 59.3493 243.873 59.5627 243.745 59.712C243.617 59.8613 243.468 59.9573 243.297 60C243.148 60.0213 242.967 60.032 242.753 60.032C242.369 60.032 242.039 59.904 241.761 59.648C241.505 59.3707 241.356 58.7947 241.313 57.92ZM261.136 51.072C261.136 51.7547 261.136 52.3627 261.136 52.896C261.136 53.408 261.125 53.8987 261.104 54.368C261.104 54.8373 261.093 55.3067 261.072 55.776C261.05 56.2453 261.029 56.768 261.008 57.344C262.48 57.1733 263.632 57.0347 264.464 56.928C265.296 56.8213 265.946 56.736 266.416 56.672C266.906 56.608 267.28 56.5653 267.536 56.544C267.813 56.5227 268.133 56.512 268.496 56.512C269.434 56.512 269.904 56.9707 269.904 57.888C269.904 58.2507 269.712 58.56 269.328 58.816C268.965 59.072 268.496 59.296 267.92 59.488C267.365 59.6587 266.736 59.808 266.032 59.936C265.349 60.0427 264.677 60.1173 264.016 60.16C263.376 60.224 262.789 60.2667 262.256 60.288C261.744 60.3093 261.381 60.32 261.168 60.32C260.4 60.32 259.802 60.2667 259.376 60.16C258.949 60.0747 258.629 59.7973 258.416 59.328C258.202 58.8373 258.064 58.1013 258 57.12C257.957 56.1387 257.936 54.752 257.936 52.96C257.936 51.232 257.936 49.696 257.936 48.352C257.936 47.008 257.946 45.8027 257.968 44.736C257.989 43.6693 258 42.72 258 41.888C258.021 41.056 258.053 40.2987 258.096 39.616C258.138 38.7413 258.288 38.176 258.544 37.92C258.8 37.6427 259.12 37.504 259.504 37.504C259.717 37.504 259.898 37.5253 260.048 37.568C260.218 37.5893 260.368 37.6747 260.496 37.824C260.624 37.9733 260.72 38.1867 260.784 38.464C260.869 38.7413 260.922 39.136 260.944 39.648C261.029 41.5253 261.082 43.3813 261.104 45.216C261.125 47.0507 261.136 49.0027 261.136 51.072ZM279.266 54.112C278.519 54.112 277.73 54.0587 276.898 53.952C276.087 53.824 275.202 53.568 274.242 53.184C274.434 54.4853 274.967 55.4667 275.842 56.128C276.738 56.7893 278.018 57.12 279.682 57.12C280.279 57.12 280.813 57.088 281.282 57.024C281.773 56.9387 282.199 56.8533 282.562 56.768C282.925 56.6613 283.245 56.576 283.522 56.512C283.799 56.4267 284.055 56.384 284.29 56.384C284.589 56.384 284.877 56.48 285.154 56.672C285.431 56.8427 285.57 57.1413 285.57 57.568C285.57 58.1013 285.346 58.5387 284.898 58.88C284.471 59.2213 283.938 59.4987 283.298 59.712C282.679 59.904 282.018 60.032 281.314 60.096C280.61 60.1813 279.991 60.224 279.458 60.224C278.199 60.224 277.037 60.0533 275.97 59.712C274.925 59.3707 274.018 58.8587 273.25 58.176C272.482 57.472 271.885 56.608 271.458 55.584C271.031 54.56 270.818 53.3653 270.818 52C270.818 50.6773 271.021 49.504 271.426 48.48C271.853 47.456 272.429 46.592 273.154 45.888C273.879 45.184 274.733 44.6507 275.714 44.288C276.717 43.9253 277.794 43.744 278.946 43.744C279.842 43.744 280.706 43.8613 281.538 44.096C282.391 44.3307 283.138 44.6827 283.778 45.152C284.439 45.6213 284.962 46.2187 285.346 46.944C285.751 47.648 285.954 48.48 285.954 49.44C285.954 50.2933 285.794 51.0187 285.474 51.616C285.154 52.2133 284.695 52.6933 284.098 53.056C283.522 53.4187 282.818 53.6853 281.986 53.856C281.175 54.0267 280.269 54.112 279.266 54.112ZM279.042 46.688C278.466 46.688 277.911 46.7627 277.378 46.912C276.845 47.04 276.354 47.264 275.906 47.584C275.479 47.8827 275.117 48.288 274.818 48.8C274.519 49.2907 274.317 49.9093 274.21 50.656C275.021 51.0187 275.81 51.2747 276.578 51.424C277.346 51.552 278.157 51.616 279.01 51.616C280.269 51.616 281.197 51.4667 281.794 51.168C282.413 50.848 282.722 50.2827 282.722 49.472C282.722 48.7253 282.434 48.0747 281.858 47.52C281.303 46.9653 280.365 46.688 279.042 46.688ZM302.119 60.128C301.778 60.128 301.5 60.0747 301.287 59.968C301.095 59.84 300.946 59.68 300.839 59.488C300.732 59.296 300.658 59.072 300.615 58.816C300.572 58.5387 300.54 58.2507 300.519 57.952C299.986 58.6133 299.292 59.168 298.439 59.616C297.607 60.064 296.54 60.288 295.239 60.288C294.407 60.288 293.554 60.1707 292.679 59.936C291.826 59.68 291.047 59.2533 290.343 58.656C289.639 58.0373 289.063 57.216 288.615 56.192C288.167 55.168 287.943 53.8773 287.943 52.32C287.943 51.104 288.092 49.9627 288.391 48.896C288.69 47.8293 289.138 46.9013 289.735 46.112C290.354 45.3013 291.122 44.6613 292.039 44.192C292.956 43.7227 294.034 43.488 295.271 43.488C296.359 43.488 297.33 43.6907 298.183 44.096C299.036 44.48 299.804 45.12 300.487 46.016C300.487 45.76 300.498 45.504 300.519 45.248C300.54 44.9707 300.594 44.7253 300.679 44.512C300.786 44.2773 300.946 44.096 301.159 43.968C301.372 43.8187 301.66 43.744 302.023 43.744C302.343 43.744 302.642 43.872 302.919 44.128C303.196 44.384 303.356 44.9387 303.399 45.792C303.463 46.9227 303.506 47.936 303.527 48.832C303.57 49.728 303.591 50.656 303.591 51.616C303.591 52.7893 303.58 53.8667 303.559 54.848C303.538 55.8293 303.484 56.8747 303.399 57.984C303.356 58.4747 303.292 58.8693 303.207 59.168C303.143 59.4453 303.058 59.6587 302.951 59.808C302.844 59.936 302.716 60.0213 302.567 60.064C302.418 60.1067 302.268 60.128 302.119 60.128ZM300.391 52C300.391 50.8907 300.22 49.984 299.879 49.28C299.559 48.576 299.143 48.032 298.631 47.648C298.14 47.2427 297.607 46.9653 297.031 46.816C296.455 46.6667 295.922 46.592 295.431 46.592C294.663 46.592 294.002 46.7307 293.447 47.008C292.914 47.2853 292.476 47.6693 292.135 48.16C291.794 48.6293 291.538 49.1947 291.367 49.856C291.218 50.496 291.143 51.2 291.143 51.968C291.143 53.8453 291.548 55.232 292.359 56.128C293.191 57.024 294.311 57.472 295.719 57.472C296.551 57.472 297.255 57.3333 297.831 57.056C298.428 56.7573 298.908 56.3627 299.271 55.872C299.655 55.3813 299.932 54.8053 300.103 54.144C300.295 53.4613 300.391 52.7467 300.391 52ZM307.503 58.048C307.417 57.3013 307.364 56.3947 307.343 55.328C307.321 54.2613 307.311 52.9707 307.311 51.456C307.311 49.9627 307.311 48.7573 307.311 47.84C307.332 46.9227 307.396 46.112 307.503 45.408C307.609 44.5333 307.769 43.968 307.983 43.712C308.217 43.456 308.516 43.328 308.879 43.328C309.135 43.328 309.359 43.3493 309.551 43.392C309.764 43.4347 309.945 43.5307 310.095 43.68C310.265 43.808 310.393 44 310.479 44.256C310.564 44.512 310.607 44.864 310.607 45.312C310.607 45.3973 310.617 45.4827 310.639 45.568C310.639 45.6533 310.639 45.7493 310.639 45.856C310.66 45.9413 310.671 46.048 310.671 46.176C311.247 45.4507 311.897 44.832 312.623 44.32C313.369 43.808 314.212 43.552 315.151 43.552C316.409 43.552 317.039 44.0747 317.039 45.12C317.039 45.504 316.953 45.824 316.783 46.08C316.633 46.336 316.409 46.5493 316.111 46.72C315.833 46.8693 315.503 46.9867 315.119 47.072C314.756 47.1573 314.351 47.2427 313.903 47.328C313.22 47.456 312.58 47.7013 311.983 48.064C311.385 48.4053 310.98 48.8427 310.767 49.376C310.767 49.7813 310.767 50.08 310.767 50.272C310.788 50.464 310.799 50.624 310.799 50.752C310.82 50.88 310.831 51.0187 310.831 51.168C310.831 51.3173 310.831 51.552 310.831 51.872C310.831 52.96 310.809 53.984 310.767 54.944C310.724 55.8827 310.681 56.9067 310.639 58.016C310.617 58.528 310.553 58.9227 310.447 59.2C310.361 59.4773 310.244 59.6907 310.095 59.84C309.967 59.9893 309.817 60.0747 309.647 60.096C309.476 60.1387 309.305 60.16 309.135 60.16C308.537 60.16 308.132 60.032 307.919 59.776C307.727 59.4987 307.588 58.9227 307.503 58.048ZM326.925 46.368C326.136 46.368 325.421 46.496 324.781 46.752C324.162 47.008 323.458 47.392 322.669 47.904C322.669 48.352 322.669 49.0133 322.669 49.888C322.669 50.7413 322.658 51.68 322.637 52.704C322.616 53.7067 322.594 54.6987 322.573 55.68C322.552 56.6613 322.509 57.4827 322.445 58.144C322.402 58.5707 322.349 58.912 322.285 59.168C322.242 59.4027 322.168 59.584 322.061 59.712C321.976 59.84 321.848 59.9253 321.677 59.968C321.528 59.9893 321.325 60 321.069 60C320.813 60 320.6 59.9893 320.429 59.968C320.28 59.9253 320.152 59.8507 320.045 59.744C319.938 59.616 319.853 59.4347 319.789 59.2C319.725 58.9653 319.672 58.6453 319.629 58.24C319.586 57.856 319.544 57.344 319.501 56.704C319.48 56.064 319.458 55.3707 319.437 54.624C319.416 53.856 319.394 53.088 319.373 52.32C319.373 51.5307 319.373 50.8053 319.373 50.144C319.373 49.056 319.384 48.1707 319.405 47.488C319.448 46.8053 319.512 46.1973 319.597 45.664C319.725 44.768 319.896 44.2027 320.109 43.968C320.322 43.7333 320.61 43.616 320.973 43.616C321.506 43.616 321.901 43.7653 322.157 44.064C322.434 44.3627 322.605 44.8533 322.669 45.536C323.458 44.8533 324.301 44.3093 325.197 43.904C326.114 43.4987 327.053 43.296 328.013 43.296C328.93 43.296 329.762 43.5093 330.509 43.936C331.277 44.3627 331.906 45.056 332.397 46.016C332.696 46.592 332.92 47.232 333.069 47.936C333.218 48.6187 333.325 49.344 333.389 50.112C333.41 50.4533 333.432 50.7947 333.453 51.136C333.474 51.456 333.485 51.808 333.485 52.192C333.506 52.5547 333.517 52.9707 333.517 53.44C333.517 53.9093 333.517 54.464 333.517 55.104C333.517 55.7867 333.506 56.4267 333.485 57.024C333.464 57.6213 333.4 58.144 333.293 58.592C333.208 59.0187 333.048 59.36 332.813 59.616C332.578 59.8507 332.258 59.968 331.853 59.968C330.872 59.968 330.36 59.4987 330.317 58.56C330.317 58.496 330.317 58.2293 330.317 57.76C330.317 57.2693 330.306 56.704 330.285 56.064C330.285 55.424 330.274 54.7733 330.253 54.112C330.253 53.4507 330.242 52.9067 330.221 52.48C330.2 52.1387 330.168 51.776 330.125 51.392C330.104 50.9867 330.061 50.5813 329.997 50.176C329.954 49.7707 329.89 49.3867 329.805 49.024C329.72 48.64 329.613 48.2987 329.485 48C329.186 47.296 328.813 46.848 328.365 46.656C327.917 46.464 327.437 46.368 326.925 46.368ZM337.442 58.016C337.399 57.2267 337.356 56.3307 337.314 55.328C337.292 54.304 337.282 53.184 337.282 51.968C337.282 50.4533 337.292 49.1627 337.314 48.096C337.335 47.008 337.388 46.1227 337.474 45.44C337.58 44.736 337.74 44.224 337.954 43.904C338.167 43.5627 338.466 43.392 338.85 43.392C339.212 43.392 339.532 43.52 339.81 43.776C340.087 44.032 340.247 44.5867 340.29 45.44C340.418 47.68 340.482 49.8453 340.482 51.936C340.482 53.0027 340.46 54.0053 340.418 54.944C340.375 55.8613 340.332 56.8747 340.29 57.984C340.268 58.496 340.215 58.8907 340.13 59.168C340.066 59.4453 339.97 59.6587 339.842 59.808C339.714 59.9573 339.564 60.0427 339.394 60.064C339.244 60.1067 339.063 60.128 338.85 60.128C338.466 60.128 338.146 60 337.89 59.744C337.634 59.4667 337.484 58.8907 337.442 58.016ZM338.882 37.6C339.372 37.6 339.82 37.792 340.226 38.176C340.652 38.56 340.866 39.0187 340.866 39.552C340.866 40.064 340.652 40.512 340.226 40.896C339.799 41.2587 339.319 41.44 338.786 41.44C338.338 41.44 337.911 41.2587 337.506 40.896C337.122 40.512 336.93 40.0427 336.93 39.488C336.93 38.976 337.122 38.5387 337.506 38.176C337.911 37.792 338.37 37.6 338.882 37.6ZM351.956 46.368C351.167 46.368 350.452 46.496 349.812 46.752C349.194 47.008 348.49 47.392 347.7 47.904C347.7 48.352 347.7 49.0133 347.7 49.888C347.7 50.7413 347.69 51.68 347.668 52.704C347.647 53.7067 347.626 54.6987 347.604 55.68C347.583 56.6613 347.54 57.4827 347.476 58.144C347.434 58.5707 347.38 58.912 347.316 59.168C347.274 59.4027 347.199 59.584 347.092 59.712C347.007 59.84 346.879 59.9253 346.708 59.968C346.559 59.9893 346.356 60 346.1 60C345.844 60 345.631 59.9893 345.46 59.968C345.311 59.9253 345.183 59.8507 345.076 59.744C344.97 59.616 344.884 59.4347 344.82 59.2C344.756 58.9653 344.703 58.6453 344.66 58.24C344.618 57.856 344.575 57.344 344.532 56.704C344.511 56.064 344.49 55.3707 344.468 54.624C344.447 53.856 344.426 53.088 344.404 52.32C344.404 51.5307 344.404 50.8053 344.404 50.144C344.404 49.056 344.415 48.1707 344.436 47.488C344.479 46.8053 344.543 46.1973 344.628 45.664C344.756 44.768 344.927 44.2027 345.14 43.968C345.354 43.7333 345.642 43.616 346.004 43.616C346.538 43.616 346.932 43.7653 347.188 44.064C347.466 44.3627 347.636 44.8533 347.7 45.536C348.49 44.8533 349.332 44.3093 350.228 43.904C351.146 43.4987 352.084 43.296 353.044 43.296C353.962 43.296 354.794 43.5093 355.54 43.936C356.308 44.3627 356.938 45.056 357.428 46.016C357.727 46.592 357.951 47.232 358.1 47.936C358.25 48.6187 358.356 49.344 358.42 50.112C358.442 50.4533 358.463 50.7947 358.484 51.136C358.506 51.456 358.516 51.808 358.516 52.192C358.538 52.5547 358.548 52.9707 358.548 53.44C358.548 53.9093 358.548 54.464 358.548 55.104C358.548 55.7867 358.538 56.4267 358.516 57.024C358.495 57.6213 358.431 58.144 358.324 58.592C358.239 59.0187 358.079 59.36 357.844 59.616C357.61 59.8507 357.29 59.968 356.884 59.968C355.903 59.968 355.391 59.4987 355.348 58.56C355.348 58.496 355.348 58.2293 355.348 57.76C355.348 57.2693 355.338 56.704 355.316 56.064C355.316 55.424 355.306 54.7733 355.284 54.112C355.284 53.4507 355.274 52.9067 355.252 52.48C355.231 52.1387 355.199 51.776 355.156 51.392C355.135 50.9867 355.092 50.5813 355.028 50.176C354.986 49.7707 354.922 49.3867 354.836 49.024C354.751 48.64 354.644 48.2987 354.516 48C354.218 47.296 353.844 46.848 353.396 46.656C352.948 46.464 352.468 46.368 351.956 46.368ZM368.553 64.384C369.556 64.384 370.398 64.1813 371.081 63.776C371.785 63.392 372.35 62.8267 372.777 62.08C373.204 61.3547 373.502 60.48 373.673 59.456C373.865 58.4107 373.961 57.2373 373.961 55.936C373.769 56.6187 373.492 57.1947 373.129 57.664C372.766 58.1333 372.34 58.5173 371.849 58.816C371.38 59.0933 370.846 59.296 370.249 59.424C369.652 59.552 369.033 59.616 368.393 59.616C367.412 59.616 366.484 59.4773 365.609 59.2C364.734 58.9227 363.966 58.4853 363.305 57.888C362.665 57.2907 362.153 56.5333 361.769 55.616C361.385 54.6773 361.193 53.5573 361.193 52.256C361.193 50.9973 361.374 49.8453 361.737 48.8C362.121 47.7333 362.665 46.816 363.369 46.048C364.094 45.28 364.969 44.6827 365.993 44.256C367.017 43.8293 368.19 43.616 369.513 43.616C370.217 43.616 370.836 43.68 371.369 43.808C371.924 43.936 372.414 44.1067 372.841 44.32C373.268 44.5333 373.641 44.7893 373.961 45.088C374.302 45.3867 374.612 45.7067 374.889 46.048C375.7 47.072 376.286 48.288 376.649 49.696C377.012 51.0827 377.193 52.7573 377.193 54.72C377.193 56.1707 377.065 57.6533 376.809 59.168C376.574 60.6827 376.137 62.048 375.497 63.264C374.857 64.5013 373.972 65.504 372.841 66.272C371.71 67.0613 370.26 67.456 368.489 67.456C368.169 67.456 367.806 67.4347 367.401 67.392C367.017 67.3707 366.612 67.328 366.185 67.264C365.78 67.2 365.374 67.104 364.969 66.976C364.564 66.8693 364.19 66.72 363.849 66.528C363.422 66.2933 363.081 66.0693 362.825 65.856C362.569 65.6427 362.441 65.2907 362.441 64.8C362.441 64.3947 362.526 64.0213 362.697 63.68C362.889 63.36 363.209 63.2 363.657 63.2C363.87 63.2 364.105 63.264 364.361 63.392C364.617 63.52 364.926 63.648 365.289 63.776C365.673 63.9253 366.121 64.064 366.633 64.192C367.166 64.32 367.806 64.384 368.553 64.384ZM368.713 56.704C369.545 56.704 370.249 56.5547 370.825 56.256C371.422 55.936 371.902 55.52 372.265 55.008C372.649 54.496 372.926 53.92 373.097 53.28C373.289 52.64 373.385 52 373.385 51.36C373.385 50.8267 373.31 50.2933 373.161 49.76C373.033 49.2053 372.809 48.704 372.489 48.256C372.169 47.808 371.732 47.4453 371.177 47.168C370.622 46.8907 369.929 46.752 369.097 46.752C367.689 46.752 366.548 47.1787 365.673 48.032C364.82 48.8853 364.393 50.144 364.393 51.808C364.393 53.3653 364.777 54.5707 365.545 55.424C366.313 56.2773 367.369 56.704 368.713 56.704Z" fill="white"/>
</g>
<defs>
<filter id="filter0_d_1563_13968" x="0" y="0" width="561" height="106" filterUnits="userSpaceOnUse" color-interpolation-filters="sRGB">
<feFlood flood-opacity="0" result="BackgroundImageFix"/>
<feColorMatrix in="SourceAlpha" type="matrix" values="0 0 0 0 0 0 0 0 0 0 0 0 0 0 0 0 0 0 127 0" result="hardAlpha"/>
<feOffset dx="4" dy="4"/>
<feGaussianBlur stdDeviation="7.5"/>
<feComposite in2="hardAlpha" operator="out"/>
<feColorMatrix type="matrix" values="0 0 0 0 0.666667 0 0 0 0 0.152941 0 0 0 0 0.427451 0 0 0 1 0"/>
<feBlend mode="normal" in2="BackgroundImageFix" result="effect1_dropShadow_1563_13968"/>
<feBlend mode="normal" in="SourceGraphic" in2="effect1_dropShadow_1563_13968" result="shape"/>
</filter>
</defs>
</svg>
