<svg width="435" height="140" viewBox="0 0 435 140" fill="none" xmlns="http://www.w3.org/2000/svg">
<g filter="url(#filter0_d_1563_14040)">
<path fill-rule="evenodd" clip-rule="evenodd" d="M11 41C11 24.4315 24.4315 11 41 11H386C402.569 11 416 24.4315 416 41V91C416 107.569 402.569 121 386 121H41C24.4315 121 11 107.569 11 91V41Z" fill="#AA276D"/>
<path d="M121.587 54.408C122.185 54.408 122.867 54.4613 123.635 54.568C124.425 54.6533 125.161 54.824 125.843 55.08C126.526 55.3147 127.102 55.6347 127.571 56.04C128.041 56.424 128.275 56.904 128.275 57.48C128.275 57.8213 128.179 58.1093 127.987 58.344C127.795 58.5787 127.486 58.696 127.059 58.696C126.739 58.696 126.409 58.632 126.067 58.504C125.747 58.376 125.374 58.248 124.947 58.12C124.542 57.9707 124.062 57.832 123.507 57.704C122.974 57.576 122.345 57.512 121.619 57.512C120.211 57.512 119.166 57.768 118.483 58.28C117.822 58.7707 117.491 59.4533 117.491 60.328C117.491 60.9253 117.641 61.4267 117.939 61.832C118.238 62.2373 118.633 62.5893 119.123 62.888C119.635 63.1653 120.201 63.4 120.819 63.592C121.459 63.784 122.11 63.9653 122.771 64.136C123.518 64.328 124.254 64.5627 124.979 64.84C125.726 65.1173 126.387 65.48 126.963 65.928C127.539 66.376 127.998 66.9413 128.339 67.624C128.702 68.3067 128.883 69.1707 128.883 70.216C128.883 71.304 128.681 72.2853 128.275 73.16C127.87 74.0133 127.315 74.7493 126.611 75.368C125.907 75.9653 125.065 76.4347 124.083 76.776C123.102 77.096 122.035 77.256 120.883 77.256C120.243 77.256 119.497 77.192 118.643 77.064C117.79 76.9573 116.979 76.7653 116.211 76.488C115.443 76.1893 114.793 75.8053 114.259 75.336C113.726 74.8453 113.459 74.248 113.459 73.544C113.459 73.1173 113.566 72.776 113.779 72.52C114.014 72.264 114.355 72.136 114.803 72.136C115.166 72.136 115.465 72.2107 115.699 72.36C115.934 72.488 116.137 72.6373 116.307 72.808C116.947 73.3627 117.673 73.736 118.483 73.928C119.294 74.12 120.126 74.216 120.979 74.216C121.47 74.216 121.982 74.184 122.515 74.12C123.07 74.0347 123.571 73.8747 124.019 73.64C124.467 73.4053 124.841 73.0747 125.139 72.648C125.438 72.2 125.587 71.6027 125.587 70.856C125.587 70.1733 125.449 69.6187 125.171 69.192C124.915 68.744 124.563 68.3707 124.115 68.072C123.667 67.7733 123.134 67.528 122.515 67.336C121.918 67.144 121.267 66.952 120.563 66.76C119.774 66.5467 118.995 66.312 118.227 66.056C117.459 65.8 116.777 65.4587 116.179 65.032C115.582 64.584 115.091 64.0293 114.707 63.368C114.345 62.6853 114.163 61.8213 114.163 60.776C114.163 59.7307 114.355 58.8133 114.739 58.024C115.123 57.2347 115.646 56.5733 116.307 56.04C116.969 55.5067 117.747 55.1013 118.643 54.824C119.561 54.5467 120.542 54.408 121.587 54.408ZM135.188 74.92C135.124 73.576 135.082 71.9867 135.06 70.152C135.06 68.296 135.06 66.1947 135.06 63.848C134.847 63.8693 134.591 63.88 134.292 63.88C134.015 63.88 133.791 63.88 133.62 63.88C133.236 63.88 132.884 63.8693 132.564 63.848C132.266 63.8267 131.999 63.7627 131.764 63.656C131.53 63.5493 131.348 63.4 131.22 63.208C131.092 62.9947 131.028 62.7067 131.028 62.344C131.028 61.32 131.796 60.808 133.332 60.808C133.567 60.808 133.855 60.808 134.196 60.808C134.538 60.808 134.826 60.8293 135.06 60.872C135.06 59.7413 135.082 58.8347 135.124 58.152C135.167 57.4693 135.242 56.9467 135.348 56.584C135.476 56.2 135.636 55.9547 135.828 55.848C136.042 55.72 136.308 55.656 136.628 55.656C136.97 55.656 137.247 55.7733 137.46 56.008C137.674 56.2427 137.834 56.5413 137.94 56.904C138.068 57.2667 138.143 57.672 138.164 58.12C138.207 58.568 138.228 59.0053 138.228 59.432C138.228 59.7307 138.218 60.008 138.196 60.264C138.196 60.4987 138.196 60.712 138.196 60.904C138.495 60.8187 138.804 60.776 139.124 60.776C139.444 60.7547 139.754 60.744 140.052 60.744C140.842 60.744 141.45 60.872 141.876 61.128C142.303 61.3627 142.516 61.7573 142.516 62.312C142.516 62.6533 142.442 62.9307 142.292 63.144C142.143 63.336 141.94 63.4853 141.684 63.592C141.45 63.6987 141.162 63.7733 140.82 63.816C140.5 63.8373 140.148 63.848 139.764 63.848C139.551 63.848 139.306 63.848 139.028 63.848C138.751 63.848 138.495 63.8267 138.26 63.784C138.26 64.9147 138.26 65.9493 138.26 66.888C138.26 67.8267 138.25 68.7333 138.228 69.608C138.207 70.4613 138.186 71.3147 138.164 72.168C138.143 73.0213 138.111 73.928 138.068 74.888C138.047 75.4 137.994 75.7947 137.908 76.072C137.844 76.3493 137.748 76.5627 137.62 76.712C137.492 76.8613 137.343 76.9573 137.172 77C137.023 77.0213 136.842 77.032 136.628 77.032C136.244 77.032 135.914 76.904 135.636 76.648C135.38 76.3707 135.231 75.7947 135.188 74.92ZM158.275 77.128C157.934 77.128 157.656 77.0747 157.443 76.968C157.251 76.84 157.102 76.68 156.995 76.488C156.888 76.296 156.814 76.072 156.771 75.816C156.728 75.5387 156.696 75.2507 156.675 74.952C156.142 75.6133 155.448 76.168 154.595 76.616C153.763 77.064 152.696 77.288 151.395 77.288C150.563 77.288 149.71 77.1707 148.835 76.936C147.982 76.68 147.203 76.2533 146.499 75.656C145.795 75.0373 145.219 74.216 144.771 73.192C144.323 72.168 144.099 70.8773 144.099 69.32C144.099 68.104 144.248 66.9627 144.547 65.896C144.846 64.8293 145.294 63.9013 145.891 63.112C146.51 62.3013 147.278 61.6613 148.195 61.192C149.112 60.7227 150.19 60.488 151.427 60.488C152.515 60.488 153.486 60.6907 154.339 61.096C155.192 61.48 155.96 62.12 156.643 63.016C156.643 62.76 156.654 62.504 156.675 62.248C156.696 61.9707 156.75 61.7253 156.835 61.512C156.942 61.2773 157.102 61.096 157.315 60.968C157.528 60.8187 157.816 60.744 158.179 60.744C158.499 60.744 158.798 60.872 159.075 61.128C159.352 61.384 159.512 61.9387 159.555 62.792C159.619 63.9227 159.662 64.936 159.683 65.832C159.726 66.728 159.747 67.656 159.747 68.616C159.747 69.7893 159.736 70.8667 159.715 71.848C159.694 72.8293 159.64 73.8747 159.555 74.984C159.512 75.4747 159.448 75.8693 159.363 76.168C159.299 76.4453 159.214 76.6587 159.107 76.808C159 76.936 158.872 77.0213 158.723 77.064C158.574 77.1067 158.424 77.128 158.275 77.128ZM156.547 69C156.547 67.8907 156.376 66.984 156.035 66.28C155.715 65.576 155.299 65.032 154.787 64.648C154.296 64.2427 153.763 63.9653 153.187 63.816C152.611 63.6667 152.078 63.592 151.587 63.592C150.819 63.592 150.158 63.7307 149.603 64.008C149.07 64.2853 148.632 64.6693 148.291 65.16C147.95 65.6293 147.694 66.1947 147.523 66.856C147.374 67.496 147.299 68.2 147.299 68.968C147.299 70.8453 147.704 72.232 148.515 73.128C149.347 74.024 150.467 74.472 151.875 74.472C152.707 74.472 153.411 74.3333 153.987 74.056C154.584 73.7573 155.064 73.3627 155.427 72.872C155.811 72.3813 156.088 71.8053 156.259 71.144C156.451 70.4613 156.547 69.7467 156.547 69ZM163.659 75.048C163.574 74.3013 163.52 73.3947 163.499 72.328C163.478 71.2613 163.467 69.9707 163.467 68.456C163.467 66.9627 163.467 65.7573 163.467 64.84C163.488 63.9227 163.552 63.112 163.659 62.408C163.766 61.5333 163.926 60.968 164.139 60.712C164.374 60.456 164.672 60.328 165.035 60.328C165.291 60.328 165.515 60.3493 165.707 60.392C165.92 60.4347 166.102 60.5307 166.251 60.68C166.422 60.808 166.55 61 166.635 61.256C166.72 61.512 166.763 61.864 166.763 62.312C166.763 62.3973 166.774 62.4827 166.795 62.568C166.795 62.6533 166.795 62.7493 166.795 62.856C166.816 62.9413 166.827 63.048 166.827 63.176C167.403 62.4507 168.054 61.832 168.779 61.32C169.526 60.808 170.368 60.552 171.307 60.552C172.566 60.552 173.195 61.0747 173.195 62.12C173.195 62.504 173.11 62.824 172.939 63.08C172.79 63.336 172.566 63.5493 172.267 63.72C171.99 63.8693 171.659 63.9867 171.275 64.072C170.912 64.1573 170.507 64.2427 170.059 64.328C169.376 64.456 168.736 64.7013 168.139 65.064C167.542 65.4053 167.136 65.8427 166.923 66.376C166.923 66.7813 166.923 67.08 166.923 67.272C166.944 67.464 166.955 67.624 166.955 67.752C166.976 67.88 166.987 68.0187 166.987 68.168C166.987 68.3173 166.987 68.552 166.987 68.872C166.987 69.96 166.966 70.984 166.923 71.944C166.88 72.8827 166.838 73.9067 166.795 75.016C166.774 75.528 166.71 75.9227 166.603 76.2C166.518 76.4773 166.4 76.6907 166.251 76.84C166.123 76.9893 165.974 77.0747 165.803 77.096C165.632 77.1387 165.462 77.16 165.291 77.16C164.694 77.16 164.288 77.032 164.075 76.776C163.883 76.4987 163.744 75.9227 163.659 75.048ZM178.313 74.92C178.249 73.576 178.207 71.9867 178.185 70.152C178.185 68.296 178.185 66.1947 178.185 63.848C177.972 63.8693 177.716 63.88 177.417 63.88C177.14 63.88 176.916 63.88 176.745 63.88C176.361 63.88 176.009 63.8693 175.689 63.848C175.391 63.8267 175.124 63.7627 174.889 63.656C174.655 63.5493 174.473 63.4 174.345 63.208C174.217 62.9947 174.153 62.7067 174.153 62.344C174.153 61.32 174.921 60.808 176.457 60.808C176.692 60.808 176.98 60.808 177.321 60.808C177.663 60.808 177.951 60.8293 178.185 60.872C178.185 59.7413 178.207 58.8347 178.249 58.152C178.292 57.4693 178.367 56.9467 178.473 56.584C178.601 56.2 178.761 55.9547 178.953 55.848C179.167 55.72 179.433 55.656 179.753 55.656C180.095 55.656 180.372 55.7733 180.585 56.008C180.799 56.2427 180.959 56.5413 181.065 56.904C181.193 57.2667 181.268 57.672 181.289 58.12C181.332 58.568 181.353 59.0053 181.353 59.432C181.353 59.7307 181.343 60.008 181.321 60.264C181.321 60.4987 181.321 60.712 181.321 60.904C181.62 60.8187 181.929 60.776 182.249 60.776C182.569 60.7547 182.879 60.744 183.177 60.744C183.967 60.744 184.575 60.872 185.001 61.128C185.428 61.3627 185.641 61.7573 185.641 62.312C185.641 62.6533 185.567 62.9307 185.417 63.144C185.268 63.336 185.065 63.4853 184.809 63.592C184.575 63.6987 184.287 63.7733 183.945 63.816C183.625 63.8373 183.273 63.848 182.889 63.848C182.676 63.848 182.431 63.848 182.153 63.848C181.876 63.848 181.62 63.8267 181.385 63.784C181.385 64.9147 181.385 65.9493 181.385 66.888C181.385 67.8267 181.375 68.7333 181.353 69.608C181.332 70.4613 181.311 71.3147 181.289 72.168C181.268 73.0213 181.236 73.928 181.193 74.888C181.172 75.4 181.119 75.7947 181.033 76.072C180.969 76.3493 180.873 76.5627 180.745 76.712C180.617 76.8613 180.468 76.9573 180.297 77C180.148 77.0213 179.967 77.032 179.753 77.032C179.369 77.032 179.039 76.904 178.761 76.648C178.505 76.3707 178.356 75.7947 178.313 74.92ZM198.136 68.072C198.136 68.7547 198.136 69.3627 198.136 69.896C198.136 70.408 198.125 70.8987 198.104 71.368C198.104 71.8373 198.093 72.3067 198.072 72.776C198.05 73.2453 198.029 73.768 198.008 74.344C199.48 74.1733 200.632 74.0347 201.464 73.928C202.296 73.8213 202.946 73.736 203.416 73.672C203.906 73.608 204.28 73.5653 204.536 73.544C204.813 73.5227 205.133 73.512 205.496 73.512C206.434 73.512 206.904 73.9707 206.904 74.888C206.904 75.2507 206.712 75.56 206.328 75.816C205.965 76.072 205.496 76.296 204.92 76.488C204.365 76.6587 203.736 76.808 203.032 76.936C202.349 77.0427 201.677 77.1173 201.016 77.16C200.376 77.224 199.789 77.2667 199.256 77.288C198.744 77.3093 198.381 77.32 198.168 77.32C197.4 77.32 196.802 77.2667 196.376 77.16C195.949 77.0747 195.629 76.7973 195.416 76.328C195.202 75.8373 195.064 75.1013 195 74.12C194.957 73.1387 194.936 71.752 194.936 69.96C194.936 68.232 194.936 66.696 194.936 65.352C194.936 64.008 194.946 62.8027 194.968 61.736C194.989 60.6693 195 59.72 195 58.888C195.021 58.056 195.053 57.2987 195.096 56.616C195.138 55.7413 195.288 55.176 195.544 54.92C195.8 54.6427 196.12 54.504 196.504 54.504C196.717 54.504 196.898 54.5253 197.048 54.568C197.218 54.5893 197.368 54.6747 197.496 54.824C197.624 54.9733 197.72 55.1867 197.784 55.464C197.869 55.7413 197.922 56.136 197.944 56.648C198.029 58.5253 198.082 60.3813 198.104 62.216C198.125 64.0507 198.136 66.0027 198.136 68.072ZM216.266 71.112C215.519 71.112 214.73 71.0587 213.898 70.952C213.087 70.824 212.202 70.568 211.242 70.184C211.434 71.4853 211.967 72.4667 212.842 73.128C213.738 73.7893 215.018 74.12 216.682 74.12C217.279 74.12 217.813 74.088 218.282 74.024C218.773 73.9387 219.199 73.8533 219.562 73.768C219.925 73.6613 220.245 73.576 220.522 73.512C220.799 73.4267 221.055 73.384 221.29 73.384C221.589 73.384 221.877 73.48 222.154 73.672C222.431 73.8427 222.57 74.1413 222.57 74.568C222.57 75.1013 222.346 75.5387 221.898 75.88C221.471 76.2213 220.938 76.4987 220.298 76.712C219.679 76.904 219.018 77.032 218.314 77.096C217.61 77.1813 216.991 77.224 216.458 77.224C215.199 77.224 214.037 77.0533 212.97 76.712C211.925 76.3707 211.018 75.8587 210.25 75.176C209.482 74.472 208.885 73.608 208.458 72.584C208.031 71.56 207.818 70.3653 207.818 69C207.818 67.6773 208.021 66.504 208.426 65.48C208.853 64.456 209.429 63.592 210.154 62.888C210.879 62.184 211.733 61.6507 212.714 61.288C213.717 60.9253 214.794 60.744 215.946 60.744C216.842 60.744 217.706 60.8613 218.538 61.096C219.391 61.3307 220.138 61.6827 220.778 62.152C221.439 62.6213 221.962 63.2187 222.346 63.944C222.751 64.648 222.954 65.48 222.954 66.44C222.954 67.2933 222.794 68.0187 222.474 68.616C222.154 69.2133 221.695 69.6933 221.098 70.056C220.522 70.4187 219.818 70.6853 218.986 70.856C218.175 71.0267 217.269 71.112 216.266 71.112ZM216.042 63.688C215.466 63.688 214.911 63.7627 214.378 63.912C213.845 64.04 213.354 64.264 212.906 64.584C212.479 64.8827 212.117 65.288 211.818 65.8C211.519 66.2907 211.317 66.9093 211.21 67.656C212.021 68.0187 212.81 68.2747 213.578 68.424C214.346 68.552 215.157 68.616 216.01 68.616C217.269 68.616 218.197 68.4667 218.794 68.168C219.413 67.848 219.722 67.2827 219.722 66.472C219.722 65.7253 219.434 65.0747 218.858 64.52C218.303 63.9653 217.365 63.688 216.042 63.688ZM239.119 77.128C238.778 77.128 238.5 77.0747 238.287 76.968C238.095 76.84 237.946 76.68 237.839 76.488C237.732 76.296 237.658 76.072 237.615 75.816C237.572 75.5387 237.54 75.2507 237.519 74.952C236.986 75.6133 236.292 76.168 235.439 76.616C234.607 77.064 233.54 77.288 232.239 77.288C231.407 77.288 230.554 77.1707 229.679 76.936C228.826 76.68 228.047 76.2533 227.343 75.656C226.639 75.0373 226.063 74.216 225.615 73.192C225.167 72.168 224.943 70.8773 224.943 69.32C224.943 68.104 225.092 66.9627 225.391 65.896C225.69 64.8293 226.138 63.9013 226.735 63.112C227.354 62.3013 228.122 61.6613 229.039 61.192C229.956 60.7227 231.034 60.488 232.271 60.488C233.359 60.488 234.33 60.6907 235.183 61.096C236.036 61.48 236.804 62.12 237.487 63.016C237.487 62.76 237.498 62.504 237.519 62.248C237.54 61.9707 237.594 61.7253 237.679 61.512C237.786 61.2773 237.946 61.096 238.159 60.968C238.372 60.8187 238.66 60.744 239.023 60.744C239.343 60.744 239.642 60.872 239.919 61.128C240.196 61.384 240.356 61.9387 240.399 62.792C240.463 63.9227 240.506 64.936 240.527 65.832C240.57 66.728 240.591 67.656 240.591 68.616C240.591 69.7893 240.58 70.8667 240.559 71.848C240.538 72.8293 240.484 73.8747 240.399 74.984C240.356 75.4747 240.292 75.8693 240.207 76.168C240.143 76.4453 240.058 76.6587 239.951 76.808C239.844 76.936 239.716 77.0213 239.567 77.064C239.418 77.1067 239.268 77.128 239.119 77.128ZM237.391 69C237.391 67.8907 237.22 66.984 236.879 66.28C236.559 65.576 236.143 65.032 235.631 64.648C235.14 64.2427 234.607 63.9653 234.031 63.816C233.455 63.6667 232.922 63.592 232.431 63.592C231.663 63.592 231.002 63.7307 230.447 64.008C229.914 64.2853 229.476 64.6693 229.135 65.16C228.794 65.6293 228.538 66.1947 228.367 66.856C228.218 67.496 228.143 68.2 228.143 68.968C228.143 70.8453 228.548 72.232 229.359 73.128C230.191 74.024 231.311 74.472 232.719 74.472C233.551 74.472 234.255 74.3333 234.831 74.056C235.428 73.7573 235.908 73.3627 236.271 72.872C236.655 72.3813 236.932 71.8053 237.103 71.144C237.295 70.4613 237.391 69.7467 237.391 69ZM244.503 75.048C244.417 74.3013 244.364 73.3947 244.343 72.328C244.321 71.2613 244.311 69.9707 244.311 68.456C244.311 66.9627 244.311 65.7573 244.311 64.84C244.332 63.9227 244.396 63.112 244.503 62.408C244.609 61.5333 244.769 60.968 244.983 60.712C245.217 60.456 245.516 60.328 245.879 60.328C246.135 60.328 246.359 60.3493 246.551 60.392C246.764 60.4347 246.945 60.5307 247.095 60.68C247.265 60.808 247.393 61 247.479 61.256C247.564 61.512 247.607 61.864 247.607 62.312C247.607 62.3973 247.617 62.4827 247.639 62.568C247.639 62.6533 247.639 62.7493 247.639 62.856C247.66 62.9413 247.671 63.048 247.671 63.176C248.247 62.4507 248.897 61.832 249.623 61.32C250.369 60.808 251.212 60.552 252.151 60.552C253.409 60.552 254.039 61.0747 254.039 62.12C254.039 62.504 253.953 62.824 253.783 63.08C253.633 63.336 253.409 63.5493 253.111 63.72C252.833 63.8693 252.503 63.9867 252.119 64.072C251.756 64.1573 251.351 64.2427 250.903 64.328C250.22 64.456 249.58 64.7013 248.983 65.064C248.385 65.4053 247.98 65.8427 247.767 66.376C247.767 66.7813 247.767 67.08 247.767 67.272C247.788 67.464 247.799 67.624 247.799 67.752C247.82 67.88 247.831 68.0187 247.831 68.168C247.831 68.3173 247.831 68.552 247.831 68.872C247.831 69.96 247.809 70.984 247.767 71.944C247.724 72.8827 247.681 73.9067 247.639 75.016C247.617 75.528 247.553 75.9227 247.447 76.2C247.361 76.4773 247.244 76.6907 247.095 76.84C246.967 76.9893 246.817 77.0747 246.647 77.096C246.476 77.1387 246.305 77.16 246.135 77.16C245.537 77.16 245.132 77.032 244.919 76.776C244.727 76.4987 244.588 75.9227 244.503 75.048ZM263.925 63.368C263.136 63.368 262.421 63.496 261.781 63.752C261.162 64.008 260.458 64.392 259.669 64.904C259.669 65.352 259.669 66.0133 259.669 66.888C259.669 67.7413 259.658 68.68 259.637 69.704C259.616 70.7067 259.594 71.6987 259.573 72.68C259.552 73.6613 259.509 74.4827 259.445 75.144C259.402 75.5707 259.349 75.912 259.285 76.168C259.242 76.4027 259.168 76.584 259.061 76.712C258.976 76.84 258.848 76.9253 258.677 76.968C258.528 76.9893 258.325 77 258.069 77C257.813 77 257.6 76.9893 257.429 76.968C257.28 76.9253 257.152 76.8507 257.045 76.744C256.938 76.616 256.853 76.4347 256.789 76.2C256.725 75.9653 256.672 75.6453 256.629 75.24C256.586 74.856 256.544 74.344 256.501 73.704C256.48 73.064 256.458 72.3707 256.437 71.624C256.416 70.856 256.394 70.088 256.373 69.32C256.373 68.5307 256.373 67.8053 256.373 67.144C256.373 66.056 256.384 65.1707 256.405 64.488C256.448 63.8053 256.512 63.1973 256.597 62.664C256.725 61.768 256.896 61.2027 257.109 60.968C257.322 60.7333 257.61 60.616 257.973 60.616C258.506 60.616 258.901 60.7653 259.157 61.064C259.434 61.3627 259.605 61.8533 259.669 62.536C260.458 61.8533 261.301 61.3093 262.197 60.904C263.114 60.4987 264.053 60.296 265.013 60.296C265.93 60.296 266.762 60.5093 267.509 60.936C268.277 61.3627 268.906 62.056 269.397 63.016C269.696 63.592 269.92 64.232 270.069 64.936C270.218 65.6187 270.325 66.344 270.389 67.112C270.41 67.4533 270.432 67.7947 270.453 68.136C270.474 68.456 270.485 68.808 270.485 69.192C270.506 69.5547 270.517 69.9707 270.517 70.44C270.517 70.9093 270.517 71.464 270.517 72.104C270.517 72.7867 270.506 73.4267 270.485 74.024C270.464 74.6213 270.4 75.144 270.293 75.592C270.208 76.0187 270.048 76.36 269.813 76.616C269.578 76.8507 269.258 76.968 268.853 76.968C267.872 76.968 267.36 76.4987 267.317 75.56C267.317 75.496 267.317 75.2293 267.317 74.76C267.317 74.2693 267.306 73.704 267.285 73.064C267.285 72.424 267.274 71.7733 267.253 71.112C267.253 70.4507 267.242 69.9067 267.221 69.48C267.2 69.1387 267.168 68.776 267.125 68.392C267.104 67.9867 267.061 67.5813 266.997 67.176C266.954 66.7707 266.89 66.3867 266.805 66.024C266.72 65.64 266.613 65.2987 266.485 65C266.186 64.296 265.813 63.848 265.365 63.656C264.917 63.464 264.437 63.368 263.925 63.368ZM274.442 75.016C274.399 74.2267 274.356 73.3307 274.314 72.328C274.292 71.304 274.282 70.184 274.282 68.968C274.282 67.4533 274.292 66.1627 274.314 65.096C274.335 64.008 274.388 63.1227 274.474 62.44C274.58 61.736 274.74 61.224 274.954 60.904C275.167 60.5627 275.466 60.392 275.85 60.392C276.212 60.392 276.532 60.52 276.81 60.776C277.087 61.032 277.247 61.5867 277.29 62.44C277.418 64.68 277.482 66.8453 277.482 68.936C277.482 70.0027 277.46 71.0053 277.418 71.944C277.375 72.8613 277.332 73.8747 277.29 74.984C277.268 75.496 277.215 75.8907 277.13 76.168C277.066 76.4453 276.97 76.6587 276.842 76.808C276.714 76.9573 276.564 77.0427 276.394 77.064C276.244 77.1067 276.063 77.128 275.85 77.128C275.466 77.128 275.146 77 274.89 76.744C274.634 76.4667 274.484 75.8907 274.442 75.016ZM275.882 54.6C276.372 54.6 276.82 54.792 277.226 55.176C277.652 55.56 277.866 56.0187 277.866 56.552C277.866 57.064 277.652 57.512 277.226 57.896C276.799 58.2587 276.319 58.44 275.786 58.44C275.338 58.44 274.911 58.2587 274.506 57.896C274.122 57.512 273.93 57.0427 273.93 56.488C273.93 55.976 274.122 55.5387 274.506 55.176C274.911 54.792 275.37 54.6 275.882 54.6ZM288.956 63.368C288.167 63.368 287.452 63.496 286.812 63.752C286.194 64.008 285.49 64.392 284.7 64.904C284.7 65.352 284.7 66.0133 284.7 66.888C284.7 67.7413 284.69 68.68 284.668 69.704C284.647 70.7067 284.626 71.6987 284.604 72.68C284.583 73.6613 284.54 74.4827 284.476 75.144C284.434 75.5707 284.38 75.912 284.316 76.168C284.274 76.4027 284.199 76.584 284.092 76.712C284.007 76.84 283.879 76.9253 283.708 76.968C283.559 76.9893 283.356 77 283.1 77C282.844 77 282.631 76.9893 282.46 76.968C282.311 76.9253 282.183 76.8507 282.076 76.744C281.97 76.616 281.884 76.4347 281.82 76.2C281.756 75.9653 281.703 75.6453 281.66 75.24C281.618 74.856 281.575 74.344 281.532 73.704C281.511 73.064 281.49 72.3707 281.468 71.624C281.447 70.856 281.426 70.088 281.404 69.32C281.404 68.5307 281.404 67.8053 281.404 67.144C281.404 66.056 281.415 65.1707 281.436 64.488C281.479 63.8053 281.543 63.1973 281.628 62.664C281.756 61.768 281.927 61.2027 282.14 60.968C282.354 60.7333 282.642 60.616 283.004 60.616C283.538 60.616 283.932 60.7653 284.188 61.064C284.466 61.3627 284.636 61.8533 284.7 62.536C285.49 61.8533 286.332 61.3093 287.228 60.904C288.146 60.4987 289.084 60.296 290.044 60.296C290.962 60.296 291.794 60.5093 292.54 60.936C293.308 61.3627 293.938 62.056 294.428 63.016C294.727 63.592 294.951 64.232 295.1 64.936C295.25 65.6187 295.356 66.344 295.42 67.112C295.442 67.4533 295.463 67.7947 295.484 68.136C295.506 68.456 295.516 68.808 295.516 69.192C295.538 69.5547 295.548 69.9707 295.548 70.44C295.548 70.9093 295.548 71.464 295.548 72.104C295.548 72.7867 295.538 73.4267 295.516 74.024C295.495 74.6213 295.431 75.144 295.324 75.592C295.239 76.0187 295.079 76.36 294.844 76.616C294.61 76.8507 294.29 76.968 293.884 76.968C292.903 76.968 292.391 76.4987 292.348 75.56C292.348 75.496 292.348 75.2293 292.348 74.76C292.348 74.2693 292.338 73.704 292.316 73.064C292.316 72.424 292.306 71.7733 292.284 71.112C292.284 70.4507 292.274 69.9067 292.252 69.48C292.231 69.1387 292.199 68.776 292.156 68.392C292.135 67.9867 292.092 67.5813 292.028 67.176C291.986 66.7707 291.922 66.3867 291.836 66.024C291.751 65.64 291.644 65.2987 291.516 65C291.218 64.296 290.844 63.848 290.396 63.656C289.948 63.464 289.468 63.368 288.956 63.368ZM305.553 81.384C306.556 81.384 307.398 81.1813 308.081 80.776C308.785 80.392 309.35 79.8267 309.777 79.08C310.204 78.3547 310.502 77.48 310.673 76.456C310.865 75.4107 310.961 74.2373 310.961 72.936C310.769 73.6187 310.492 74.1947 310.129 74.664C309.766 75.1333 309.34 75.5173 308.849 75.816C308.38 76.0933 307.846 76.296 307.249 76.424C306.652 76.552 306.033 76.616 305.393 76.616C304.412 76.616 303.484 76.4773 302.609 76.2C301.734 75.9227 300.966 75.4853 300.305 74.888C299.665 74.2907 299.153 73.5333 298.769 72.616C298.385 71.6773 298.193 70.5573 298.193 69.256C298.193 67.9973 298.374 66.8453 298.737 65.8C299.121 64.7333 299.665 63.816 300.369 63.048C301.094 62.28 301.969 61.6827 302.993 61.256C304.017 60.8293 305.19 60.616 306.513 60.616C307.217 60.616 307.836 60.68 308.369 60.808C308.924 60.936 309.414 61.1067 309.841 61.32C310.268 61.5333 310.641 61.7893 310.961 62.088C311.302 62.3867 311.612 62.7067 311.889 63.048C312.7 64.072 313.286 65.288 313.649 66.696C314.012 68.0827 314.193 69.7573 314.193 71.72C314.193 73.1707 314.065 74.6533 313.809 76.168C313.574 77.6827 313.137 79.048 312.497 80.264C311.857 81.5013 310.972 82.504 309.841 83.272C308.71 84.0613 307.26 84.456 305.489 84.456C305.169 84.456 304.806 84.4347 304.401 84.392C304.017 84.3707 303.612 84.328 303.185 84.264C302.78 84.2 302.374 84.104 301.969 83.976C301.564 83.8693 301.19 83.72 300.849 83.528C300.422 83.2933 300.081 83.0693 299.825 82.856C299.569 82.6427 299.441 82.2907 299.441 81.8C299.441 81.3947 299.526 81.0213 299.697 80.68C299.889 80.36 300.209 80.2 300.657 80.2C300.87 80.2 301.105 80.264 301.361 80.392C301.617 80.52 301.926 80.648 302.289 80.776C302.673 80.9253 303.121 81.064 303.633 81.192C304.166 81.32 304.806 81.384 305.553 81.384ZM305.713 73.704C306.545 73.704 307.249 73.5547 307.825 73.256C308.422 72.936 308.902 72.52 309.265 72.008C309.649 71.496 309.926 70.92 310.097 70.28C310.289 69.64 310.385 69 310.385 68.36C310.385 67.8267 310.31 67.2933 310.161 66.76C310.033 66.2053 309.809 65.704 309.489 65.256C309.169 64.808 308.732 64.4453 308.177 64.168C307.622 63.8907 306.929 63.752 306.097 63.752C304.689 63.752 303.548 64.1787 302.673 65.032C301.82 65.8853 301.393 67.144 301.393 68.808C301.393 70.3653 301.777 71.5707 302.545 72.424C303.313 73.2773 304.369 73.704 305.713 73.704Z" fill="white"/>
</g>
<defs>
<filter id="filter0_d_1563_14040" x="0" y="0" width="435" height="140" filterUnits="userSpaceOnUse" color-interpolation-filters="sRGB">
<feFlood flood-opacity="0" result="BackgroundImageFix"/>
<feColorMatrix in="SourceAlpha" type="matrix" values="0 0 0 0 0 0 0 0 0 0 0 0 0 0 0 0 0 0 127 0" result="hardAlpha"/>
<feOffset dx="4" dy="4"/>
<feGaussianBlur stdDeviation="7.5"/>
<feComposite in2="hardAlpha" operator="out"/>
<feColorMatrix type="matrix" values="0 0 0 0 0.666667 0 0 0 0 0.152941 0 0 0 0 0.427451 0 0 0 1 0"/>
<feBlend mode="normal" in2="BackgroundImageFix" result="effect1_dropShadow_1563_14040"/>
<feBlend mode="normal" in="SourceGraphic" in2="effect1_dropShadow_1563_14040" result="shape"/>
</filter>
</defs>
</svg>
