<svg width="600" height="477" viewBox="0 0 600 477" fill="none" xmlns="http://www.w3.org/2000/svg">
<path d="M597.127 283.229C606.958 356.4 593.571 429.649 525.476 458.173C457.38 486.696 379.056 454.617 350.532 386.521C322.009 318.426 389.308 277.682 422.184 211.578C488.944 77.341 566.595 56.0011 597.127 283.229Z" fill="#F2F2F2"/>
<path d="M474.536 476.695C533.46 476.695 581.227 470.197 581.227 462.181C581.227 454.165 533.46 447.667 474.536 447.667C415.613 447.667 367.846 454.165 367.846 462.181C367.846 470.197 415.613 476.695 474.536 476.695Z" fill="#1C2359"/>
<path d="M430.751 418.051L404.74 425.241L408.753 439.759L434.764 432.569L430.751 418.051Z" fill="#1C2359"/>
<path d="M406.534 442.326C409.039 441.633 409.573 435.655 407.726 428.974C405.879 422.292 402.351 417.437 399.845 418.13C397.34 418.822 396.806 424.8 398.653 431.482C400.5 438.163 404.028 443.019 406.534 442.326Z" fill="#1C2359"/>
<path d="M486.841 375.309C488.68 361.742 486.718 350.276 482.459 349.699C478.2 349.122 473.256 359.652 471.417 373.219C469.579 386.786 471.541 398.252 475.8 398.829C480.059 399.407 485.002 388.876 486.841 375.309Z" fill="#1C2359"/>
<path d="M474.275 470.254C501.657 470.254 523.855 448.056 523.855 420.674C523.855 393.292 501.657 371.094 474.275 371.094C446.893 371.094 424.695 393.292 424.695 420.674C424.695 448.056 446.893 470.254 474.275 470.254Z" fill="#1C2359"/>
<path d="M430.751 409.264L404.74 416.455L408.753 430.972L434.764 423.782L430.751 409.264Z" fill="#1C2359"/>
<path d="M406.534 433.54C409.039 432.847 409.573 426.869 407.726 420.188C405.879 413.506 402.351 408.651 399.845 409.344C397.34 410.036 396.806 416.014 398.653 422.696C400.5 429.377 404.028 434.232 406.534 433.54Z" fill="#1C2359"/>
<path d="M487.295 409.217C496.653 409.217 504.24 401.63 504.24 392.272C504.24 382.913 496.653 375.327 487.295 375.327C477.936 375.327 470.35 382.913 470.35 392.272C470.35 401.63 477.936 409.217 487.295 409.217Z" fill="white"/>
<path d="M492.713 390.434C495.832 390.434 498.361 387.906 498.361 384.786C498.361 381.667 495.832 379.138 492.713 379.138C489.593 379.138 487.064 381.667 487.064 384.786C487.064 387.906 489.593 390.434 492.713 390.434Z" fill="#1C2359"/>
<path d="M531.53 454.745C549.877 453.827 563.929 436.665 562.915 416.414C561.902 396.163 546.207 380.49 527.859 381.408C509.512 382.327 506.633 396.729 507.647 416.981C508.66 437.232 513.182 455.663 531.53 454.745Z" fill="#AA276D"/>
<path d="M454.013 399.697C451.026 399.938 448.066 398.984 445.784 397.043C443.501 395.102 442.083 392.334 441.842 389.348C441.6 386.362 442.554 383.402 444.495 381.119C446.436 378.837 449.204 377.419 452.19 377.177C458.409 376.674 460.105 381.611 460.608 387.829C461.111 394.048 460.231 399.193 454.013 399.697Z" fill="white"/>
<path d="M503.156 318.007H423.998V358.274H503.156V318.007Z" fill="#AA276D"/>
<path d="M468.232 387.09C470.071 373.523 468.109 362.057 463.85 361.48C459.59 360.902 454.647 371.433 452.808 385C450.969 398.567 452.931 410.033 457.19 410.61C461.449 411.187 466.393 400.657 468.232 387.09Z" fill="#1C2359"/>
<path d="M356.373 393.994C358.638 393.994 360.475 392.158 360.475 389.893C360.475 387.627 358.638 385.791 356.373 385.791C354.108 385.791 352.271 387.627 352.271 389.893C352.271 392.158 354.108 393.994 356.373 393.994Z" fill="#AA276D"/>
<path d="M528.991 223.588C528.927 223.588 528.863 223.578 528.801 223.559C362.862 171.081 216.61 177.943 123.139 192.941C110.419 194.981 97.6643 197.338 85.2302 199.945C82.0557 200.61 78.7624 201.323 75.4418 202.065C71.4762 202.949 67.5632 203.858 63.8112 204.768C62.1907 205.151 60.6019 205.538 59.0448 205.928C56.6861 206.51 54.2928 207.117 51.7273 207.784C48.8605 208.523 45.9478 209.298 43.0682 210.088C43.0576 210.092 43.0469 210.095 43.036 210.097L43.0363 210.098C39.7837 210.986 36.5483 211.9 33.4196 212.812C31.7262 213.301 30.091 213.784 28.5248 214.26C28.3498 214.308 28.1947 214.355 28.0375 214.403L27.7011 214.505C27.5062 214.565 27.3137 214.623 27.1213 214.678L27.109 214.682L27.1093 214.682L26.6 214.84C25.9926 215.024 25.4 215.204 24.8171 215.383C9.41296 220.131 0.94477 223.51 0.861112 223.543C0.784611 223.573 0.702819 223.589 0.620407 223.588C0.537995 223.587 0.456576 223.57 0.380799 223.537C0.305022 223.505 0.236369 223.458 0.178763 223.399C0.121157 223.34 0.0757241 223.27 0.0450594 223.194C0.0143947 223.117 -0.00090378 223.035 4.1258e-05 222.953C0.000986296 222.871 0.0181548 222.789 0.0505657 222.713C0.0829766 222.638 0.129996 222.569 0.188938 222.511C0.247881 222.454 0.317595 222.408 0.394096 222.378C0.478369 222.345 8.98793 218.949 24.4482 214.183C25.0332 214.003 25.6274 213.824 26.2366 213.639L26.7097 213.492C26.726 213.486 26.7422 213.481 26.7588 213.476C26.9503 213.422 27.1415 213.363 27.3358 213.305L27.6729 213.202C27.8408 213.151 28.0063 213.101 28.1757 213.054C29.7312 212.581 31.3719 212.098 33.0696 211.607C36.1996 210.694 39.4381 209.78 42.6931 208.891C42.7032 208.887 42.7136 208.884 42.7237 208.881V208.881C45.6135 208.088 48.5369 207.31 51.4129 206.568C53.9824 205.901 56.3802 205.293 58.7429 204.709C60.3067 204.32 61.8986 203.933 63.5185 203.547C67.2749 202.636 71.1958 201.725 75.1685 200.84C78.4943 200.098 81.7931 199.383 84.9727 198.717C97.4262 196.105 110.201 193.745 122.94 191.702C216.545 176.682 363.007 169.809 529.18 222.362C529.322 222.407 529.445 222.502 529.524 222.629C529.603 222.757 529.634 222.908 529.611 223.056C529.588 223.204 529.513 223.339 529.399 223.437C529.286 223.534 529.141 223.588 528.991 223.588L528.991 223.588Z" fill="#1C2359"/>
<path d="M150.954 214.139C155.842 201.35 156.55 189.739 152.535 188.204C148.52 186.67 141.303 195.793 136.415 208.582C131.527 221.37 130.819 232.982 134.834 234.516C138.849 236.051 146.066 226.927 150.954 214.139Z" fill="#1C2359"/>
<path d="M154.974 196.882C159.717 196.882 163.562 193.037 163.562 188.293C163.562 183.55 159.717 179.705 154.974 179.705C150.23 179.705 146.385 183.55 146.385 188.293C146.385 193.037 150.23 196.882 154.974 196.882Z" fill="#AA276D"/>
<path d="M274.068 142.587C272.112 142.587 270.2 142.007 268.574 140.92C266.948 139.834 265.681 138.29 264.932 136.483C264.184 134.676 263.988 132.688 264.37 130.77C264.751 128.852 265.693 127.09 267.076 125.707C268.459 124.324 270.22 123.382 272.139 123.001C274.057 122.619 276.045 122.815 277.852 123.563C279.658 124.312 281.203 125.579 282.289 127.205C283.376 128.831 283.956 130.743 283.956 132.699C283.953 135.32 282.91 137.833 281.057 139.687C279.203 141.541 276.69 142.584 274.068 142.587V142.587ZM274.068 124.066C272.361 124.066 270.691 124.572 269.272 125.521C267.852 126.469 266.745 127.817 266.092 129.395C265.439 130.972 265.268 132.708 265.601 134.383C265.934 136.057 266.756 137.596 267.963 138.803C269.171 140.01 270.709 140.833 272.384 141.166C274.058 141.499 275.794 141.328 277.372 140.674C278.949 140.021 280.297 138.914 281.246 137.495C282.194 136.075 282.701 134.406 282.701 132.699C282.698 130.41 281.788 128.215 280.169 126.597C278.551 124.979 276.357 124.068 274.068 124.066Z" fill="#1C2359"/>
<path d="M343.103 255.553C341.147 255.553 339.236 254.973 337.61 253.887C335.983 252.8 334.716 251.256 333.968 249.449C333.219 247.642 333.023 245.654 333.405 243.736C333.786 241.818 334.728 240.056 336.111 238.673C337.494 237.29 339.256 236.348 341.174 235.967C343.092 235.585 345.08 235.781 346.887 236.529C348.694 237.278 350.238 238.545 351.325 240.171C352.411 241.797 352.991 243.709 352.991 245.665C352.988 248.286 351.945 250.8 350.092 252.653C348.238 254.507 345.725 255.55 343.103 255.553V255.553ZM343.103 237.032C341.396 237.032 339.727 237.538 338.307 238.487C336.887 239.435 335.781 240.784 335.127 242.361C334.474 243.939 334.303 245.674 334.636 247.349C334.969 249.024 335.791 250.562 336.999 251.769C338.206 252.977 339.744 253.799 341.419 254.132C343.093 254.465 344.829 254.294 346.407 253.641C347.984 252.987 349.332 251.881 350.281 250.461C351.23 249.041 351.736 247.372 351.736 245.665C351.733 243.376 350.823 241.182 349.205 239.563C347.586 237.945 345.392 237.035 343.103 237.032V237.032Z" fill="#1C2359"/>
<path d="M195.618 310.781C193.663 310.781 191.751 310.201 190.125 309.115C188.499 308.028 187.232 306.484 186.483 304.677C185.735 302.871 185.539 300.882 185.92 298.964C186.302 297.046 187.244 295.284 188.626 293.902C190.009 292.519 191.771 291.577 193.689 291.195C195.607 290.814 197.595 291.01 199.402 291.758C201.209 292.506 202.753 293.774 203.84 295.4C204.926 297.026 205.506 298.937 205.506 300.893C205.503 303.515 204.461 306.028 202.607 307.882C200.753 309.735 198.24 310.778 195.618 310.781V310.781ZM195.618 292.261C193.911 292.261 192.242 292.767 190.822 293.715C189.403 294.664 188.296 296.012 187.643 297.59C186.989 299.167 186.818 300.903 187.152 302.578C187.485 304.252 188.307 305.79 189.514 306.998C190.722 308.205 192.26 309.027 193.934 309.36C195.609 309.693 197.345 309.522 198.922 308.869C200.5 308.215 201.848 307.109 202.796 305.689C203.745 304.269 204.251 302.6 204.251 300.893C204.249 298.604 203.338 296.41 201.72 294.792C200.101 293.173 197.907 292.263 195.618 292.261V292.261Z" fill="#1C2359"/>
<path d="M120.573 476.695C179.497 476.695 227.264 470.197 227.264 462.181C227.264 454.165 179.497 447.667 120.573 447.667C61.6498 447.667 13.8828 454.165 13.8828 462.181C13.8828 470.197 61.6498 476.695 120.573 476.695Z" fill="#1C2359"/>
<path d="M114.802 440.843C142.184 440.843 164.382 418.645 164.382 391.263C164.382 363.881 142.184 341.684 114.802 341.684C87.4202 341.684 65.2227 363.881 65.2227 391.263C65.2227 418.645 87.4202 440.843 114.802 440.843Z" fill="#1C2359"/>
<path d="M107.271 430.174H92.209V457.16H107.271V430.174Z" fill="#1C2359"/>
<path d="M137.396 430.174H122.334V457.16H137.396V430.174Z" fill="#1C2359"/>
<path d="M104.761 462.181C111.693 462.181 117.313 460.074 117.313 457.474C117.313 454.874 111.693 452.767 104.761 452.767C97.8286 452.767 92.209 454.874 92.209 457.474C92.209 460.074 97.8286 462.181 104.761 462.181Z" fill="#1C2359"/>
<path d="M134.886 461.554C141.818 461.554 147.438 459.446 147.438 456.847C147.438 454.247 141.818 452.14 134.886 452.14C127.954 452.14 122.334 454.247 122.334 456.847C122.334 459.446 127.954 461.554 134.886 461.554Z" fill="#1C2359"/>
<path d="M116.058 395.657C125.417 395.657 133.003 388.07 133.003 378.712C133.003 369.353 125.417 361.767 116.058 361.767C106.7 361.767 99.1133 369.353 99.1133 378.712C99.1133 388.07 106.7 395.657 116.058 395.657Z" fill="white"/>
<path d="M116.058 384.36C119.178 384.36 121.707 381.831 121.707 378.711C121.707 375.592 119.178 373.063 116.058 373.063C112.939 373.063 110.41 375.592 110.41 378.711C110.41 381.831 112.939 384.36 116.058 384.36Z" fill="#1C2359"/>
<path d="M66.7095 345.155C62.7062 327.227 75.5033 309.11 95.2926 304.692C115.082 300.273 134.37 311.225 138.373 329.154C142.376 347.082 129.261 353.695 109.472 358.114C89.6826 362.532 70.7129 363.084 66.7095 345.155Z" fill="#AA276D"/>
<path d="M97.859 298.38C125.241 298.38 147.439 276.182 147.439 248.8C147.439 221.418 125.241 199.22 97.859 199.22C70.4769 199.22 48.2793 221.418 48.2793 248.8C48.2793 276.182 70.4769 298.38 97.859 298.38Z" fill="#1C2359"/>
<path d="M90.3278 287.71H75.2656V314.697H90.3278V287.71Z" fill="#1C2359"/>
<path d="M120.451 287.71H105.389V314.697H120.451V287.71Z" fill="#1C2359"/>
<path d="M87.8174 319.718C94.7496 319.718 100.369 317.61 100.369 315.011C100.369 312.411 94.7496 310.304 87.8174 310.304C80.8853 310.304 75.2656 312.411 75.2656 315.011C75.2656 317.61 80.8853 319.718 87.8174 319.718Z" fill="#1C2359"/>
<path d="M117.94 319.09C124.873 319.09 130.492 316.983 130.492 314.383C130.492 311.784 124.873 309.676 117.94 309.676C111.008 309.676 105.389 311.784 105.389 314.383C105.389 316.983 111.008 319.09 117.94 319.09Z" fill="#1C2359"/>
<path d="M99.1129 253.193C108.471 253.193 116.058 245.607 116.058 236.248C116.058 226.89 108.471 219.303 99.1129 219.303C89.7545 219.303 82.168 226.89 82.168 236.248C82.168 245.607 89.7545 253.193 99.1129 253.193Z" fill="white"/>
<path d="M99.1132 241.896C102.233 241.896 104.761 239.367 104.761 236.248C104.761 233.128 102.233 230.6 99.1132 230.6C95.9937 230.6 93.4648 233.128 93.4648 236.248C93.4648 239.367 95.9937 241.896 99.1132 241.896Z" fill="#1C2359"/>
<path d="M49.7642 202.692C45.7609 184.763 58.558 166.647 78.3473 162.228C98.1366 157.809 117.424 168.762 121.428 186.69C125.431 204.619 112.316 211.231 92.5266 215.65C72.7373 220.069 53.7675 220.621 49.7642 202.692Z" fill="#AA276D"/>
<path d="M64.4129 236.418C66.2547 232.535 57.7197 224.63 45.3495 218.763C32.9792 212.896 21.458 211.288 19.6162 215.172C17.7744 219.055 26.3093 226.959 38.6796 232.826C51.0498 238.693 62.571 240.301 64.4129 236.418Z" fill="#1C2359"/>
<path d="M73.5039 266.686C73.5039 271.539 85.9984 281.121 99.8627 281.121C113.727 281.121 126.726 267.459 126.726 262.607C126.726 257.754 113.727 263.548 99.8627 263.548C85.9984 263.548 73.5039 261.834 73.5039 266.686Z" fill="white"/>
<path d="M487.121 168.489C514.503 168.489 536.7 146.292 536.7 118.91C536.7 91.5277 514.503 69.3301 487.121 69.3301C459.739 69.3301 437.541 91.5277 437.541 118.91C437.541 146.292 459.739 168.489 487.121 168.489Z" fill="#1C2359"/>
<path d="M516.282 153.17L501.461 155.854L506.268 182.408L521.089 179.725L516.282 153.17Z" fill="#1C2359"/>
<path d="M486.642 158.543L471.82 161.226L476.627 187.78L491.449 185.097L486.642 158.543Z" fill="#1C2359"/>
<path d="M484.494 193.366C489.784 188.886 492.711 183.646 491.031 181.662C489.351 179.678 483.7 181.702 478.41 186.182C473.12 190.662 470.194 195.902 471.874 197.886C473.554 199.87 479.204 197.846 484.494 193.366Z" fill="#1C2359"/>
<path d="M513.52 188.111C518.81 183.631 521.736 178.391 520.056 176.408C518.376 174.424 512.726 176.448 507.436 180.928C502.146 185.408 499.219 190.648 500.899 192.631C502.579 194.615 508.23 192.592 513.52 188.111Z" fill="#1C2359"/>
<path d="M483.65 123.727C493.008 123.727 500.595 116.141 500.595 106.782C500.595 97.4239 493.008 89.8374 483.65 89.8374C474.292 89.8374 466.705 97.4239 466.705 106.782C466.705 116.141 474.292 123.727 483.65 123.727Z" fill="white"/>
<path d="M476.685 106.357C479.805 106.357 482.334 103.828 482.334 100.708C482.334 97.5889 479.805 95.0601 476.685 95.0601C473.566 95.0601 471.037 97.5889 471.037 100.708C471.037 103.828 473.566 106.357 476.685 106.357Z" fill="#1C2359"/>
<path d="M526.232 64.9724C526.977 46.6173 511.158 31.0704 490.898 30.2474C470.638 29.4244 453.61 43.637 452.864 61.9922C452.119 80.3474 466.202 84.5178 486.462 85.3408C506.722 86.1637 525.486 83.3276 526.232 64.9724Z" fill="#AA276D"/>
<path d="M465.503 115.416C466.463 111.227 456.423 105.351 443.078 102.292C429.733 99.2329 418.137 100.149 417.176 104.339C416.216 108.528 426.256 114.404 439.601 117.463C452.946 120.522 464.542 119.605 465.503 115.416Z" fill="#1C2359"/>
<path d="M562.827 131.601C563.787 127.411 553.747 121.535 540.402 118.476C527.057 115.417 515.461 116.334 514.5 120.523C513.54 124.713 523.58 130.589 536.925 133.647C550.27 136.706 561.867 135.79 562.827 131.601Z" fill="#1C2359"/>
<path d="M500.738 138.449C501.002 139.908 500.976 141.406 500.662 142.856C500.347 144.306 499.75 145.679 498.905 146.898C498.06 148.117 496.982 149.158 495.735 149.961C494.487 150.764 493.094 151.313 491.634 151.577C490.174 151.841 488.677 151.815 487.227 151.501C485.777 151.186 484.404 150.589 483.185 149.744C481.966 148.899 480.925 147.822 480.122 146.574C479.319 145.326 478.77 143.933 478.506 142.473C477.395 136.334 482.141 134.162 488.28 133.05C494.42 131.939 499.627 132.309 500.738 138.449Z" fill="white"/>
<path d="M366.097 61.634L365.332 62.6289L422.443 106.56L423.208 105.565L366.097 61.634Z" fill="#1C2359"/>
<path d="M338.727 85.3524C362.296 85.3524 381.403 66.2456 381.403 42.6762C381.403 19.1068 362.296 0 338.727 0C315.158 0 296.051 19.1068 296.051 42.6762C296.051 66.2456 315.158 85.3524 338.727 85.3524Z" fill="#AA276D"/>
<path d="M57.0693 456.077C61.8128 456.077 65.6581 452.232 65.6581 447.489C65.6581 442.745 61.8128 438.9 57.0693 438.9C52.3258 438.9 48.4805 442.745 48.4805 447.489C48.4805 452.232 52.3258 456.077 57.0693 456.077Z" fill="#AA276D"/>
<path d="M197.519 437.431H174.926V460.024H197.519V437.431Z" fill="#AA276D"/>
<path d="M175.056 461.098C179.799 461.098 183.644 457.253 183.644 452.509C183.644 447.766 179.799 443.92 175.056 443.92C170.312 443.92 166.467 447.766 166.467 452.509C166.467 457.253 170.312 461.098 175.056 461.098Z" fill="#AA276D"/>
</svg>
