<svg width="700" height="440" viewBox="0 0 700 440" fill="none" xmlns="http://www.w3.org/2000/svg">
<path d="M667.513 439.941H75.8675C70.6061 439.941 65.5601 437.851 61.8398 434.131C58.1194 430.411 56.0293 425.365 56.0293 420.103C270.501 395.178 480.941 395.178 687.351 420.103C687.351 425.365 685.261 430.411 681.541 434.131C677.82 437.851 672.774 439.941 667.513 439.941Z" fill="#CCCCCC"/>
<path d="M687.351 421.27L56.0293 420.103L129.197 296.99L129.547 296.406V25.0778C129.547 21.7845 130.196 18.5233 131.456 15.4806C132.716 12.4379 134.563 9.67326 136.892 7.34452C139.221 5.01577 141.985 3.16856 145.028 1.90838C148.071 0.6482 151.332 -0.00027511 154.625 8.75536e-08H585.254C588.548 -0.00027511 591.809 0.6482 594.852 1.90838C597.894 3.16856 600.659 5.01577 602.988 7.34452C605.316 9.67326 607.164 12.4379 608.424 15.4806C609.684 18.5233 610.332 21.7845 610.332 25.0778V298.273L687.351 421.27Z" fill="#E6E6E6"/>
<path d="M154.053 17.5044C151.888 17.5068 149.811 18.3682 148.28 19.8996C146.749 21.431 145.887 23.5073 145.885 25.6731V273.067C145.887 275.233 146.749 277.309 148.28 278.84C149.811 280.372 151.888 281.233 154.053 281.236H589.327C591.493 281.233 593.569 280.372 595.1 278.84C596.632 277.309 597.493 275.233 597.496 273.067V25.6731C597.493 23.5074 596.632 21.4311 595.1 19.8997C593.569 18.3684 591.493 17.5069 589.327 17.5044H154.053Z" fill="white"/>
<path d="M156.914 313.91C156.244 313.912 155.59 314.104 155.026 314.465C154.462 314.826 154.014 315.341 153.733 315.948L131.188 364.96C130.942 365.493 130.835 366.08 130.876 366.666C130.916 367.251 131.103 367.817 131.42 368.312C131.737 368.806 132.173 369.213 132.688 369.495C133.203 369.777 133.781 369.924 134.368 369.924H608.484C609.081 369.924 609.668 369.772 610.189 369.481C610.71 369.19 611.148 368.771 611.462 368.264C611.776 367.756 611.954 367.177 611.981 366.58C612.008 365.984 611.882 365.391 611.615 364.858L587.109 315.845C586.82 315.263 586.373 314.773 585.82 314.431C585.267 314.089 584.629 313.909 583.978 313.91L156.914 313.91Z" fill="#CCCCCC"/>
<path d="M369.941 13.4201C372.841 13.4201 375.192 11.069 375.192 8.16877C375.192 5.26856 372.841 2.91748 369.941 2.91748C367.041 2.91748 364.689 5.26856 364.689 8.16877C364.689 11.069 367.041 13.4201 369.941 13.4201Z" fill="white"/>
<path d="M323.338 379.26C322.568 379.261 321.82 379.515 321.209 379.983C320.598 380.451 320.159 381.107 319.958 381.85L314.302 402.855C314.162 403.374 314.144 403.918 314.248 404.445C314.352 404.972 314.577 405.469 314.903 405.895C315.23 406.322 315.651 406.667 316.133 406.905C316.615 407.143 317.145 407.267 317.682 407.267H425.233C425.791 407.267 426.341 407.133 426.837 406.877C427.333 406.622 427.761 406.251 428.084 405.796C428.408 405.342 428.618 404.816 428.698 404.264C428.777 403.711 428.723 403.148 428.54 402.62L421.269 381.615C421.031 380.928 420.584 380.331 419.991 379.909C419.399 379.487 418.689 379.26 417.961 379.26H323.338Z" fill="#CCCCCC"/>
<path d="M610.332 292.322V296.99H129.197L129.559 296.406V292.322H610.332Z" fill="#CCCCCC"/>
<path d="M550.946 303.014C550.759 303.015 550.577 303.077 550.428 303.191C550.279 303.305 550.172 303.464 550.123 303.645L548.746 308.76C548.712 308.887 548.708 309.019 548.733 309.147C548.758 309.276 548.813 309.397 548.893 309.501C548.972 309.604 549.075 309.689 549.192 309.746C549.309 309.804 549.438 309.835 549.569 309.835H575.759C575.895 309.835 576.029 309.802 576.15 309.74C576.271 309.677 576.375 309.587 576.454 309.476C576.533 309.366 576.584 309.238 576.603 309.103C576.622 308.969 576.609 308.832 576.565 308.703L574.794 303.588C574.736 303.421 574.627 303.275 574.483 303.173C574.339 303.07 574.166 303.014 573.989 303.014H550.946Z" fill="#CCCCCC"/>
<path d="M512.704 303.014C512.517 303.015 512.335 303.077 512.186 303.191C512.037 303.305 511.93 303.464 511.881 303.645L510.504 308.76C510.47 308.887 510.465 309.019 510.491 309.147C510.516 309.276 510.571 309.397 510.65 309.501C510.73 309.604 510.832 309.689 510.95 309.746C511.067 309.804 511.196 309.835 511.327 309.835H537.517C537.653 309.835 537.787 309.802 537.908 309.74C538.029 309.677 538.133 309.587 538.212 309.476C538.29 309.366 538.342 309.238 538.361 309.103C538.38 308.969 538.367 308.832 538.323 308.703L536.552 303.588C536.494 303.421 536.385 303.275 536.241 303.173C536.097 303.07 535.924 303.014 535.746 303.014H512.704Z" fill="#CCCCCC"/>
<path d="M401.912 335.516H403.965L399.859 61.1467H397.807L397.889 66.6204H351.883L351.965 61.1467H349.912L345.807 335.516H347.859L348.125 317.726H401.646L401.912 335.516ZM398.953 137.778H350.818L351.32 104.252H398.452L398.953 137.778ZM398.984 139.831L399.486 173.358H350.286L350.787 139.831H398.984ZM399.516 175.41L400.018 208.937H349.753L350.255 175.41H399.516ZM400.049 210.989L400.55 244.516H349.221L349.723 210.989H400.049ZM400.581 246.568L401.083 280.095H348.689L349.19 246.568H400.581ZM397.919 68.6731L398.421 102.199H351.35L351.852 68.6731H397.919ZM348.156 315.674L348.658 282.147H401.114L401.615 315.674H348.156Z" fill="#3F3D56"/>
<path d="M364.719 155.648C383.204 155.648 398.189 140.663 398.189 122.178C398.189 103.693 383.204 88.7073 364.719 88.7073C346.233 88.7073 331.248 103.693 331.248 122.178C331.248 140.663 346.233 155.648 364.719 155.648Z" fill="#1C2359"/>
<path d="M384.406 145.309L374.4 147.12L377.646 165.047L387.651 163.236L384.406 145.309Z" fill="#1C2359"/>
<path d="M364.394 148.931L354.389 150.743L357.634 168.67L367.64 166.858L364.394 148.931Z" fill="#1C2359"/>
<path d="M362.946 172.442C366.518 169.418 368.493 165.88 367.359 164.541C366.225 163.202 362.41 164.568 358.839 167.592C355.268 170.617 353.292 174.154 354.427 175.493C355.561 176.833 359.375 175.467 362.946 172.442Z" fill="#1C2359"/>
<path d="M382.54 168.895C386.111 165.871 388.087 162.333 386.953 160.994C385.819 159.655 382.004 161.021 378.433 164.045C374.862 167.07 372.886 170.607 374.02 171.946C375.155 173.286 378.969 171.919 382.54 168.895Z" fill="#1C2359"/>
<path d="M362.375 125.43C368.693 125.43 373.814 120.308 373.814 113.991C373.814 107.673 368.693 102.551 362.375 102.551C356.057 102.551 350.936 107.673 350.936 113.991C350.936 120.308 356.057 125.43 362.375 125.43Z" fill="white"/>
<path d="M357.672 113.703C359.778 113.703 361.486 111.996 361.486 109.89C361.486 107.784 359.778 106.077 357.672 106.077C355.567 106.077 353.859 107.784 353.859 109.89C353.859 111.996 355.567 113.703 357.672 113.703Z" fill="#3F3D56"/>
<path d="M391.123 85.7654C391.626 73.3741 380.947 62.8786 367.269 62.323C353.592 61.7675 342.097 71.3622 341.593 83.7535C341.09 96.1449 350.597 98.9602 364.275 99.5158C377.952 100.071 390.62 98.1567 391.123 85.7654Z" fill="#AA276D"/>
<path d="M350.124 119.819C350.773 116.991 343.995 113.024 334.986 110.959C325.977 108.894 318.148 109.513 317.5 112.341C316.852 115.169 323.629 119.136 332.638 121.201C341.647 123.266 349.476 122.647 350.124 119.819Z" fill="#1C2359"/>
<path d="M415.826 130.745C416.474 127.917 409.696 123.95 400.687 121.885C391.678 119.82 383.849 120.439 383.201 123.267C382.553 126.095 389.331 130.062 398.34 132.127C407.349 134.192 415.177 133.573 415.826 130.745Z" fill="#1C2359"/>
<path d="M373.911 135.368C374.091 136.354 374.076 137.365 373.865 138.345C373.654 139.325 373.252 140.253 372.682 141.077C372.112 141.902 371.386 142.605 370.544 143.149C369.702 143.692 368.761 144.064 367.775 144.243C366.789 144.423 365.778 144.406 364.798 144.195C363.819 143.983 362.891 143.58 362.067 143.01C361.243 142.439 360.54 141.712 359.998 140.869C359.455 140.027 359.084 139.086 358.905 138.1L358.902 138.085C358.152 133.941 361.357 132.474 365.501 131.724C369.646 130.974 373.161 131.224 373.911 135.368Z" fill="white"/>
<path d="M251.354 235.856C254.737 227.006 255.227 218.971 252.449 217.909C249.67 216.847 244.676 223.16 241.293 232.011C237.91 240.861 237.42 248.897 240.199 249.958C242.977 251.02 247.972 244.707 251.354 235.856Z" fill="#1C2359"/>
<path d="M248.478 265.34C251.514 246.635 238.811 229.011 220.106 225.975C201.401 222.94 183.778 235.643 180.742 254.347C177.707 273.052 190.409 290.676 209.114 293.712C227.819 296.747 245.443 284.044 248.478 265.34Z" fill="#1C2359"/>
<path d="M209.398 286.771H198.975V305.447H209.398V286.771Z" fill="#1C2359"/>
<path d="M230.246 286.771H219.822V305.447H230.246V286.771Z" fill="#1C2359"/>
<path d="M207.661 308.922C212.458 308.922 216.347 307.463 216.347 305.664C216.347 303.865 212.458 302.407 207.661 302.407C202.864 302.407 198.975 303.865 198.975 305.664C198.975 307.463 202.864 308.922 207.661 308.922Z" fill="#1C2359"/>
<path d="M228.509 308.487C233.306 308.487 237.195 307.029 237.195 305.23C237.195 303.431 233.306 301.972 228.509 301.972C223.711 301.972 219.822 303.431 219.822 305.23C219.822 307.029 223.711 308.487 228.509 308.487Z" fill="#1C2359"/>
<path d="M181.328 227.935C178.557 215.528 187.413 202.991 201.108 199.933C214.803 196.875 228.151 204.454 230.922 216.861C233.692 229.269 224.616 233.845 210.921 236.903C197.226 239.961 184.098 240.343 181.328 227.935Z" fill="#AA276D"/>
<path d="M191.465 251.275C192.74 248.587 186.833 243.117 178.273 239.057C169.712 234.997 161.739 233.884 160.464 236.571C159.19 239.259 165.096 244.729 173.657 248.789C182.217 252.849 190.191 253.962 191.465 251.275Z" fill="#1C2359"/>
<path d="M66.0455 328.896C84.995 328.896 100.357 313.535 100.357 294.585C100.357 275.636 84.995 260.274 66.0455 260.274C47.096 260.274 31.7344 275.636 31.7344 294.585C31.7344 313.535 47.096 328.896 66.0455 328.896Z" fill="#1C2359"/>
<path d="M60.8338 321.513H50.4102V340.188H60.8338V321.513Z" fill="#1C2359"/>
<path d="M81.6814 321.513H71.2578V340.188H81.6814V321.513Z" fill="#1C2359"/>
<path d="M59.0965 343.663C63.8939 343.663 67.7829 342.205 67.7829 340.406C67.7829 338.607 63.8939 337.148 59.0965 337.148C54.2992 337.148 50.4102 338.607 50.4102 340.406C50.4102 342.205 54.2992 343.663 59.0965 343.663Z" fill="#1C2359"/>
<path d="M79.9442 343.229C84.7415 343.229 88.6306 341.77 88.6306 339.971C88.6306 338.172 84.7415 336.714 79.9442 336.714C75.1468 336.714 71.2578 338.172 71.2578 339.971C71.2578 341.77 75.1468 343.229 79.9442 343.229Z" fill="#1C2359"/>
<path d="M66.9141 297.625C73.3905 297.625 78.6407 292.375 78.6407 285.899C78.6407 279.422 73.3905 274.172 66.9141 274.172C60.4377 274.172 55.1875 279.422 55.1875 285.899C55.1875 292.375 60.4377 297.625 66.9141 297.625Z" fill="white"/>
<path d="M66.9147 289.807C69.0735 289.807 70.8236 288.057 70.8236 285.899C70.8236 283.74 69.0735 281.99 66.9147 281.99C64.7559 281.99 63.0059 283.74 63.0059 285.899C63.0059 288.057 64.7559 289.807 66.9147 289.807Z" fill="#3F3D56"/>
<path d="M32.7631 262.677C29.9926 250.269 38.8487 237.732 52.5437 234.674C66.2387 231.616 79.5866 239.195 82.357 251.603C85.1275 264.01 76.0513 268.586 62.3563 271.644C48.6614 274.702 35.5336 275.084 32.7631 262.677Z" fill="#E6E6E6"/>
<path d="M91.0634 172.008C94.4462 163.157 94.9361 155.122 92.1577 154.06C89.3793 152.998 84.3847 159.312 81.002 168.162C77.6192 177.012 77.1293 185.048 79.9077 186.11C82.686 187.172 87.6806 180.858 91.0634 172.008Z" fill="#1C2359"/>
<path d="M88.1873 201.491C91.2227 182.786 78.5201 165.162 59.8152 162.127C41.1104 159.091 23.4865 171.794 20.4511 190.499C17.4157 209.203 30.1183 226.827 48.8232 229.863C67.528 232.898 85.1519 220.196 88.1873 201.491Z" fill="#1C2359"/>
<path d="M49.1072 222.922H38.6836V241.598H49.1072V222.922Z" fill="#1C2359"/>
<path d="M69.9549 222.922H59.5312V241.598H69.9549V222.922Z" fill="#1C2359"/>
<path d="M47.37 245.073C52.1673 245.073 56.0563 243.614 56.0563 241.815C56.0563 240.016 52.1673 238.558 47.37 238.558C42.5726 238.558 38.6836 240.016 38.6836 241.815C38.6836 243.614 42.5726 245.073 47.37 245.073Z" fill="#1C2359"/>
<path d="M68.2176 244.639C73.015 244.639 76.904 243.18 76.904 241.381C76.904 239.582 73.015 238.124 68.2176 238.124C63.4203 238.124 59.5312 239.582 59.5312 241.381C59.5312 243.18 63.4203 244.639 68.2176 244.639Z" fill="#1C2359"/>
<path d="M55.1875 199.035C61.6639 199.035 66.9141 193.785 66.9141 187.308C66.9141 180.832 61.6639 175.582 55.1875 175.582C48.7111 175.582 43.4609 180.832 43.4609 187.308C43.4609 193.785 48.7111 199.035 55.1875 199.035Z" fill="white"/>
<path d="M55.1882 191.217C57.347 191.217 59.097 189.467 59.097 187.309C59.097 185.15 57.347 183.4 55.1882 183.4C53.0294 183.4 51.2793 185.15 51.2793 187.309C51.2793 189.467 53.0294 191.217 55.1882 191.217Z" fill="#3F3D56"/>
<path d="M21.0365 164.087C18.2661 151.679 27.1222 139.142 40.8171 136.084C54.5121 133.026 67.86 140.605 70.6305 153.013C73.4009 165.42 64.3248 169.996 50.6298 173.054C36.9348 176.112 23.807 176.494 21.0365 164.087Z" fill="#AA276D"/>
<path d="M31.1742 187.426C32.4488 184.739 26.5423 179.269 17.9816 175.208C9.42089 171.148 1.44777 170.035 0.173143 172.723C-1.10148 175.41 4.80507 180.88 13.3658 184.941C21.9265 189.001 29.8996 190.114 31.1742 187.426Z" fill="#1C2359"/>
<path d="M37.4648 208.373C37.4648 211.731 46.1115 218.362 55.7062 218.362C65.3009 218.362 74.297 208.908 74.297 205.55C74.297 202.192 65.3008 206.201 55.7062 206.201C46.1115 206.201 37.4648 205.015 37.4648 208.373Z" fill="white"/>
<path d="M88.0522 64.9846C87.4185 64.9853 86.811 65.2374 86.3629 65.6854C85.9148 66.1335 85.6628 66.741 85.6621 67.3747V166.164C85.6628 166.797 85.9148 167.405 86.3629 167.853C86.811 168.301 87.4185 168.553 88.0522 168.554H316.701C317.335 168.553 317.942 168.301 318.39 167.853C318.838 167.405 319.09 166.797 319.091 166.164V67.3747C319.09 66.741 318.838 66.1335 318.39 65.6854C317.942 65.2374 317.335 64.9853 316.701 64.9846H88.0522Z" fill="#AA276D"/>
<path d="M149.792 139.97C162.605 139.97 172.993 129.582 172.993 116.769C172.993 103.956 162.605 93.5688 149.792 93.5688C136.979 93.5688 126.592 103.956 126.592 116.769C126.592 129.582 136.979 139.97 149.792 139.97Z" fill="white"/>
<path d="M202.155 113.682C201.443 113.694 200.764 113.985 200.265 114.492C199.766 115 199.486 115.683 199.486 116.395C199.486 117.107 199.766 117.79 200.265 118.297C200.764 118.805 201.443 119.096 202.155 119.107H275.406C275.763 119.114 276.117 119.049 276.449 118.919C276.78 118.788 277.083 118.593 277.339 118.345C277.595 118.097 277.8 117.802 277.942 117.475C278.084 117.148 278.16 116.796 278.166 116.439C278.172 116.083 278.107 115.729 277.976 115.397C277.845 115.066 277.65 114.764 277.402 114.508C277.154 114.251 276.858 114.047 276.531 113.905C276.204 113.764 275.852 113.688 275.496 113.682C275.466 113.682 275.436 113.682 275.406 113.682H202.155Z" fill="white"/>
<path d="M202.155 97.966C201.443 97.9777 200.764 98.2686 200.265 98.776C199.766 99.2835 199.486 99.9668 199.486 100.679C199.486 101.39 199.766 102.074 200.265 102.581C200.764 103.088 201.443 103.379 202.155 103.391H238.735C239.091 103.397 239.445 103.333 239.777 103.202C240.109 103.072 240.411 102.877 240.668 102.629C240.924 102.381 241.129 102.085 241.271 101.758C241.412 101.431 241.488 101.08 241.494 100.723C241.5 100.367 241.436 100.013 241.305 99.6811C241.174 99.3496 240.979 99.0472 240.731 98.7912C240.483 98.5351 240.187 98.3305 239.859 98.1889C239.532 98.0473 239.18 97.9715 238.824 97.966C238.794 97.9655 238.765 97.9655 238.735 97.966H202.155Z" fill="white"/>
<path d="M202.155 130.147C201.443 130.159 200.764 130.45 200.265 130.957C199.766 131.465 199.486 132.148 199.486 132.86C199.486 133.572 199.766 134.255 200.265 134.762C200.764 135.27 201.443 135.561 202.155 135.572H275.406C275.763 135.578 276.117 135.514 276.449 135.383C276.78 135.253 277.083 135.058 277.339 134.81C277.595 134.562 277.8 134.266 277.942 133.939C278.084 133.612 278.16 133.261 278.166 132.904C278.172 132.548 278.107 132.194 277.976 131.862C277.845 131.531 277.65 131.228 277.402 130.972C277.154 130.716 276.858 130.512 276.531 130.37C276.204 130.228 275.852 130.153 275.496 130.147C275.466 130.147 275.436 130.147 275.406 130.147H202.155Z" fill="white"/>
<path d="M557.912 312.878C560.69 311.816 560.2 303.781 556.817 294.93C553.435 286.08 548.44 279.766 545.662 280.828C542.883 281.89 543.373 289.926 546.756 298.776C550.139 307.626 555.133 313.94 557.912 312.878Z" fill="#1C2359"/>
<path d="M581.827 363.801C600.532 360.766 613.234 343.142 610.199 324.437C607.164 305.732 589.54 293.03 570.835 296.065C552.13 299.1 539.427 316.724 542.463 335.429C545.498 354.134 563.122 366.837 581.827 363.801Z" fill="#1C2359"/>
<path d="M591.966 356.861H581.543L583.582 379.226L591.984 376.944L591.966 356.861Z" fill="#1C2359"/>
<path d="M569.242 356.919H558.818L560.858 379.285L568.88 376.944L569.242 356.919Z" fill="#1C2359"/>
<path d="M560.56 380.335C565.345 379.985 569.117 378.247 568.986 376.453C568.855 374.659 564.87 373.488 560.085 373.838C555.301 374.188 551.528 375.926 551.659 377.72C551.791 379.514 555.776 380.685 560.56 380.335Z" fill="#1C2359"/>
<path d="M575.461 332.973C581.937 332.973 587.188 327.723 587.188 321.247C587.188 314.77 581.937 309.52 575.461 309.52C568.985 309.52 563.734 314.77 563.734 321.247C563.734 327.723 568.985 332.973 575.461 332.973Z" fill="white"/>
<path d="M575.462 325.156C577.62 325.156 579.37 323.406 579.37 321.247C579.37 319.088 577.62 317.338 575.462 317.338C573.303 317.338 571.553 319.088 571.553 321.247C571.553 323.406 573.303 325.156 575.462 325.156Z" fill="#3F3D56"/>
<path d="M616.917 309.245C622.546 301.624 625.17 294.013 622.778 292.246C620.385 290.479 613.882 295.225 608.253 302.846C602.624 310.467 600 318.078 602.393 319.845C604.785 321.612 611.288 316.867 616.917 309.245Z" fill="#1C2359"/>
<path d="M559.59 347.625C559.59 344.857 566.716 339.392 574.624 339.392C582.532 339.392 589.946 347.184 589.946 349.951C589.946 352.719 582.532 349.414 574.624 349.414C566.716 349.414 559.59 350.392 559.59 347.625Z" fill="white"/>
<path d="M672.543 301.579L484.728 275.542C483.264 275.337 481.941 274.56 481.049 273.381C480.157 272.202 479.769 270.717 479.97 269.252L501.084 116.949C501.288 115.484 502.066 114.161 503.245 113.269C504.424 112.377 505.909 111.989 507.373 112.19L695.188 138.227C696.653 138.432 697.976 139.209 698.868 140.388C699.76 141.567 700.148 143.052 699.947 144.517L678.833 296.821C678.628 298.285 677.851 299.608 676.672 300.5C675.493 301.392 674.008 301.78 672.543 301.579V301.579Z" fill="#AA276D"/>
<path d="M605.261 254.047L509.376 240.754C509.256 240.739 509.137 240.713 509.021 240.676L565.26 168.412C565.605 167.961 566.063 167.61 566.587 167.394C567.112 167.178 567.685 167.106 568.247 167.183C568.809 167.261 569.34 167.487 569.787 167.838C570.233 168.188 570.578 168.651 570.787 169.178L593.914 226.111L595.023 228.836L605.261 254.047Z" fill="white"/>
<path opacity="0.2" d="M605.259 254.046L572.521 249.508L591.828 228.393L593.219 226.872L593.913 226.111L595.022 228.836L605.259 254.046Z" fill="black"/>
<path d="M658.647 261.448L575.715 249.951L595.022 228.836L596.411 227.314L621.57 199.797C622.005 199.383 622.521 199.066 623.087 198.865C623.652 198.665 624.253 198.585 624.851 198.632C625.449 198.679 626.031 198.851 626.558 199.137C627.086 199.423 627.547 199.817 627.912 200.293C628.004 200.427 628.087 200.566 628.161 200.711L658.647 261.448Z" fill="white"/>
<path d="M606.426 192.944C614.346 192.944 620.767 186.524 620.767 178.604C620.767 170.684 614.346 164.263 606.426 164.263C598.506 164.263 592.086 170.684 592.086 178.604C592.086 186.524 598.506 192.944 606.426 192.944Z" fill="white"/>
<path d="M527.939 126.305L510.578 123.898L508.171 141.259L525.532 143.666L527.939 126.305Z" fill="#3F3D56"/>
<path d="M609.614 298.024C612.384 285.617 603.528 273.08 589.833 270.022C576.138 266.964 562.79 274.543 560.02 286.951C557.249 299.358 566.325 303.934 580.02 306.992C593.715 310.05 606.843 310.432 609.614 298.024Z" fill="#F2F2F2"/>
<path d="M583.42 380.28C588.204 379.93 591.976 378.192 591.845 376.398C591.714 374.604 587.729 373.433 582.944 373.783C578.16 374.132 574.388 375.871 574.519 377.665C574.65 379.459 578.635 380.63 583.42 380.28Z" fill="#1C2359"/>
</svg>
