<svg width="600" height="562" viewBox="0 0 600 562" fill="none" xmlns="http://www.w3.org/2000/svg">
<path d="M217.7 212.334C217.019 212.335 216.366 212.606 215.884 213.088C215.402 213.569 215.132 214.222 215.131 214.903V321.086C215.132 321.767 215.402 322.42 215.884 322.901C216.366 323.383 217.019 323.654 217.7 323.654H323.882C324.563 323.654 325.216 323.383 325.698 322.901C326.179 322.42 326.45 321.767 326.451 321.086V214.903C326.45 214.222 326.179 213.569 325.698 213.088C325.216 212.606 324.563 212.335 323.882 212.334H217.7Z" fill="#E6E6E6"/>
<path d="M236.806 340.746C236.815 346.401 235.516 351.981 233.012 357.051C232.729 357.633 232.43 358.198 232.113 358.763H167.744C167.427 358.198 167.128 357.633 166.845 357.051C164.388 352.068 163.088 346.594 163.042 341.038C162.997 335.483 164.207 329.989 166.583 324.966C168.958 319.944 172.438 315.523 176.762 312.034C181.085 308.545 186.141 306.078 191.552 304.817C196.963 303.556 202.589 303.534 208.01 304.752C213.43 305.97 218.506 308.397 222.857 311.852C227.208 315.306 230.723 319.699 233.138 324.703C235.553 329.706 236.807 335.191 236.806 340.746V340.746Z" fill="#1C2359"/>
<path d="M200.862 344.01C207.823 344.01 213.466 338.367 213.466 331.406C213.466 324.445 207.823 318.802 200.862 318.802C193.901 318.802 188.258 324.445 188.258 331.406C188.258 338.367 193.901 344.01 200.862 344.01Z" fill="white"/>
<path d="M200.862 335.607C203.182 335.607 205.063 333.726 205.063 331.406C205.063 329.086 203.182 327.205 200.862 327.205C198.541 327.205 196.66 329.086 196.66 331.406C196.66 333.726 198.541 335.607 200.862 335.607Z" fill="#1C2359"/>
<path d="M164.155 306.446C161.177 293.11 170.696 279.634 185.416 276.348C200.135 273.061 214.482 281.207 217.46 294.543C220.438 307.879 210.682 312.798 195.963 316.084C181.243 319.371 167.132 319.782 164.155 306.446Z" fill="#AA276D"/>
<path d="M252.809 244.018H146.627C145.492 244.018 144.403 244.469 143.6 245.272C142.797 246.075 142.346 247.164 142.346 248.299V354.481C142.346 355.617 142.797 356.705 143.6 357.508C144.403 358.311 145.492 358.762 146.627 358.763H252.809C253.945 358.762 255.034 358.311 255.836 357.508C256.639 356.705 257.091 355.617 257.091 354.481V248.299C257.091 247.164 256.639 246.075 255.836 245.272C255.034 244.469 253.945 244.018 252.809 244.018V244.018ZM255.378 354.481C255.376 355.162 255.105 355.814 254.624 356.296C254.142 356.777 253.49 357.048 252.809 357.05H146.627C145.947 357.048 145.294 356.777 144.813 356.296C144.332 355.814 144.06 355.162 144.058 354.481V248.299C144.06 247.618 144.332 246.966 144.813 246.485C145.294 246.003 145.947 245.732 146.627 245.73H252.809C253.49 245.732 254.142 246.003 254.624 246.485C255.105 246.966 255.376 247.618 255.378 248.299V354.481Z" fill="#1C2359"/>
<path d="M186.873 561.142C219.978 561.142 246.815 559.095 246.815 556.57C246.815 554.045 219.978 551.998 186.873 551.998C153.768 551.998 126.932 554.045 126.932 556.57C126.932 559.095 153.768 561.142 186.873 561.142Z" fill="#E6E6E6"/>
<path d="M273.625 455.279H72.531C68.6109 455.279 65.434 453.016 65.4297 450.227V406.52C65.434 403.731 68.6109 401.467 72.531 401.467H273.625C277.545 401.467 280.722 403.731 280.726 406.52V450.226C280.723 453.015 277.545 455.276 273.625 455.279Z" fill="#E6E6E6"/>
<path d="M212.963 479.357H11.8689C7.94876 479.357 4.77186 477.094 4.76758 474.305V430.597C4.77186 427.808 7.94876 425.545 11.8689 425.545H212.963C216.883 425.545 220.06 427.808 220.064 430.597V474.304C220.06 477.093 216.883 479.354 212.963 479.357ZM11.8689 427.564C9.51666 427.564 7.61053 428.922 7.60796 430.595V474.302C7.60796 475.975 9.51666 477.332 11.8689 477.334H212.963C215.315 477.334 217.221 475.975 217.223 474.302V430.597C217.223 428.924 215.315 427.568 212.963 427.566L11.8689 427.564Z" fill="#1C2359"/>
<path d="M41.3011 468.37C50.2867 468.37 57.5709 461.086 57.5709 452.1C57.5709 443.115 50.2867 435.831 41.3011 435.831C32.3155 435.831 25.0312 443.115 25.0312 452.1C25.0312 461.086 32.3155 468.37 41.3011 468.37Z" fill="#AA276D"/>
<path d="M76.4432 440.434C75.629 440.447 74.8527 440.78 74.2816 441.361C73.7106 441.941 73.3906 442.723 73.3906 443.537C73.3906 444.352 73.7106 445.133 74.2816 445.714C74.8527 446.294 75.629 446.627 76.4432 446.641H192.797C193.618 446.652 194.411 446.337 195.001 445.765C195.591 445.193 195.93 444.41 195.943 443.588C195.957 442.766 195.644 441.973 195.073 441.381C194.502 440.79 193.72 440.449 192.898 440.434C192.864 440.433 192.831 440.433 192.797 440.434H76.4432Z" fill="#1C2359"/>
<path d="M76.4432 457.56C75.629 457.574 74.8527 457.906 74.2816 458.487C73.7106 459.068 73.3906 459.849 73.3906 460.664C73.3906 461.478 73.7106 462.26 74.2816 462.84C74.8527 463.421 75.629 463.754 76.4432 463.767H192.797C193.205 463.775 193.611 463.702 193.991 463.553C194.371 463.404 194.717 463.181 195.011 462.897C195.305 462.614 195.54 462.275 195.703 461.9C195.865 461.526 195.952 461.123 195.959 460.715C195.966 460.307 195.892 459.901 195.742 459.521C195.591 459.142 195.368 458.795 195.083 458.502C194.799 458.209 194.46 457.975 194.085 457.814C193.71 457.652 193.307 457.566 192.898 457.56C192.864 457.559 192.83 457.559 192.797 457.56H76.4432Z" fill="#1C2359"/>
<path d="M220.361 478.494C223.997 468.981 224.523 460.344 221.537 459.203C218.551 458.061 213.182 464.848 209.546 474.36C205.91 483.873 205.384 492.51 208.37 493.651C211.356 494.793 216.725 488.006 220.361 478.494Z" fill="#1C2359"/>
<path d="M217.267 510.183C220.53 490.078 206.877 471.135 186.772 467.873C166.667 464.61 147.725 478.264 144.462 498.368C141.199 518.473 154.853 537.416 174.957 540.678C195.062 543.941 214.005 530.288 217.267 510.183Z" fill="#1C2359"/>
<path d="M175.264 533.219H164.061V553.292H175.264V533.219Z" fill="#1C2359"/>
<path d="M197.671 533.219H186.467V553.292H197.671V533.219Z" fill="#1C2359"/>
<path d="M173.397 557.027C178.553 557.027 182.733 555.459 182.733 553.526C182.733 551.592 178.553 550.024 173.397 550.024C168.241 550.024 164.061 551.592 164.061 553.526C164.061 555.459 168.241 557.027 173.397 557.027Z" fill="#1C2359"/>
<path d="M195.803 556.56C200.96 556.56 205.14 554.992 205.14 553.059C205.14 551.125 200.96 549.558 195.803 549.558C190.647 549.558 186.467 551.125 186.467 553.059C186.467 554.992 190.647 556.56 195.803 556.56Z" fill="#1C2359"/>
<path d="M145.092 469.979C142.114 456.644 151.633 443.168 166.353 439.881C181.073 436.594 195.42 444.741 198.398 458.077C201.375 471.413 191.62 476.331 176.9 479.618C162.18 482.905 148.07 483.315 145.092 469.979Z" fill="#AA276D"/>
<path d="M155.987 495.066C157.357 492.177 151.009 486.298 141.807 481.934C132.606 477.569 124.036 476.373 122.666 479.262C121.296 482.151 127.645 488.03 136.846 492.394C146.048 496.758 154.617 497.954 155.987 495.066Z" fill="#1C2359"/>
<path d="M534.533 364.191C567.638 364.191 594.475 362.144 594.475 359.619C594.475 357.094 567.638 355.047 534.533 355.047C501.429 355.047 474.592 357.094 474.592 359.619C474.592 362.144 501.429 364.191 534.533 364.191Z" fill="#E6E6E6"/>
<path d="M465.437 152.147H264.344C260.423 152.147 257.246 149.883 257.242 147.094V103.387C257.246 100.598 260.423 98.3345 264.344 98.3345H465.437C469.357 98.3345 472.534 100.598 472.538 103.387V147.093C472.535 149.882 469.357 152.143 465.437 152.147Z" fill="#E6E6E6"/>
<path d="M341.008 162.669C349.994 162.669 357.278 155.384 357.278 146.399C357.278 137.413 349.994 130.129 341.008 130.129C332.023 130.129 324.738 137.413 324.738 146.399C324.738 155.384 332.023 162.669 341.008 162.669Z" fill="#AA276D"/>
<path d="M376.152 134.732C375.338 134.745 374.562 135.078 373.991 135.659C373.42 136.24 373.1 137.021 373.1 137.836C373.1 138.65 373.42 139.432 373.991 140.012C374.562 140.593 375.338 140.926 376.152 140.939H492.506C493.327 140.951 494.12 140.636 494.71 140.063C495.3 139.491 495.639 138.708 495.652 137.886C495.666 137.065 495.353 136.271 494.782 135.68C494.211 135.088 493.429 134.747 492.607 134.732C492.573 134.731 492.54 134.731 492.506 134.732H376.152Z" fill="#1C2359"/>
<path d="M376.152 151.858C375.338 151.871 374.562 152.204 373.991 152.785C373.42 153.365 373.1 154.147 373.1 154.962C373.1 155.776 373.42 156.558 373.991 157.138C374.562 157.719 375.338 158.052 376.152 158.065H492.506C493.327 158.077 494.12 157.762 494.71 157.189C495.3 156.617 495.639 155.834 495.652 155.012C495.666 154.191 495.353 153.397 494.782 152.806C494.211 152.214 493.429 151.873 492.607 151.858C492.573 151.857 492.54 151.857 492.506 151.858H376.152Z" fill="#1C2359"/>
<path d="M536.225 344.204C556.592 344.204 573.103 327.693 573.103 307.325C573.103 286.958 556.592 270.446 536.225 270.446C515.857 270.446 499.346 286.958 499.346 307.325C499.346 327.693 515.857 344.204 536.225 344.204Z" fill="#1C2359"/>
<path d="M553.03 336.268H541.826V356.341H553.03V336.268Z" fill="#1C2359"/>
<path d="M530.622 336.268H519.418V356.341H530.622V336.268Z" fill="#1C2359"/>
<path d="M543.694 360.076C548.85 360.076 553.03 358.509 553.03 356.575C553.03 354.641 548.85 353.074 543.694 353.074C538.537 353.074 534.357 354.641 534.357 356.575C534.357 358.509 538.537 360.076 543.694 360.076Z" fill="#1C2359"/>
<path d="M521.286 359.609C526.442 359.609 530.622 358.041 530.622 356.108C530.622 354.174 526.442 352.606 521.286 352.606C516.129 352.606 511.949 354.174 511.949 356.108C511.949 358.041 516.129 359.609 521.286 359.609Z" fill="#1C2359"/>
<path d="M535.29 310.593C542.251 310.593 547.894 304.95 547.894 297.988C547.894 291.027 542.251 285.384 535.29 285.384C528.329 285.384 522.686 291.027 522.686 297.988C522.686 304.95 528.329 310.593 535.29 310.593Z" fill="white"/>
<path d="M535.291 302.19C537.612 302.19 539.493 300.309 539.493 297.989C539.493 295.668 537.612 293.787 535.291 293.787C532.971 293.787 531.09 295.668 531.09 297.989C531.09 300.309 532.971 302.19 535.291 302.19Z" fill="#1C2359"/>
<path d="M571.997 273.029C574.975 259.693 565.456 246.217 550.736 242.931C536.016 239.644 521.669 247.79 518.692 261.126C515.714 274.462 525.469 279.381 540.189 282.667C554.909 285.954 569.019 286.365 571.997 273.029Z" fill="#E6E6E6"/>
<path d="M547.352 230.878C567.221 230.878 583.328 214.771 583.328 194.902C583.328 175.034 567.221 158.927 547.352 158.927C527.484 158.927 511.377 175.034 511.377 194.902C511.377 214.771 527.484 230.878 547.352 230.878Z" fill="#1C2359"/>
<path d="M563.876 223.06L552.947 223.11L553.038 242.692L563.967 242.641L563.876 223.06Z" fill="#1C2359"/>
<path d="M542.019 223.161L531.09 223.212L531.181 242.793L542.11 242.742L542.019 223.161Z" fill="#1C2359"/>
<path d="M536.098 247.777C540.443 245.242 543.194 241.866 542.243 240.237C541.292 238.608 537 239.343 532.655 241.878C528.311 244.413 525.56 247.789 526.51 249.418C527.461 251.047 531.754 250.313 536.098 247.777Z" fill="#1C2359"/>
<path d="M557.503 247.678C561.847 245.143 564.598 241.767 563.647 240.138C562.697 238.508 558.404 239.243 554.06 241.778C549.715 244.313 546.964 247.689 547.915 249.319C548.866 250.948 553.158 250.213 557.503 247.678Z" fill="#1C2359"/>
<path d="M546.399 198.094C553.189 198.094 558.694 192.589 558.694 185.799C558.694 179.008 553.189 173.503 546.399 173.503C539.608 173.503 534.104 179.008 534.104 185.799C534.104 192.589 539.608 198.094 546.399 198.094Z" fill="white"/>
<path d="M542.186 184.68C544.45 184.68 546.285 182.845 546.285 180.581C546.285 178.318 544.45 176.483 542.186 176.483C539.923 176.483 538.088 178.318 538.088 180.581C538.088 182.845 539.923 184.68 542.186 184.68Z" fill="#1C2359"/>
<path d="M582.094 161.284C584.938 148.262 575.592 135.159 561.218 132.02C546.844 128.88 532.886 136.892 530.041 149.915C527.197 162.938 536.735 167.691 551.109 170.831C565.484 173.97 579.25 174.307 582.094 161.284Z" fill="#AA276D"/>
<path d="M526.348 183.69C527.562 180.817 521.128 175.354 511.977 171.488C502.826 167.621 494.423 166.816 493.209 169.688C491.996 172.561 498.43 178.025 507.581 181.891C516.732 185.757 525.135 186.563 526.348 183.69Z" fill="#1C2359"/>
<path d="M599.852 213.505C601.066 210.632 594.632 205.169 585.481 201.303C576.33 197.436 567.927 196.631 566.713 199.503C565.5 202.376 571.934 207.839 581.085 211.706C590.236 215.572 598.638 216.378 599.852 213.505Z" fill="#1C2359"/>
<path d="M554.622 210.579C554.631 211.656 554.428 212.725 554.023 213.723C553.619 214.721 553.022 215.63 552.266 216.398C551.511 217.165 550.611 217.776 549.619 218.196C548.627 218.616 547.562 218.836 546.485 218.843C545.408 218.851 544.34 218.647 543.342 218.241C542.344 217.836 541.435 217.238 540.669 216.482C539.902 215.725 539.292 214.825 538.873 213.833C538.454 212.84 538.236 211.775 538.229 210.698L538.229 210.671L538.229 210.655C538.208 206.128 541.873 205.174 546.4 205.153C550.927 205.132 554.601 206.052 554.622 210.579Z" fill="white"/>
<path d="M517.754 173.514H316.66C312.74 173.514 309.563 171.251 309.559 168.462V124.754C309.563 121.965 312.74 119.702 316.66 119.702H517.754C521.674 119.702 524.851 121.965 524.855 124.754V168.461C524.851 171.25 521.674 173.51 517.754 173.514ZM316.66 121.721C314.308 121.721 312.401 123.079 312.399 124.752V168.459C312.399 170.132 314.308 171.489 316.66 171.49H517.754C520.106 171.49 522.012 170.132 522.015 168.459V124.754C522.015 123.081 520.106 121.724 517.754 121.723L316.66 121.721Z" fill="#1C2359"/>
<path d="M586.842 31.2999H0.850558C0.623274 31.2949 0.406975 31.2011 0.247997 31.0386C0.0890187 30.8761 0 30.6578 0 30.4305C0 30.2031 0.0890187 29.9848 0.247997 29.8223C0.406975 29.6598 0.623274 29.566 0.850558 29.561H586.842C587.069 29.566 587.285 29.6598 587.444 29.8223C587.603 29.9848 587.692 30.2031 587.692 30.4305C587.692 30.6578 587.603 30.8761 587.444 31.0386C587.285 31.2011 587.069 31.2949 586.842 31.2999Z" fill="#CACACA"/>
<path d="M19.9941 19.1279C25.161 19.1279 29.3496 14.846 29.3496 9.56394C29.3496 4.28192 25.161 0 19.9941 0C14.8273 0 10.6387 4.28192 10.6387 9.56394C10.6387 14.846 14.8273 19.1279 19.9941 19.1279Z" fill="#1C2359"/>
<path d="M52.3125 19.1279C57.4794 19.1279 61.6679 14.846 61.6679 9.56394C61.6679 4.28192 57.4794 0 52.3125 0C47.1456 0 42.957 4.28192 42.957 9.56394C42.957 14.846 47.1456 19.1279 52.3125 19.1279Z" fill="#1C2359"/>
<path d="M84.6308 19.1279C89.7977 19.1279 93.9863 14.846 93.9863 9.56394C93.9863 4.28192 89.7977 0 84.6308 0C79.464 0 75.2754 4.28192 75.2754 9.56394C75.2754 14.846 79.464 19.1279 84.6308 19.1279Z" fill="#1C2359"/>
<path d="M567.477 5.84986H544.514C544.059 5.83987 543.626 5.65228 543.308 5.32726C542.991 5.00225 542.813 4.56565 542.812 4.11097C542.813 3.65629 542.991 3.21969 543.308 2.89467C543.626 2.56965 544.059 2.38206 544.514 2.37207H567.477C567.931 2.38206 568.364 2.56965 568.682 2.89467C569 3.21969 569.178 3.65629 569.178 4.11097C569.178 4.56565 569 5.00225 568.682 5.32726C568.364 5.65228 567.931 5.83987 567.477 5.84986Z" fill="#1C2359"/>
<path d="M567.477 12.3708H544.514C544.059 12.3609 543.626 12.1733 543.308 11.8483C542.991 11.5232 542.812 11.0866 542.812 10.632C542.812 10.1773 542.991 9.74068 543.308 9.41566C543.626 9.09064 544.059 8.90305 544.514 8.89307H567.477C567.931 8.90305 568.364 9.09064 568.682 9.41566C569 9.74068 569.178 10.1773 569.178 10.632C569.178 11.0866 569 11.5232 568.682 11.8483C568.364 12.1733 567.931 12.3609 567.477 12.3708V12.3708Z" fill="#1C2359"/>
<path d="M567.477 18.8919H544.514C544.059 18.8819 543.626 18.6943 543.308 18.3693C542.991 18.0442 542.812 17.6076 542.812 17.153C542.812 16.6983 542.991 16.2617 543.308 15.9367C543.626 15.6116 544.059 15.424 544.514 15.4141H567.477C567.931 15.424 568.364 15.6116 568.682 15.9367C569 16.2617 569.178 16.6983 569.178 17.153C569.178 17.6076 569 18.0442 568.682 18.3693C568.364 18.6943 567.931 18.8819 567.477 18.8919V18.8919Z" fill="#1C2359"/>
</svg>
