<svg width="550" height="377" viewBox="0 0 550 377" fill="none" xmlns="http://www.w3.org/2000/svg">
<path d="M429.877 330.046C452.869 312.534 463.85 283.106 456.975 255.034C456.804 254.337 456.624 253.641 456.434 252.946C451.877 236.283 440.6 220.446 424.166 215.122C410.367 210.651 395.304 214.089 380.908 212.311C352.648 208.821 330.739 185.955 315.323 162.015C299.906 138.074 288.059 111.276 267.574 91.4971C233.808 58.8955 178.728 51.8763 136.863 73.0975C94.9986 94.3188 68.3313 141.4 69.4686 188.322C70.6059 235.244 98.4616 280.105 138.915 303.907C153.776 312.651 170.964 318.845 188.069 316.677C202.912 314.797 216.398 306.821 231.17 304.454C254.396 300.731 277.474 311.232 297.562 323.469C317.651 335.706 337.055 350.211 359.882 355.884C382.048 361.392 409.509 345.559 429.877 330.046Z" fill="#F2F2F2"/>
<path d="M247.954 120.496H18.9009C14.1239 120.501 9.54417 122.401 6.16633 125.779C2.78849 129.157 0.888367 133.737 0.882812 138.514V252.513C0.888364 257.29 2.78849 261.87 6.16633 265.248C9.54417 268.625 14.1239 270.526 18.9009 270.531H247.954C252.731 270.527 257.312 268.627 260.69 265.249C264.068 261.871 265.968 257.29 265.972 252.513V138.514C265.968 133.736 264.068 129.156 260.69 125.777C257.312 122.399 252.731 120.5 247.954 120.496V120.496Z" fill="white"/>
<path d="M247.954 271.419H18.9042C13.8922 271.413 9.08718 269.42 5.54318 265.876C1.99918 262.332 0.00567161 257.527 0 252.515V138.512C0.00566926 133.5 1.99918 128.695 5.54318 125.151C9.08718 121.607 13.8922 119.614 18.9042 119.608H247.954C252.966 119.614 257.771 121.607 261.315 125.151C264.859 128.695 266.852 133.5 266.858 138.512V252.515C266.852 257.527 264.859 262.332 261.315 265.876C257.771 269.42 252.966 271.413 247.954 271.419V271.419ZM18.9042 121.38C14.362 121.385 10.0073 123.192 6.79544 126.403C3.5836 129.615 1.77689 133.97 1.77169 138.512V252.515C1.77689 257.057 3.5836 261.412 6.79544 264.624C10.0073 267.835 14.362 269.642 18.9042 269.647H247.954C252.496 269.642 256.851 267.835 260.063 264.624C263.274 261.412 265.081 257.057 265.086 252.515V138.512C265.081 133.97 263.274 129.615 260.063 126.403C256.851 123.192 252.496 121.385 247.954 121.38H18.9042Z" fill="#1C2359"/>
<path d="M261.148 295.848H41.646C39.7487 295.848 37.9291 295.094 36.5875 293.752C35.2459 292.411 34.4922 290.591 34.4922 288.694C34.4922 286.797 35.2459 284.977 36.5875 283.635C37.9291 282.294 39.7487 281.54 41.646 281.54H261.148C263.045 281.54 264.865 282.294 266.207 283.635C267.548 284.977 268.302 286.797 268.302 288.694C268.302 290.591 267.548 292.411 266.207 293.752C264.865 295.094 263.045 295.848 261.148 295.848Z" fill="#AA276D"/>
<path d="M463.786 202.997H368.069C366.072 202.995 364.159 202.201 362.747 200.789C361.335 199.378 360.541 197.464 360.539 195.468V147.827C360.541 145.831 361.335 143.917 362.747 142.505C364.159 141.094 366.072 140.3 368.069 140.297H463.786C465.783 140.3 467.696 141.094 469.108 142.505C470.52 143.917 471.314 145.831 471.316 147.827V195.468C471.314 197.464 470.52 199.378 469.108 200.789C467.696 202.201 465.783 202.995 463.786 202.997V202.997Z" fill="white"/>
<path d="M463.785 203.883H368.068C365.837 203.88 363.698 202.993 362.12 201.415C360.542 199.837 359.655 197.698 359.652 195.467V147.827C359.655 145.595 360.542 143.456 362.12 141.879C363.698 140.301 365.837 139.414 368.068 139.411H463.785C466.017 139.414 468.156 140.301 469.733 141.879C471.311 143.456 472.198 145.595 472.201 147.827V195.467C472.198 197.698 471.311 199.837 469.733 201.415C468.156 202.993 466.017 203.88 463.785 203.883ZM368.068 141.183C366.306 141.185 364.618 141.885 363.372 143.131C362.127 144.376 361.426 146.065 361.424 147.827V195.467C361.426 197.229 362.127 198.917 363.372 200.163C364.618 201.409 366.306 202.109 368.068 202.111H463.785C465.547 202.109 467.236 201.409 468.481 200.163C469.727 198.917 470.427 197.229 470.429 195.467V147.827C470.427 146.065 469.727 144.376 468.481 143.131C467.236 141.885 465.547 141.185 463.785 141.183H368.068Z" fill="#1C2359"/>
<path d="M428.633 30.5474H26.1997C25.7811 30.5385 25.3826 30.366 25.0897 30.0669C24.7968 29.7677 24.6328 29.3657 24.6328 28.9471C24.6328 28.5284 24.7968 28.1264 25.0897 27.8272C25.3826 27.528 25.7811 27.3555 26.1997 27.3467H428.633C429.051 27.3555 429.45 27.528 429.743 27.8272C430.035 28.1264 430.199 28.5284 430.199 28.9471C430.199 29.3657 430.035 29.7677 429.743 30.0669C429.45 30.366 429.051 30.5385 428.633 30.5474V30.5474Z" fill="#CACACA"/>
<path d="M53.5937 19.1758C58.7736 19.1758 62.9726 14.8831 62.9726 9.58789C62.9726 4.29265 58.7736 0 53.5937 0C48.4139 0 44.2148 4.29265 44.2148 9.58789C44.2148 14.8831 48.4139 19.1758 53.5937 19.1758Z" fill="#1C2359"/>
<path d="M85.9922 19.1758C91.172 19.1758 95.3711 14.8831 95.3711 9.58789C95.3711 4.29265 91.172 0 85.9922 0C80.8124 0 76.6133 4.29265 76.6133 9.58789C76.6133 14.8831 80.8124 19.1758 85.9922 19.1758Z" fill="#1C2359"/>
<path d="M118.393 19.1758C123.572 19.1758 127.771 14.8831 127.771 9.58789C127.771 4.29265 123.572 0 118.393 0C113.213 0 109.014 4.29265 109.014 9.58789C109.014 14.8831 113.213 19.1758 118.393 19.1758Z" fill="#1C2359"/>
<path d="M409.124 2.37646H386.109C385.653 2.38549 385.218 2.57305 384.899 2.89888C384.579 3.22471 384.4 3.66282 384.4 4.11912C384.4 4.57542 384.579 5.01353 384.899 5.33936C385.218 5.66519 385.653 5.85275 386.109 5.86177H409.124C409.58 5.85275 410.015 5.66519 410.334 5.33936C410.654 5.01353 410.833 4.57542 410.833 4.11912C410.833 3.66282 410.654 3.22471 410.334 2.89888C410.015 2.57305 409.58 2.38549 409.124 2.37646V2.37646Z" fill="#1C2359"/>
<path d="M409.124 8.91797H386.109C385.653 8.92699 385.218 9.11456 384.899 9.44038C384.579 9.76621 384.4 10.2043 384.4 10.6606C384.4 11.1169 384.579 11.555 384.899 11.8809C385.218 12.2067 385.653 12.3943 386.109 12.4033H409.124C409.58 12.3943 410.015 12.2067 410.334 11.8809C410.654 11.555 410.833 11.1169 410.833 10.6606C410.833 10.2043 410.654 9.76621 410.334 9.44038C410.015 9.11456 409.58 8.92699 409.124 8.91797V8.91797Z" fill="#1C2359"/>
<path d="M409.124 15.4507H386.109C385.653 15.4597 385.218 15.6473 384.899 15.9731C384.579 16.2989 384.4 16.737 384.4 17.1933C384.4 17.6496 384.579 18.0878 384.899 18.4136C385.218 18.7394 385.653 18.927 386.109 18.936H409.124C409.58 18.927 410.015 18.7394 410.334 18.4136C410.654 18.0878 410.833 17.6496 410.833 17.1933C410.833 16.737 410.654 16.2989 410.334 15.9731C410.015 15.6473 409.58 15.4597 409.124 15.4507V15.4507Z" fill="#1C2359"/>
<path d="M470.649 212.743C476.702 212.743 481.609 207.836 481.609 201.783C481.609 195.73 476.702 190.823 470.649 190.823C464.596 190.823 459.689 195.73 459.689 201.783C459.689 207.836 464.596 212.743 470.649 212.743Z" fill="#1C2359"/>
<path d="M469.829 206.163C469.806 206.163 469.782 206.162 469.759 206.161C469.552 206.151 469.351 206.096 469.167 206.001C468.984 205.906 468.823 205.772 468.696 205.609L466.865 203.254C466.749 203.105 466.664 202.935 466.614 202.754C466.564 202.572 466.55 202.383 466.574 202.196C466.597 202.009 466.657 201.828 466.75 201.665C466.843 201.501 466.967 201.357 467.116 201.241L467.182 201.19C467.331 201.074 467.501 200.989 467.682 200.939C467.864 200.889 468.054 200.875 468.241 200.899C468.428 200.922 468.608 200.982 468.772 201.075C468.935 201.168 469.079 201.293 469.195 201.442C469.287 201.56 469.404 201.658 469.538 201.727C469.672 201.797 469.819 201.836 469.969 201.844C470.119 201.851 470.27 201.826 470.409 201.77C470.549 201.714 470.675 201.628 470.779 201.519L474.498 197.593C474.759 197.317 475.12 197.156 475.5 197.146C475.88 197.136 476.249 197.277 476.525 197.538L476.586 197.596C476.723 197.725 476.833 197.88 476.909 198.052C476.986 198.224 477.028 198.41 477.033 198.598C477.038 198.786 477.006 198.974 476.939 199.15C476.872 199.325 476.77 199.486 476.641 199.623L470.87 205.715C470.736 205.856 470.574 205.969 470.395 206.046C470.216 206.123 470.024 206.163 469.829 206.163V206.163Z" fill="white"/>
<path d="M170.701 252.235C170.711 258.084 169.368 263.857 166.777 269.101C166.485 269.704 166.175 270.288 165.847 270.873H99.2581C98.9303 270.288 98.6203 269.704 98.328 269.101C95.7857 263.947 94.4409 258.284 94.3939 252.537C94.3468 246.79 95.5989 241.106 98.0565 235.91C100.514 230.715 104.114 226.141 108.586 222.532C113.059 218.923 118.29 216.371 123.887 215.066C129.485 213.762 135.305 213.739 140.912 214.999C146.52 216.259 151.77 218.77 156.272 222.343C160.773 225.917 164.409 230.462 166.907 235.638C169.406 240.814 170.703 246.487 170.701 252.235Z" fill="#1C2359"/>
<path d="M133.519 255.611C140.721 255.611 146.558 249.773 146.558 242.572C146.558 235.371 140.721 229.533 133.519 229.533C126.318 229.533 120.48 235.371 120.48 242.572C120.48 249.773 126.318 255.611 133.519 255.611Z" fill="white"/>
<path d="M133.52 246.918C135.921 246.918 137.866 244.972 137.866 242.572C137.866 240.172 135.921 238.226 133.52 238.226C131.12 238.226 129.174 240.172 129.174 242.572C129.174 244.972 131.12 246.918 133.52 246.918Z" fill="#1C2359"/>
<path d="M95.5464 216.751C92.4659 202.955 102.313 189.015 117.541 185.615C132.768 182.215 147.61 190.642 150.691 204.438C153.771 218.234 143.679 223.322 128.452 226.722C113.224 230.123 98.627 230.547 95.5464 216.751Z" fill="#AA276D"/>
<path d="M184.806 285.112C186.838 282.606 182.015 275.327 174.033 268.854C166.051 262.381 157.932 259.164 155.9 261.67C153.868 264.176 158.692 271.455 166.674 277.928C174.656 284.401 182.774 287.618 184.806 285.112Z" fill="#1C2359"/>
<path d="M105.964 252.335C107.997 249.83 103.173 242.551 95.1909 236.077C87.2087 229.604 79.0905 226.388 77.0584 228.894C75.0263 231.4 79.8497 238.679 87.8319 245.152C95.8141 251.625 103.932 254.841 105.964 252.335Z" fill="#1C2359"/>
<path d="M460.249 156.574C470.2 154.004 477.612 149.388 476.805 146.265C475.998 143.141 467.278 142.692 457.327 145.262C447.377 147.832 439.965 152.448 440.771 155.572C441.578 158.695 450.299 159.144 460.249 156.574Z" fill="#1C2359"/>
<path d="M386.229 156.703C390.172 147.213 390.954 138.516 387.975 137.278C384.996 136.04 379.383 142.73 375.44 152.22C371.496 161.71 370.714 170.407 373.693 171.645C376.673 172.883 382.285 166.193 386.229 156.703Z" fill="#1C2359"/>
<path d="M421.482 182.878C442.036 182.878 458.698 166.216 458.698 145.662C458.698 125.108 442.036 108.445 421.482 108.445C400.928 108.445 384.266 125.108 384.266 145.662C384.266 166.216 400.928 182.878 421.482 182.878Z" fill="#1C2359"/>
<path d="M416.06 195.152L404.754 195.205C396.478 187.058 397.702 180.518 404.66 174.948L415.966 174.896C410.753 181.313 409.364 187.975 416.06 195.152Z" fill="#1C2359"/>
<path d="M409.842 200.361C414.336 197.738 417.182 194.246 416.199 192.56C415.215 190.875 410.774 191.635 406.28 194.258C401.786 196.88 398.94 200.373 399.923 202.058C400.907 203.743 405.348 202.983 409.842 200.361Z" fill="#1C2359"/>
<path d="M436.433 195.152L425.127 195.205C416.851 187.058 418.075 180.518 425.033 174.948L436.339 174.896C431.126 181.313 429.737 187.975 436.433 195.152Z" fill="#1C2359"/>
<path d="M430.217 200.361C434.711 197.738 437.557 194.246 436.574 192.56C435.59 190.875 431.149 191.635 426.655 194.258C422.161 196.88 419.315 200.373 420.298 202.058C421.282 203.743 425.723 202.983 430.217 200.361Z" fill="#1C2359"/>
<path d="M420.497 148.964C427.522 148.964 433.216 143.269 433.216 136.244C433.216 129.22 427.522 123.525 420.497 123.525C413.472 123.525 407.777 129.22 407.777 136.244C407.777 143.269 413.472 148.964 420.497 148.964Z" fill="white"/>
<path d="M420.568 146.603C422.91 146.603 424.808 144.704 424.808 142.363C424.808 140.021 422.91 138.123 420.568 138.123C418.226 138.123 416.328 140.021 416.328 142.363C416.328 144.704 418.226 146.603 420.568 146.603Z" fill="#1C2359"/>
<path d="M457.423 110.884C460.365 97.4121 450.696 83.8582 435.826 80.6104C420.956 77.3626 406.517 85.6508 403.574 99.1226C400.632 112.594 410.499 117.512 425.369 120.76C440.239 124.008 454.48 124.356 457.423 110.884Z" fill="#AA276D"/>
<path d="M429.004 161.88C429.018 164.127 428.139 166.288 426.561 167.888C424.982 169.488 422.833 170.396 420.586 170.412C418.339 170.428 416.177 169.552 414.575 167.975C412.974 166.398 412.064 164.25 412.045 162.002L412.045 161.975L412.045 161.958C412.023 157.275 415.815 156.288 420.498 156.266C425.181 156.244 428.982 157.196 429.004 161.88Z" fill="white"/>
<path d="M542.846 149.24H478.367C477.427 149.241 476.496 149.057 475.627 148.698C474.758 148.339 473.968 147.812 473.303 147.148C472.638 146.483 472.11 145.694 471.75 144.826C471.39 143.957 471.205 143.027 471.205 142.086C471.205 141.146 471.39 140.215 471.75 139.347C472.11 138.478 472.638 137.69 473.303 137.025C473.968 136.361 474.758 135.834 475.627 135.475C476.496 135.116 477.427 134.932 478.367 134.933H542.846C544.742 134.935 546.56 135.689 547.9 137.031C549.239 138.372 549.992 140.19 549.992 142.086C549.992 143.982 549.239 145.801 547.9 147.142C546.56 148.484 544.742 149.238 542.846 149.24V149.24Z" fill="#AA276D"/>
<path d="M425.969 345.321C425.969 351.397 424.167 357.336 420.791 362.388C417.416 367.44 412.618 371.378 407.004 373.703C401.391 376.028 395.214 376.637 389.255 375.451C383.295 374.266 377.822 371.34 373.525 367.044C369.229 362.747 366.303 357.273 365.118 351.314C363.932 345.355 364.541 339.178 366.866 333.565C369.191 327.951 373.129 323.153 378.18 319.778C383.232 316.402 389.172 314.6 395.248 314.6V314.6C403.361 314.566 411.155 317.755 416.916 323.467C422.678 329.18 425.934 336.946 425.969 345.059C425.969 345.146 425.969 345.234 425.969 345.321Z" fill="white"/>
<path d="M395.248 376.928C391.096 376.93 386.984 376.114 383.148 374.527C379.311 372.939 375.825 370.611 372.888 367.676C369.952 364.741 367.622 361.256 366.033 357.42C364.443 353.585 363.625 349.473 363.625 345.321C363.625 341.169 364.443 337.058 366.033 333.222C367.622 329.386 369.952 325.901 372.888 322.966C375.825 320.031 379.311 317.703 383.148 316.116C386.984 314.529 391.096 313.713 395.248 313.715C395.294 313.715 395.341 313.714 395.387 313.714C403.71 313.716 411.694 317.015 417.591 322.889C423.488 328.763 426.819 336.733 426.854 345.056V345.321C426.845 353.701 423.512 361.734 417.587 367.66C411.662 373.585 403.628 376.918 395.248 376.928ZM395.381 315.486C395.337 315.486 395.296 315.486 395.252 315.486C389.351 315.486 383.583 317.235 378.676 320.513C373.769 323.79 369.944 328.45 367.685 333.901C365.427 339.353 364.835 345.352 365.986 351.139C367.137 356.927 369.978 362.243 374.15 366.416C378.323 370.589 383.639 373.431 389.426 374.582C395.214 375.734 401.213 375.143 406.664 372.885C412.116 370.627 416.776 366.803 420.055 361.897C423.333 356.99 425.083 351.222 425.083 345.321V345.064C425.04 337.211 421.893 329.694 416.329 324.153C410.764 318.612 403.234 315.496 395.381 315.486Z" fill="#1C2359"/>
<path d="M416.611 367.325V367.389C411.087 372.743 403.754 375.827 396.064 376.031C388.374 376.235 380.887 373.543 375.087 368.49C375.062 368.106 375.049 367.709 375.049 367.325C375.041 361.813 377.223 356.524 381.115 352.622C385.007 348.719 390.29 346.522 395.801 346.515C401.313 346.507 406.602 348.689 410.504 352.581C414.407 356.473 416.604 361.755 416.611 367.267V367.325H416.611Z" fill="#1C2359"/>
<path d="M396.354 369.16C400.277 369.16 403.458 365.98 403.458 362.057C403.458 358.133 400.277 354.953 396.354 354.953C392.431 354.953 389.25 358.133 389.25 362.057C389.25 365.98 392.431 369.16 396.354 369.16Z" fill="white"/>
<path d="M396.354 364.424C397.662 364.424 398.722 363.364 398.722 362.056C398.722 360.749 397.662 359.688 396.354 359.688C395.046 359.688 393.986 360.749 393.986 362.056C393.986 363.364 395.046 364.424 396.354 364.424Z" fill="#1C2359"/>
<path d="M375.665 347.989C373.986 340.473 379.351 332.878 387.648 331.025C395.944 329.173 404.03 333.764 405.708 341.281C407.387 348.797 401.888 351.569 393.592 353.422C385.296 355.274 377.343 355.505 375.665 347.989Z" fill="#AA276D"/>
</svg>
