<svg width="700" height="404" viewBox="0 0 700 404" fill="none" xmlns="http://www.w3.org/2000/svg">
<path d="M676.514 24.8291C679.631 24.8291 682.158 22.302 682.158 19.1847C682.158 16.0674 679.631 13.5403 676.514 13.5403C673.396 13.5403 670.869 16.0674 670.869 19.1847C670.869 22.302 673.396 24.8291 676.514 24.8291Z" fill="#F2F2F2"/>
<path d="M654.017 24.8291C657.135 24.8291 659.662 22.302 659.662 19.1847C659.662 16.0674 657.135 13.5403 654.017 13.5403C650.9 13.5403 648.373 16.0674 648.373 19.1847C648.373 22.302 650.9 24.8291 654.017 24.8291Z" fill="#F2F2F2"/>
<path d="M631.521 24.8291C634.639 24.8291 637.166 22.302 637.166 19.1847C637.166 16.0674 634.639 13.5403 631.521 13.5403C628.404 13.5403 625.877 16.0674 625.877 19.1847C625.877 22.302 628.404 24.8291 631.521 24.8291Z" fill="#F2F2F2"/>
<path d="M609.027 24.8291C612.145 24.8291 614.672 22.302 614.672 19.1847C614.672 16.0674 612.145 13.5403 609.027 13.5403C605.91 13.5403 603.383 16.0674 603.383 19.1847C603.383 22.302 605.91 24.8291 609.027 24.8291Z" fill="#F2F2F2"/>
<path d="M676.514 48.3953C679.631 48.3953 682.158 45.8682 682.158 42.7509C682.158 39.6335 679.631 37.1064 676.514 37.1064C673.396 37.1064 670.869 39.6335 670.869 42.7509C670.869 45.8682 673.396 48.3953 676.514 48.3953Z" fill="#F2F2F2"/>
<path d="M654.017 48.3953C657.135 48.3953 659.662 45.8682 659.662 42.7509C659.662 39.6335 657.135 37.1064 654.017 37.1064C650.9 37.1064 648.373 39.6335 648.373 42.7509C648.373 45.8682 650.9 48.3953 654.017 48.3953Z" fill="#F2F2F2"/>
<path d="M631.521 48.3953C634.639 48.3953 637.166 45.8682 637.166 42.7509C637.166 39.6335 634.639 37.1064 631.521 37.1064C628.404 37.1064 625.877 39.6335 625.877 42.7509C625.877 45.8682 628.404 48.3953 631.521 48.3953Z" fill="#F2F2F2"/>
<path d="M609.027 48.3953C612.145 48.3953 614.672 45.8682 614.672 42.7509C614.672 39.6335 612.145 37.1064 609.027 37.1064C605.91 37.1064 603.383 39.6335 603.383 42.7509C603.383 45.8682 605.91 48.3953 609.027 48.3953Z" fill="#F2F2F2"/>
<path d="M676.514 71.9612C679.631 71.9612 682.158 69.4341 682.158 66.3168C682.158 63.1995 679.631 60.6724 676.514 60.6724C673.396 60.6724 670.869 63.1995 670.869 66.3168C670.869 69.4341 673.396 71.9612 676.514 71.9612Z" fill="#F2F2F2"/>
<path d="M654.017 71.9612C657.135 71.9612 659.662 69.4341 659.662 66.3168C659.662 63.1995 657.135 60.6724 654.017 60.6724C650.9 60.6724 648.373 63.1995 648.373 66.3168C648.373 69.4341 650.9 71.9612 654.017 71.9612Z" fill="#F2F2F2"/>
<path d="M631.521 71.9612C634.639 71.9612 637.166 69.4341 637.166 66.3168C637.166 63.1995 634.639 60.6724 631.521 60.6724C628.404 60.6724 625.877 63.1995 625.877 66.3168C625.877 69.4341 628.404 71.9612 631.521 71.9612Z" fill="#F2F2F2"/>
<path d="M609.027 71.9612C612.145 71.9612 614.672 69.4341 614.672 66.3168C614.672 63.1995 612.145 60.6724 609.027 60.6724C605.91 60.6724 603.383 63.1995 603.383 66.3168C603.383 69.4341 605.91 71.9612 609.027 71.9612Z" fill="#F2F2F2"/>
<path d="M676.514 95.5274C679.631 95.5274 682.158 93.0003 682.158 89.8829C682.158 86.7656 679.631 84.2385 676.514 84.2385C673.396 84.2385 670.869 86.7656 670.869 89.8829C670.869 93.0003 673.396 95.5274 676.514 95.5274Z" fill="#F2F2F2"/>
<path d="M654.017 95.5274C657.135 95.5274 659.662 93.0003 659.662 89.8829C659.662 86.7656 657.135 84.2385 654.017 84.2385C650.9 84.2385 648.373 86.7656 648.373 89.8829C648.373 93.0003 650.9 95.5274 654.017 95.5274Z" fill="#F2F2F2"/>
<path d="M631.521 95.5274C634.639 95.5274 637.166 93.0003 637.166 89.8829C637.166 86.7656 634.639 84.2385 631.521 84.2385C628.404 84.2385 625.877 86.7656 625.877 89.8829C625.877 93.0003 628.404 95.5274 631.521 95.5274Z" fill="#F2F2F2"/>
<path d="M609.027 95.5274C612.145 95.5274 614.672 93.0003 614.672 89.8829C614.672 86.7656 612.145 84.2385 609.027 84.2385C605.91 84.2385 603.383 86.7656 603.383 89.8829C603.383 93.0003 605.91 95.5274 609.027 95.5274Z" fill="#F2F2F2"/>
<path d="M676.514 119.094C679.631 119.094 682.158 116.566 682.158 113.449C682.158 110.332 679.631 107.805 676.514 107.805C673.396 107.805 670.869 110.332 670.869 113.449C670.869 116.566 673.396 119.094 676.514 119.094Z" fill="#F2F2F2"/>
<path d="M654.017 119.094C657.135 119.094 659.662 116.566 659.662 113.449C659.662 110.332 657.135 107.805 654.017 107.805C650.9 107.805 648.373 110.332 648.373 113.449C648.373 116.566 650.9 119.094 654.017 119.094Z" fill="#F2F2F2"/>
<path d="M631.521 119.094C634.639 119.094 637.166 116.566 637.166 113.449C637.166 110.332 634.639 107.805 631.521 107.805C628.404 107.805 625.877 110.332 625.877 113.449C625.877 116.566 628.404 119.094 631.521 119.094Z" fill="#F2F2F2"/>
<path d="M609.027 119.094C612.145 119.094 614.672 116.566 614.672 113.449C614.672 110.332 612.145 107.805 609.027 107.805C605.91 107.805 603.383 110.332 603.383 113.449C603.383 116.566 605.91 119.094 609.027 119.094Z" fill="#F2F2F2"/>
<path d="M676.514 142.659C679.631 142.659 682.158 140.132 682.158 137.015C682.158 133.898 679.631 131.371 676.514 131.371C673.396 131.371 670.869 133.898 670.869 137.015C670.869 140.132 673.396 142.659 676.514 142.659Z" fill="#F2F2F2"/>
<path d="M654.017 142.659C657.135 142.659 659.662 140.132 659.662 137.015C659.662 133.898 657.135 131.371 654.017 131.371C650.9 131.371 648.373 133.898 648.373 137.015C648.373 140.132 650.9 142.659 654.017 142.659Z" fill="#F2F2F2"/>
<path d="M631.521 142.659C634.639 142.659 637.166 140.132 637.166 137.015C637.166 133.898 634.639 131.371 631.521 131.371C628.404 131.371 625.877 133.898 625.877 137.015C625.877 140.132 628.404 142.659 631.521 142.659Z" fill="#F2F2F2"/>
<path d="M609.027 142.659C612.145 142.659 614.672 140.132 614.672 137.015C614.672 133.898 612.145 131.371 609.027 131.371C605.91 131.371 603.383 133.898 603.383 137.015C603.383 140.132 605.91 142.659 609.027 142.659Z" fill="#F2F2F2"/>
<path d="M666.906 389.242C670.981 380.441 675.052 371.51 676.821 361.974C678.589 352.437 677.847 342.088 672.782 333.817C667.717 325.546 657.745 319.937 648.228 321.807C640.412 323.343 634.136 329.499 630.461 336.566C626.786 343.634 625.311 351.605 623.882 359.441C623.42 350.539 622.931 341.492 619.974 333.083C617.016 324.673 611.193 316.835 602.893 313.581C594.593 310.327 583.797 312.886 579.422 320.654C573.26 331.597 581.431 346.948 574.345 357.317C573.129 346.916 562.252 338.698 551.915 340.37C541.577 342.043 533.846 353.272 535.973 363.526C537.238 369.627 541.401 374.817 546.378 378.566C551.355 382.316 557.144 386.661 562.87 389.119L666.906 389.242Z" fill="#F2F2F2"/>
<path d="M541.4 347.72C549.612 350.59 557.899 353.493 565.396 357.98C572.115 362.002 578.098 367.417 581.877 374.352C583.947 378.072 585.176 382.201 585.478 386.448C585.532 387.336 586.922 387.342 586.867 386.448C586.381 378.539 582.527 371.302 577.19 365.578C571.339 359.302 563.756 355.016 555.927 351.691C551.286 349.719 546.528 348.043 541.77 346.38C540.924 346.085 540.56 347.426 541.4 347.72H541.4Z" fill="white"/>
<path d="M588.767 314.96C593.812 323.365 597.852 332.334 600.804 341.682C603.762 351.027 605.625 360.683 606.356 370.457C606.761 375.929 606.805 381.421 606.488 386.899C606.437 387.792 607.826 387.789 607.878 386.899C608.438 377.023 607.84 367.116 606.097 357.379C604.356 347.644 601.495 338.143 597.57 329.065C595.367 323.966 592.827 319.02 589.966 314.259C589.87 314.107 589.719 313.998 589.543 313.955C589.368 313.912 589.184 313.939 589.028 314.03C588.872 314.121 588.758 314.269 588.709 314.442C588.661 314.616 588.681 314.802 588.767 314.96V314.96Z" fill="white"/>
<path d="M656.758 322.94C649.622 338.974 644.6 355.867 641.819 373.195C641.038 378.063 640.433 382.954 640.005 387.869C639.927 388.76 641.317 388.754 641.394 387.869C642.907 370.579 646.644 353.557 652.512 337.224C654.161 332.631 655.976 328.104 657.958 323.641C658.318 322.831 657.121 322.124 656.758 322.94V322.94Z" fill="white"/>
<path d="M699.127 389.009H0.872818C0.641332 389.009 0.419327 388.917 0.255642 388.754C0.0919567 388.59 0 388.368 0 388.136C0 387.905 0.0919567 387.683 0.255642 387.519C0.419327 387.356 0.641332 387.264 0.872818 387.264H699.127C699.359 387.264 699.581 387.356 699.744 387.519C699.908 387.683 700 387.905 700 388.136C700 388.368 699.908 388.59 699.744 388.754C699.581 388.917 699.359 389.009 699.127 389.009Z" fill="#3F3D56"/>
<path d="M361.575 166.309H240.491C238.75 166.307 237.081 165.615 235.851 164.384C234.62 163.154 233.928 161.485 233.926 159.744V6.56483C233.928 4.82434 234.62 3.1557 235.851 1.92498C237.081 0.694261 238.75 0.00197976 240.491 0H361.575C363.316 0.00198209 364.985 0.694265 366.215 1.92499C367.446 3.15572 368.138 4.82437 368.14 6.56487V159.744C368.138 161.485 367.446 163.154 366.215 164.384C364.985 165.615 363.316 166.307 361.575 166.309ZM240.491 1.4589C239.137 1.46041 237.839 1.99884 236.882 2.95607C235.925 3.9133 235.386 5.21115 235.385 6.56487V159.744C235.386 161.098 235.925 162.396 236.882 163.353C237.839 164.31 239.137 164.849 240.491 164.85H361.575C362.929 164.849 364.227 164.31 365.184 163.353C366.141 162.396 366.68 161.098 366.681 159.744V6.56487C366.68 5.21115 366.141 3.91331 365.184 2.95608C364.227 1.99885 362.929 1.46041 361.575 1.4589H240.491Z" fill="#3F3D56"/>
<path d="M290.961 73.6295H264.308C263.438 73.6285 262.603 73.2824 261.988 72.667C261.373 72.0517 261.026 71.2173 261.025 70.3471V38.8945C261.026 38.0242 261.373 37.1899 261.988 36.5745C262.603 35.9592 263.438 35.613 264.308 35.6121H290.961C291.831 35.613 292.666 35.9592 293.281 36.5745C293.896 37.1899 294.243 38.0242 294.243 38.8945V70.3471C294.243 71.2173 293.896 72.0517 293.281 72.667C292.666 73.2824 291.831 73.6285 290.961 73.6295V73.6295Z" fill="#AA276D"/>
<path d="M342.75 88.2181H316.097C315.227 88.2172 314.392 87.871 313.777 87.2556C313.162 86.6403 312.815 85.806 312.814 84.9357V53.4831C312.815 52.6128 313.162 51.7785 313.777 51.1632C314.392 50.5478 315.227 50.2016 316.097 50.2007H342.75C343.62 50.2016 344.455 50.5478 345.07 51.1632C345.685 51.7785 346.032 52.6128 346.033 53.4831V84.9357C346.032 85.806 345.685 86.6403 345.07 87.2556C344.455 87.871 343.62 88.2172 342.75 88.2181V88.2181Z" fill="#CCCCCC"/>
<path d="M301.174 132.713H274.521C273.65 132.712 272.816 132.366 272.201 131.751C271.585 131.135 271.239 130.301 271.238 129.431V97.978C271.239 97.1077 271.585 96.2734 272.201 95.658C272.816 95.0426 273.65 94.6965 274.521 94.6956H301.174C302.044 94.6965 302.879 95.0426 303.494 95.658C304.109 96.2734 304.455 97.1077 304.456 97.978V129.431C304.455 130.301 304.109 131.135 303.494 131.751C302.879 132.366 302.044 132.712 301.174 132.713V132.713Z" fill="#AA276D"/>
<path d="M101.187 15.9614C104.305 15.9614 106.832 13.4344 106.832 10.317C106.832 7.1997 104.305 4.67261 101.187 4.67261C98.0701 4.67261 95.543 7.1997 95.543 10.317C95.543 13.4344 98.0701 15.9614 101.187 15.9614Z" fill="#F2F2F2"/>
<path d="M101.187 38.4568C104.305 38.4568 106.832 35.9297 106.832 32.8124C106.832 29.6951 104.305 27.168 101.187 27.168C98.0701 27.168 95.543 29.6951 95.543 32.8124C95.543 35.9297 98.0701 38.4568 101.187 38.4568Z" fill="#F2F2F2"/>
<path d="M101.187 60.9522C104.305 60.9522 106.832 58.4251 106.832 55.3077C106.832 52.1904 104.305 49.6633 101.187 49.6633C98.0701 49.6633 95.543 52.1904 95.543 55.3077C95.543 58.4251 98.0701 60.9522 101.187 60.9522Z" fill="#F2F2F2"/>
<path d="M101.187 83.4475C104.305 83.4475 106.832 80.9204 106.832 77.8031C106.832 74.6858 104.305 72.1587 101.187 72.1587C98.0701 72.1587 95.543 74.6858 95.543 77.8031C95.543 80.9204 98.0701 83.4475 101.187 83.4475Z" fill="#F2F2F2"/>
<path d="M124.754 15.9614C127.871 15.9614 130.398 13.4344 130.398 10.317C130.398 7.1997 127.871 4.67261 124.754 4.67261C121.636 4.67261 119.109 7.1997 119.109 10.317C119.109 13.4344 121.636 15.9614 124.754 15.9614Z" fill="#F2F2F2"/>
<path d="M124.754 38.4568C127.871 38.4568 130.398 35.9297 130.398 32.8124C130.398 29.6951 127.871 27.168 124.754 27.168C121.636 27.168 119.109 29.6951 119.109 32.8124C119.109 35.9297 121.636 38.4568 124.754 38.4568Z" fill="#F2F2F2"/>
<path d="M124.754 60.9522C127.871 60.9522 130.398 58.4251 130.398 55.3077C130.398 52.1904 127.871 49.6633 124.754 49.6633C121.636 49.6633 119.109 52.1904 119.109 55.3077C119.109 58.4251 121.636 60.9522 124.754 60.9522Z" fill="#F2F2F2"/>
<path d="M124.754 83.4475C127.871 83.4475 130.398 80.9204 130.398 77.8031C130.398 74.6858 127.871 72.1587 124.754 72.1587C121.636 72.1587 119.109 74.6858 119.109 77.8031C119.109 80.9204 121.636 83.4475 124.754 83.4475Z" fill="#F2F2F2"/>
<path d="M148.318 15.9614C151.436 15.9614 153.963 13.4344 153.963 10.317C153.963 7.1997 151.436 4.67261 148.318 4.67261C145.201 4.67261 142.674 7.1997 142.674 10.317C142.674 13.4344 145.201 15.9614 148.318 15.9614Z" fill="#F2F2F2"/>
<path d="M148.318 38.4568C151.436 38.4568 153.963 35.9297 153.963 32.8124C153.963 29.6951 151.436 27.168 148.318 27.168C145.201 27.168 142.674 29.6951 142.674 32.8124C142.674 35.9297 145.201 38.4568 148.318 38.4568Z" fill="#F2F2F2"/>
<path d="M148.318 60.9522C151.436 60.9522 153.963 58.4251 153.963 55.3077C153.963 52.1904 151.436 49.6633 148.318 49.6633C145.201 49.6633 142.674 52.1904 142.674 55.3077C142.674 58.4251 145.201 60.9522 148.318 60.9522Z" fill="#F2F2F2"/>
<path d="M148.318 83.4475C151.436 83.4475 153.963 80.9204 153.963 77.8031C153.963 74.6858 151.436 72.1587 148.318 72.1587C145.201 72.1587 142.674 74.6858 142.674 77.8031C142.674 80.9204 145.201 83.4475 148.318 83.4475Z" fill="#F2F2F2"/>
<path d="M171.885 15.9614C175.002 15.9614 177.529 13.4344 177.529 10.317C177.529 7.1997 175.002 4.67261 171.885 4.67261C168.767 4.67261 166.24 7.1997 166.24 10.317C166.24 13.4344 168.767 15.9614 171.885 15.9614Z" fill="#F2F2F2"/>
<path d="M171.885 38.4568C175.002 38.4568 177.529 35.9297 177.529 32.8124C177.529 29.6951 175.002 27.168 171.885 27.168C168.767 27.168 166.24 29.6951 166.24 32.8124C166.24 35.9297 168.767 38.4568 171.885 38.4568Z" fill="#F2F2F2"/>
<path d="M171.885 60.9522C175.002 60.9522 177.529 58.4251 177.529 55.3077C177.529 52.1904 175.002 49.6633 171.885 49.6633C168.767 49.6633 166.24 52.1904 166.24 55.3077C166.24 58.4251 168.767 60.9522 171.885 60.9522Z" fill="#F2F2F2"/>
<path d="M171.885 83.4475C175.002 83.4475 177.529 80.9204 177.529 77.8031C177.529 74.6858 175.002 72.1587 171.885 72.1587C168.767 72.1587 166.24 74.6858 166.24 77.8031C166.24 80.9204 168.767 83.4475 171.885 83.4475Z" fill="#F2F2F2"/>
<path d="M195.451 15.9614C198.568 15.9614 201.095 13.4344 201.095 10.317C201.095 7.1997 198.568 4.67261 195.451 4.67261C192.334 4.67261 189.807 7.1997 189.807 10.317C189.807 13.4344 192.334 15.9614 195.451 15.9614Z" fill="#F2F2F2"/>
<path d="M195.451 38.4568C198.568 38.4568 201.095 35.9297 201.095 32.8124C201.095 29.6951 198.568 27.168 195.451 27.168C192.334 27.168 189.807 29.6951 189.807 32.8124C189.807 35.9297 192.334 38.4568 195.451 38.4568Z" fill="#F2F2F2"/>
<path d="M195.451 60.9522C198.568 60.9522 201.095 58.4251 201.095 55.3077C201.095 52.1904 198.568 49.6633 195.451 49.6633C192.334 49.6633 189.807 52.1904 189.807 55.3077C189.807 58.4251 192.334 60.9522 195.451 60.9522Z" fill="#F2F2F2"/>
<path d="M195.451 83.4475C198.568 83.4475 201.095 80.9204 201.095 77.8031C201.095 74.6858 198.568 72.1587 195.451 72.1587C192.334 72.1587 189.807 74.6858 189.807 77.8031C189.807 80.9204 192.334 83.4475 195.451 83.4475Z" fill="#F2F2F2"/>
<path d="M219.017 15.9614C222.135 15.9614 224.662 13.4344 224.662 10.317C224.662 7.1997 222.135 4.67261 219.017 4.67261C215.9 4.67261 213.373 7.1997 213.373 10.317C213.373 13.4344 215.9 15.9614 219.017 15.9614Z" fill="#F2F2F2"/>
<path d="M219.017 38.4568C222.135 38.4568 224.662 35.9297 224.662 32.8124C224.662 29.6951 222.135 27.168 219.017 27.168C215.9 27.168 213.373 29.6951 213.373 32.8124C213.373 35.9297 215.9 38.4568 219.017 38.4568Z" fill="#F2F2F2"/>
<path d="M219.017 60.9522C222.135 60.9522 224.662 58.4251 224.662 55.3077C224.662 52.1904 222.135 49.6633 219.017 49.6633C215.9 49.6633 213.373 52.1904 213.373 55.3077C213.373 58.4251 215.9 60.9522 219.017 60.9522Z" fill="#F2F2F2"/>
<path d="M219.017 83.4475C222.135 83.4475 224.662 80.9204 224.662 77.8031C224.662 74.6858 222.135 72.1587 219.017 72.1587C215.9 72.1587 213.373 74.6858 213.373 77.8031C213.373 80.9204 215.9 83.4475 219.017 83.4475Z" fill="#F2F2F2"/>
<path d="M158.019 396.638C178.271 396.638 194.688 380.221 194.688 359.969C194.688 339.717 178.271 323.3 158.019 323.3C137.767 323.3 121.35 339.717 121.35 359.969C121.35 380.221 137.767 396.638 158.019 396.638Z" fill="#1C2359"/>
<path d="M144.075 384.06L126.229 392.998L131.217 402.958L149.063 394.021L144.075 384.06Z" fill="#1C2359"/>
<path d="M133.569 401.948C134.628 400.343 132.016 396.753 127.735 393.931C123.455 391.109 119.127 390.122 118.069 391.727C117.01 393.333 119.622 396.922 123.903 399.744C128.183 402.566 132.511 403.553 133.569 401.948Z" fill="#1C2359"/>
<path d="M171.963 384.061L166.975 394.021L184.821 402.959L189.809 392.998L171.963 384.061Z" fill="#1C2359"/>
<path d="M192.136 399.744C196.416 396.921 199.028 393.332 197.97 391.727C196.911 390.122 192.583 391.109 188.303 393.931C184.023 396.753 181.411 400.342 182.469 401.947C183.527 403.553 187.855 402.566 192.136 399.744Z" fill="#1C2359"/>
<path d="M155.452 363.532C162.374 363.532 167.985 357.921 167.985 350.999C167.985 344.078 162.374 338.467 155.452 338.467C148.531 338.467 142.92 344.078 142.92 350.999C142.92 357.921 148.531 363.532 155.452 363.532Z" fill="white"/>
<path d="M148.113 351.302C152.585 347.896 157.639 352.951 154.234 357.422C149.762 360.828 144.708 355.773 148.113 351.302Z" fill="#3F3D56"/>
<path d="M186.946 320.076C187.497 306.501 175.797 295.002 160.813 294.394C145.829 293.785 133.234 304.297 132.683 317.872C132.132 331.448 142.548 334.532 157.532 335.141C172.516 335.75 186.394 333.652 186.946 320.076Z" fill="#CCCCCC"/>
<path d="M208.083 379.17C210.495 377.099 207.103 369.192 200.507 361.509C193.911 353.826 186.609 349.276 184.197 351.347C181.785 353.418 185.177 361.325 191.773 369.008C198.368 376.691 205.671 381.241 208.083 379.17Z" fill="#1C2359"/>
<path d="M124.367 369.007C130.962 361.324 134.354 353.417 131.942 351.347C129.53 349.276 122.228 353.826 115.632 361.509C109.036 369.192 105.645 377.099 108.057 379.17C110.469 381.24 117.771 376.69 124.367 369.007Z" fill="#1C2359"/>
<path d="M168.09 374.419C168.288 375.499 168.27 376.607 168.039 377.681C167.808 378.754 167.368 379.771 166.744 380.674C166.12 381.577 165.324 382.348 164.401 382.943C163.479 383.539 162.448 383.946 161.368 384.143C160.288 384.339 159.18 384.321 158.107 384.089C157.033 383.857 156.017 383.416 155.114 382.791C154.212 382.166 153.441 381.369 152.847 380.446C152.253 379.523 151.846 378.492 151.65 377.412L151.647 377.396C150.825 372.855 154.336 371.249 158.876 370.427C163.417 369.605 167.268 369.879 168.09 374.419Z" fill="white"/>
<path d="M545.771 285.694H496.884C496.884 286.272 496.654 286.827 496.245 287.237C495.836 287.646 495.281 287.876 494.702 287.876H446.715C446.037 288.386 445.419 288.972 444.873 289.622C443.233 291.578 442.336 294.051 442.342 296.604V298.35C442.343 301.243 443.493 304.017 445.538 306.063C447.584 308.109 450.359 309.259 453.252 309.26H545.771C548.664 309.257 551.437 308.107 553.483 306.062C555.528 304.016 556.679 301.243 556.681 298.35V296.604C556.677 293.712 555.526 290.939 553.481 288.894C551.436 286.849 548.663 285.698 545.771 285.694Z" fill="#3F3D56"/>
<path d="M505.616 308.827H494.27V389.126H505.616V308.827Z" fill="#3F3D56"/>
<path d="M537.91 388.727C537.91 389.953 520.715 389.201 499.506 389.201C478.296 389.201 461.102 389.953 461.102 388.727C461.102 387.501 478.296 377.779 499.506 377.779C520.715 377.779 537.91 387.501 537.91 388.727Z" fill="#3F3D56"/>
<path d="M543.633 288.207L541.73 276.302C541.489 274.802 540.663 273.458 539.432 272.567C538.202 271.675 536.668 271.308 535.167 271.545L515.537 274.679L481.916 280.047L470.98 281.792H494.703C495.282 281.792 495.837 282.022 496.246 282.432C496.655 282.841 496.885 283.396 496.885 283.974V285.694C496.885 286.272 496.655 286.827 496.246 287.236C495.837 287.646 495.282 287.876 494.703 287.876H434.33C433.488 288.27 432.758 288.87 432.209 289.621C431.745 290.232 431.41 290.931 431.224 291.675C431.038 292.419 431.005 293.193 431.127 293.951L431.668 297.337L432.323 301.448L433.03 305.865C433.27 307.361 434.094 308.702 435.321 309.592C436.548 310.482 438.078 310.849 439.576 310.613L455.173 308.125L500.158 300.942L538.876 294.762C540.374 294.518 541.714 293.693 542.605 292.465C543.496 291.237 543.866 289.707 543.633 288.207V288.207Z" fill="#AA276D"/>
<path d="M453.977 289.622C453.403 288.86 452.643 288.258 451.769 287.876H435.081C434.203 288.256 433.439 288.857 432.864 289.622C432.087 290.616 431.666 291.842 431.668 293.104V359.622C431.67 361.137 432.273 362.59 433.345 363.662C434.417 364.733 435.87 365.336 437.385 365.339H449.456C450.972 365.336 452.425 364.733 453.496 363.662C454.568 362.59 455.171 361.137 455.173 359.622V293.104C455.174 291.842 454.753 290.617 453.977 289.622Z" fill="#AA276D"/>
<path d="M490.302 176.33L490.189 176.181L482.7 166.955C482.301 166.461 481.82 166.038 481.277 165.707C480.99 165.513 480.679 165.354 480.352 165.236C479.874 165.045 479.372 164.921 478.86 164.869C478.517 164.833 478.173 164.827 477.83 164.852C477.823 164.853 477.817 164.856 477.812 164.861C476.655 164.946 475.552 165.385 474.652 166.117L459.282 178.581L439.53 194.606L410.055 218.521L407.908 220.267H445.204L447.359 218.521L454.491 212.735L454.996 212.333L489.438 184.394L489.464 184.377C490.173 183.806 490.733 183.073 491.097 182.238C491.336 181.692 491.489 181.112 491.55 180.519C491.63 179.773 491.56 179.018 491.346 178.299C491.132 177.58 490.777 176.911 490.302 176.33V176.33Z" fill="#AA276D"/>
<path d="M490.19 176.181C489.708 173.829 488.639 171.637 487.082 169.81C485.531 167.968 483.532 166.556 481.278 165.707C480.929 165.577 480.589 165.454 480.24 165.358C479.452 165.124 478.646 164.954 477.83 164.852C477.824 164.853 477.817 164.856 477.813 164.861C474.141 164.436 470.447 165.457 467.514 167.706L440.928 188.025C440.363 188.53 439.906 189.144 439.584 189.829C439.261 190.514 439.08 191.257 439.051 192.014C439.01 192.904 439.174 193.791 439.531 194.606C439.618 194.79 439.714 194.973 439.819 195.148C440.023 195.502 440.269 195.83 440.552 196.125L444.811 200.908L454.718 212.019L454.997 212.333L455.635 213.058C456.142 213.614 456.754 214.064 457.435 214.383C458.116 214.702 458.854 214.883 459.606 214.917C460.357 214.95 461.108 214.834 461.815 214.577C462.522 214.319 463.171 213.925 463.725 213.416L486.654 188.785C487.846 187.506 488.79 186.017 489.439 184.394C490.486 181.789 490.747 178.934 490.19 176.181V176.181Z" fill="#1C2359"/>
<path d="M500.326 144.576C524.487 144.576 544.073 124.99 544.073 100.828C544.073 76.6675 524.487 57.0811 500.326 57.0811C476.164 57.0811 456.578 76.6675 456.578 100.828C456.578 124.99 476.164 144.576 500.326 144.576Z" fill="#AA276D"/>
<path d="M516.732 282.185L515.536 274.679L514.829 270.271C514.588 268.773 513.763 267.432 512.534 266.541C511.305 265.651 509.773 265.285 508.274 265.523L476.477 270.594L467.854 271.973L466.108 272.253V281.793H494.702C495.28 281.793 495.835 282.023 496.244 282.432C496.654 282.841 496.884 283.396 496.884 283.975V285.694C496.884 286.273 496.654 286.828 496.244 287.237C495.835 287.646 495.28 287.876 494.702 287.876H404.217C404.217 287.893 404.225 287.911 404.225 287.928L404.767 291.315L406.128 299.834C406.369 301.33 407.193 302.671 408.42 303.561C409.647 304.451 411.177 304.818 412.674 304.582L428.272 302.094L431.667 301.553L432.321 301.448L455.172 297.8L470.717 295.312L495.382 291.376L495.749 291.315L511.975 288.731C513.472 288.491 514.814 287.668 515.705 286.441C516.597 285.214 516.966 283.684 516.732 282.185V282.185Z" fill="#AA276D"/>
<path d="M559.866 250.083C559.866 285.746 556.244 307.078 500.383 300.968C500.305 300.959 500.235 300.95 500.157 300.942C490.194 299.957 480.34 298.073 470.717 295.312C465.715 293.852 460.855 291.947 456.193 289.621C455.093 289.063 454.037 288.478 452.998 287.876H494.702C495.28 287.875 495.835 287.645 496.244 287.236C496.653 286.827 496.883 286.272 496.884 285.694V283.974C496.883 283.395 496.653 282.841 496.244 282.431C495.835 282.022 495.28 281.792 494.702 281.792H466.108V226.665C466.106 224.969 465.431 223.343 464.232 222.144C463.032 220.944 461.406 220.27 459.71 220.267H460.888C461.09 219.691 461.29 219.106 461.508 218.521C463.629 212.63 463.421 207.995 466.432 202.226C470.569 194.266 470.595 186.262 476.033 179.533C480.083 174.532 467.679 169.076 472.235 165.323C480.99 158.096 490.521 153.627 500.192 153.627C535.855 153.627 559.866 214.419 559.866 250.083Z" fill="#1C2359"/>
<path d="M501.245 117.043L501.291 115.408C498.25 115.323 495.568 115.133 493.553 113.661C492.982 113.22 492.513 112.661 492.177 112.022C491.841 111.383 491.646 110.68 491.607 109.959C491.571 109.519 491.638 109.076 491.801 108.666C491.965 108.256 492.221 107.888 492.549 107.593C493.887 106.464 496.039 106.829 497.607 107.548L498.96 108.169L496.366 89.2124L494.746 89.4343L496.953 105.559C496.05 105.224 495.077 105.12 494.123 105.258C493.17 105.395 492.266 105.768 491.494 106.345C490.974 106.798 490.567 107.365 490.303 108.002C490.039 108.639 489.926 109.329 489.973 110.017C490.021 110.985 490.28 111.931 490.732 112.788C491.183 113.646 491.817 114.394 492.589 114.981C495.178 116.873 498.542 116.967 501.245 117.043Z" fill="#1C2359"/>
<path d="M486.736 90.8247H477.932V92.4595H486.736V90.8247Z" fill="#1C2359"/>
<path d="M514.527 90.8247H505.723V92.4595H514.527V90.8247Z" fill="#1C2359"/>
<path d="M526.334 188.837L522.869 186.428L516.418 181.951C515.171 181.088 513.633 180.756 512.141 181.026C510.648 181.296 509.324 182.146 508.458 183.391L487.432 213.651L467.855 241.826L466.109 244.34V281.792H466.266C467.627 281.657 468.894 281.038 469.836 280.047C470.038 279.839 470.222 279.614 470.386 279.375L476.478 270.594L491.535 248.922L507.14 226.473L508.624 224.335L527.756 196.797C527.861 196.651 527.957 196.5 528.045 196.343C528.132 196.194 528.21 196.039 528.28 195.881C528.829 194.664 528.935 193.294 528.579 192.007C528.224 190.721 527.429 189.599 526.334 188.837V188.837Z" fill="#AA276D"/>
<path d="M526.394 176.862C525.777 176.457 525.129 176.101 524.457 175.797C521.475 174.431 518.113 174.132 514.937 174.953C511.762 175.773 508.965 177.661 507.018 180.301L487.153 207.236C486.754 207.878 486.486 208.592 486.366 209.338C486.245 210.083 486.275 210.845 486.452 211.58C486.629 212.314 486.95 213.006 487.397 213.615C487.844 214.224 488.408 214.737 489.055 215.126L507.14 226.473L507.367 226.613L508.274 227.18C509.573 227.965 511.129 228.203 512.603 227.844C514.077 227.484 515.348 226.555 516.139 225.26L530.165 197.417L530.4 196.954L530.409 196.946L531.273 195.209C532.849 192.084 533.223 188.49 532.323 185.107C531.424 181.725 529.314 178.791 526.394 176.862Z" fill="#1C2359"/>
<path d="M404.768 287.876V353.59C404.77 355.106 405.373 356.559 406.444 357.63C407.516 358.702 408.969 359.305 410.484 359.307H422.555C424.071 359.305 425.524 358.702 426.596 357.631C427.667 356.559 428.27 355.106 428.273 353.59V287.876H404.768Z" fill="#AA276D"/>
<path d="M494.702 280.046H467.854V226.665C467.852 224.506 466.993 222.436 465.466 220.909C463.94 219.383 461.87 218.524 459.711 218.521H360.148C357.988 218.522 355.916 219.38 354.387 220.907C352.859 222.434 351.999 224.504 351.996 226.665V281.478C351.999 283.638 352.859 285.709 354.387 287.236C355.916 288.763 357.988 289.621 360.148 289.621H494.702C494.842 289.621 494.972 289.612 495.103 289.604C495.226 289.595 495.348 289.569 495.47 289.551C496.36 289.371 497.161 288.889 497.737 288.186C498.313 287.483 498.628 286.602 498.63 285.694V283.974C498.629 282.932 498.216 281.933 497.479 281.197C496.742 280.46 495.743 280.046 494.702 280.046V280.046ZM494.702 287.876H360.148C358.451 287.875 356.823 287.201 355.622 286.002C354.421 284.802 353.745 283.175 353.742 281.478V226.665C353.745 224.967 354.421 223.341 355.622 222.141C356.823 220.942 358.451 220.268 360.148 220.267H459.711C461.407 220.27 463.033 220.944 464.232 222.144C465.431 223.343 466.106 224.969 466.108 226.665V281.792H494.702C495.28 281.792 495.835 282.022 496.245 282.431C496.654 282.841 496.884 283.395 496.884 283.974V285.694C496.884 286.272 496.654 286.827 496.244 287.236C495.835 287.645 495.28 287.875 494.702 287.876V287.876Z" fill="#3F3D56"/>
<path d="M409.925 260.785C413.632 260.785 416.637 257.779 416.637 254.072C416.637 250.365 413.632 247.36 409.925 247.36C406.218 247.36 403.213 250.365 403.213 254.072C403.213 257.779 406.218 260.785 409.925 260.785Z" fill="#AA276D"/>
<path d="M467.828 280.972H466.082V288.827H467.828V280.972Z" fill="#3F3D56"/>
<path d="M197.739 227.247C201.445 217.551 201.982 208.748 198.938 207.584C195.894 206.421 190.422 213.338 186.716 223.034C183.01 232.73 182.473 241.533 185.517 242.697C188.561 243.86 194.033 236.943 197.739 227.247Z" fill="#1C2359"/>
<path d="M194.59 259.548C197.915 239.055 183.999 219.747 163.506 216.422C143.014 213.096 123.706 227.013 120.381 247.505C117.055 267.998 130.972 287.306 151.464 290.631C171.956 293.957 191.264 280.04 194.59 259.548Z" fill="#1C2359"/>
<path d="M151.775 283.027H140.355V303.488H151.775V283.027Z" fill="#1C2359"/>
<path d="M174.613 283.027H163.193V303.488H174.613V283.027Z" fill="#1C2359"/>
<path d="M149.872 307.295C155.128 307.295 159.388 305.697 159.388 303.726C159.388 301.755 155.128 300.157 149.872 300.157C144.616 300.157 140.355 301.755 140.355 303.726C140.355 305.697 144.616 307.295 149.872 307.295Z" fill="#1C2359"/>
<path d="M172.71 306.819C177.966 306.819 182.226 305.221 182.226 303.25C182.226 301.279 177.966 299.681 172.71 299.681C167.454 299.681 163.193 301.279 163.193 303.25C163.193 305.221 167.454 306.819 172.71 306.819Z" fill="#1C2359"/>
<path d="M158.813 256.852C165.905 256.643 171.486 250.725 171.277 243.633C171.069 236.541 165.151 230.96 158.058 231.169C150.966 231.377 145.386 237.295 145.594 244.388C145.803 251.48 151.721 257.06 158.813 256.852Z" fill="white"/>
<path d="M158.437 248.292C160.802 248.292 162.719 246.375 162.719 244.01C162.719 241.645 160.802 239.728 158.437 239.728C156.072 239.728 154.154 241.645 154.154 244.01C154.154 246.375 156.072 248.292 158.437 248.292Z" fill="#3F3D56"/>
<path d="M121.021 218.569C117.985 204.976 127.688 191.241 142.691 187.89C157.695 184.54 172.319 192.844 175.354 206.437C178.389 220.03 168.445 225.043 153.442 228.393C138.438 231.744 124.056 232.162 121.021 218.569Z" fill="#AA276D"/>
<path d="M132.127 244.139C133.523 241.194 127.052 235.202 117.673 230.753C108.295 226.305 99.5596 225.086 98.1632 228.03C96.7668 230.975 103.238 236.967 112.617 241.416C121.995 245.864 130.73 247.083 132.127 244.139Z" fill="#1C2359"/>
<path d="M139.02 267.087C139.02 270.766 148.492 278.031 159.004 278.031C169.516 278.031 179.371 267.673 179.371 263.994C179.371 260.315 169.516 264.708 159.004 264.708C148.493 264.708 139.02 263.408 139.02 267.087Z" fill="white"/>
<path d="M230.025 245.47L202.355 250.871C201.907 250.96 201.445 250.945 201.003 250.828C200.561 250.712 200.152 250.496 199.807 250.197C199.454 249.894 199.175 249.515 198.991 249.089C198.807 248.662 198.723 248.199 198.745 247.735C199.217 236.389 197.011 225.091 192.307 214.755C192.112 214.333 192.016 213.873 192.026 213.408C192.036 212.944 192.152 212.488 192.365 212.075C192.573 211.668 192.871 211.314 193.236 211.04C193.601 210.765 194.025 210.578 194.473 210.492L222.143 205.091C222.85 204.954 223.583 205.073 224.211 205.426C224.839 205.779 225.321 206.344 225.572 207.019C229.665 218.389 231.993 230.319 232.477 242.394C232.498 243.114 232.264 243.818 231.815 244.381C231.366 244.945 230.732 245.33 230.025 245.47V245.47Z" fill="#AA276D"/>
<path d="M108.703 270.781L81.0329 276.182C80.5848 276.271 80.1223 276.257 79.6807 276.14C79.239 276.023 78.8298 275.807 78.4842 275.508C78.1316 275.206 77.8527 274.827 77.6687 274.4C77.4847 273.974 77.4004 273.511 77.4223 273.047C77.8943 261.701 75.6889 250.402 70.9844 240.067C70.7897 239.645 70.6937 239.184 70.7039 238.72C70.714 238.255 70.8299 237.799 71.0429 237.387C71.2507 236.98 71.5486 236.626 71.9139 236.351C72.2792 236.077 72.7023 235.89 73.151 235.803L100.821 230.402C101.528 230.266 102.261 230.385 102.889 230.738C103.516 231.091 103.999 231.655 104.249 232.331C108.342 243.701 110.671 255.63 111.154 267.705C111.176 268.425 110.942 269.129 110.493 269.693C110.044 270.256 109.409 270.642 108.703 270.781V270.781Z" fill="#CCCCCC"/>
<path d="M512.915 70.1154C505.038 73.6314 496.102 73.942 488 70.9814C482.059 68.7038 476.911 64.7439 473.186 59.5863C469.461 54.4287 467.32 48.297 467.025 41.9416L465.055 43.072L473.36 48.916C473.534 49.0157 473.728 49.0746 473.928 49.0881C474.127 49.1016 474.327 49.0694 474.513 48.994C474.698 48.9186 474.864 48.8019 474.998 48.6528C475.131 48.5037 475.229 48.3262 475.284 48.1336C475.867 45.7963 476.926 43.6044 478.395 41.6949C479.864 39.7853 481.71 38.1991 483.82 37.0353C488.444 34.4559 493.821 33.5615 499.032 34.5047C509.823 36.2554 519.539 43.4497 525.859 52.1736C529.31 56.9196 531.866 62.255 533.402 67.918C533.504 68.2421 533.727 68.5142 534.026 68.6767C534.324 68.8393 534.674 68.8797 535.001 68.7894C535.328 68.6992 535.608 68.4853 535.781 68.1928C535.954 67.9004 536.006 67.5523 535.927 67.2219C532.916 56.2129 526.3 46.5316 517.138 39.7261C507.759 32.7621 494.629 28.5529 483.597 34.1746C478.347 36.8502 474.074 41.6135 472.759 47.4375L474.682 46.6551L466.376 40.8111C466.177 40.6974 465.951 40.6377 465.722 40.638C465.492 40.6383 465.267 40.6985 465.068 40.8128C464.869 40.927 464.703 41.0912 464.587 41.2892C464.471 41.4872 464.409 41.7121 464.406 41.9416C464.817 50.7616 468.469 59.1196 474.662 65.4135C481.135 71.8825 489.892 75.5457 499.043 75.612C504.284 75.6696 509.473 74.5645 514.236 72.3763C515.766 71.6755 514.437 69.418 512.915 70.1154V70.1154Z" fill="#1C2359"/>
<path d="M145.476 398.146L117.806 403.547C117.358 403.636 116.896 403.622 116.454 403.505C116.012 403.388 115.603 403.172 115.258 402.873C114.905 402.571 114.626 402.192 114.442 401.765C114.258 401.339 114.174 400.876 114.196 400.412C114.668 389.065 112.462 377.767 107.758 367.431C107.563 367.01 107.467 366.549 107.477 366.085C107.487 365.62 107.603 365.164 107.816 364.751C108.024 364.344 108.322 363.99 108.687 363.716C109.053 363.442 109.476 363.254 109.924 363.168L137.594 357.767C138.301 357.631 139.034 357.749 139.662 358.102C140.29 358.456 140.772 359.02 141.023 359.695C145.116 371.066 147.444 382.995 147.928 395.07C147.95 395.79 147.715 396.494 147.266 397.058C146.817 397.621 146.183 398.007 145.476 398.146V398.146Z" fill="#AA276D"/>
</svg>
