<svg width="650" height="587" viewBox="0 0 650 587" fill="none" xmlns="http://www.w3.org/2000/svg">
<path d="M123.963 400.215C123.132 400.607 122.202 400.735 121.296 400.581C120.391 400.427 119.555 399.999 118.901 399.354C118.248 398.708 117.808 397.878 117.643 396.975C117.477 396.072 117.593 395.139 117.974 394.304C117.906 393.846 117.856 393.518 117.787 393.06C117.712 392.985 117.637 392.911 117.562 392.837C109.966 385.355 97.0987 390.806 97.1234 401.467C97.1452 410.93 96.2582 420.789 98.7717 429.753C99.8844 433.715 101.676 437.454 104.066 440.803C89.0345 426.936 77.16 409.999 69.2479 391.14C67.2674 386.406 65.5531 381.564 64.1131 376.638C62.9361 372.599 61.9392 368.516 61.1223 364.391C56.714 341.996 57.6809 318.874 63.9436 296.925C68.8533 290.797 71.7665 283.312 72.2908 275.477C72.4883 272.657 72.2766 269.823 71.6622 267.064C70.9841 267.458 70.2794 267.821 69.5817 268.168C69.3631 268.273 69.1328 268.383 68.9143 268.488L68.8316 268.527C68.0579 268.892 67.1952 269.026 66.3474 268.912C65.4996 268.798 64.7028 268.441 64.053 267.885C63.4031 267.328 62.928 266.596 62.6847 265.776C62.4413 264.956 62.4402 264.083 62.6815 263.262C62.832 262.752 62.9827 262.241 63.1336 261.731C63.3584 260.946 63.5997 260.168 63.8244 259.383C63.8554 259.305 63.8818 259.225 63.9035 259.143C64.1645 258.247 64.4301 257.362 64.6911 256.465C63.0629 255.345 61.1981 254.616 59.2419 254.336C52.4929 253.426 45.9318 258.751 44.0648 265.293C42.1862 271.839 44.3206 279.029 48.2456 284.586C51.6023 289.345 56.1529 293.094 60.9229 296.474C60.7861 296.974 60.6327 297.466 60.496 297.965C58.0094 307.123 56.4263 316.503 55.7694 325.969C53.0607 316.803 48.2148 308.412 41.6302 301.484C35.2374 295.135 26.5678 291.161 18.5389 286.718C8.89483 281.381 -2.59298 290.27 0.519636 300.843C0.549778 300.945 0.580155 301.048 0.610775 301.15C1.57525 301.264 2.53454 301.412 3.48862 301.594C4.68986 301.829 5.79209 302.421 6.65093 303.293C7.50976 304.166 8.08512 305.277 8.30163 306.481C8.51814 307.686 8.36569 308.928 7.86426 310.045C7.36283 311.161 6.53583 312.1 5.49157 312.739L5.38464 312.804C6.83817 315.501 8.49462 318.083 10.3396 320.529C15.5646 327.325 22.1371 332.968 29.6453 337.105C37.1535 341.242 45.4354 343.783 53.9717 344.57C54.5287 344.613 55.074 344.662 55.6261 344.693C56.3533 357.524 58.7459 370.206 62.7435 382.419C65.1244 389.615 68.0834 396.607 71.5915 403.327L71.4529 403.094C66.7092 395.975 59.6537 390.711 51.4782 388.191C39.3808 384.556 25.5189 387.149 13.3183 385.263C7.44522 384.355 2.99806 390.559 6.08026 395.64C6.12945 395.721 6.17886 395.802 6.2285 395.883C7.92332 395.867 9.61744 395.958 11.301 396.153C12.2655 396.267 13.2248 396.415 14.1789 396.597C15.3801 396.832 16.4824 397.425 17.3412 398.297C18.2001 399.169 18.7754 400.28 18.992 401.485C19.2085 402.689 19.056 403.931 18.5546 405.048C18.0531 406.165 17.2261 407.104 16.1819 407.742L16.0748 407.808C15.9974 407.854 15.9318 407.895 15.8545 407.941C20.7984 412.816 26.5445 416.803 32.841 419.728C40.5703 423.224 48.9321 425.104 57.4139 425.254C65.8957 425.403 74.3186 423.819 82.1663 420.598L82.1781 420.593C88.1612 428.937 94.9953 436.638 102.57 443.57L135.384 429.857C135.35 429.443 135.298 429.022 135.252 428.613C132.294 430.074 129.169 431.166 125.946 431.867C127.132 427.862 128.308 423.834 129.494 419.829C129.525 419.75 129.552 419.67 129.574 419.589C130.17 417.544 130.782 415.505 131.378 413.46L131.378 413.458C129.485 408.744 126.993 404.293 123.964 400.215L123.963 400.215ZM55.4948 341.999L55.5023 341.969L55.5046 342.023L55.4948 341.999ZM75.6086 410.559L75.0609 410.042C74.881 409.578 74.6893 409.119 74.4809 408.654C74.4268 408.524 74.3493 408.405 74.2952 408.276C74.7401 409.043 75.1734 409.815 75.6302 410.578L75.6086 410.559Z" fill="#F2F2F2"/>
<path d="M425.081 174.712C423.858 179.642 423.275 184.71 423.347 189.79L423.347 189.792C424.686 191.449 426.037 193.093 427.375 194.75C427.427 194.817 427.482 194.881 427.541 194.941C430.18 198.179 432.818 201.442 435.457 204.68C432.213 205.276 428.908 205.473 425.616 205.266C425.731 205.662 425.846 206.069 425.973 206.465H461.537C465.854 197.148 469.19 187.408 471.493 177.401H471.506C479.989 177.348 488.371 175.562 496.139 172.153C503.907 168.745 510.898 163.786 516.681 157.58C521.363 152.453 525.127 146.558 527.809 140.155C527.72 140.142 527.644 140.129 527.554 140.116L527.43 140.097C526.221 139.911 525.096 139.363 524.202 138.526C523.309 137.689 522.69 136.602 522.425 135.407C522.16 134.212 522.262 132.965 522.719 131.829C523.175 130.693 523.963 129.722 524.981 129.042C525.791 128.506 526.619 128 527.465 127.522C528.943 126.693 530.472 125.956 532.041 125.317C532.056 125.223 532.07 125.129 532.084 125.036C532.969 119.159 526.474 115.15 521.405 118.252C510.875 124.697 497.085 127.65 487.325 135.668C480.753 141.145 476.273 148.723 474.641 157.121L474.603 157.389C475.249 149.836 475.283 142.244 474.705 134.686C473.684 121.876 471.002 109.252 466.725 97.1333C467.223 96.8911 467.707 96.6362 468.204 96.3812C475.777 92.3643 482.439 86.8261 487.771 80.114C493.104 73.4019 496.992 65.6605 499.192 57.3752C499.952 54.4074 500.484 51.3861 500.786 48.3375L500.662 48.3184C499.452 48.1319 498.327 47.5843 497.434 46.7474C496.54 45.9106 495.921 44.8234 495.656 43.6283C495.391 42.4333 495.494 41.1862 495.95 40.0503C496.406 38.9145 497.195 37.9429 498.212 37.2629C499.022 36.7276 499.85 36.2211 500.696 35.7435C500.685 35.6374 500.674 35.5313 500.662 35.4253C499.457 24.4693 485.43 20.6974 478.59 29.3401C472.895 36.5355 466.428 43.5454 462.978 51.8685C459.574 60.7994 458.338 70.4108 459.373 79.9122C455.117 71.431 450.04 63.3874 444.214 55.8966C443.896 55.4886 443.564 55.0935 443.245 54.6855C446.343 49.727 449.096 44.5134 450.358 38.8283C451.837 32.1871 451.034 24.7299 446.776 19.4145C442.532 14.099 434.424 11.7153 428.548 15.157C426.851 16.1704 425.412 17.562 424.342 19.2232C424.928 19.9498 425.514 20.6636 426.101 21.3902C426.152 21.4571 426.208 21.521 426.266 21.5815C426.776 22.2188 427.299 22.8434 427.809 23.4808C428.145 23.8935 428.481 24.3064 428.817 24.7197C429.356 25.3839 429.691 26.1898 429.783 27.0403C429.875 27.8908 429.719 28.7497 429.334 29.5135C428.948 30.2774 428.351 30.9137 427.613 31.3457C426.874 31.7778 426.027 31.9873 425.172 31.949L425.081 31.9449C424.839 31.9321 424.584 31.9193 424.342 31.9066C423.564 31.8557 422.774 31.7919 421.996 31.69C422.493 34.4729 423.391 37.1693 424.66 39.6951C428.165 46.7218 433.739 52.5053 440.632 56.2663C454.874 74.103 464.681 95.0635 469.249 117.427C470.091 121.544 470.745 125.695 471.212 129.881C471.783 134.981 472.068 140.109 472.067 145.241C472.038 165.692 467.612 185.898 459.09 204.489C460.004 200.477 460.216 196.336 459.715 192.252C458.577 183.011 453.957 174.257 450.329 165.518C446.24 155.671 432.266 155.604 428.143 165.435C428.102 165.533 428.061 165.631 428.021 165.728C428.134 166.177 428.215 166.5 428.328 166.948C429.002 167.572 429.469 168.387 429.664 169.285C429.859 170.182 429.774 171.118 429.42 171.965C429.065 172.812 428.459 173.53 427.683 174.021C426.908 174.512 425.999 174.753 425.082 174.711L425.081 174.712ZM465.808 94.6221L465.789 94.5713L465.808 94.5966V94.6221ZM473.673 165.636C473.8 164.756 473.902 163.877 474.017 162.997C474.017 163.138 473.991 163.278 473.991 163.418C473.979 163.928 473.979 164.425 473.991 164.922L473.685 165.61L473.673 165.636Z" fill="#F2F2F2"/>
<path d="M389.251 393.863H280.447C278.908 393.865 277.432 394.478 276.345 395.568C275.258 396.658 274.649 398.135 274.65 399.674V571.553H395.063V399.674C395.063 398.911 394.913 398.155 394.621 397.45C394.329 396.744 393.901 396.104 393.361 395.564C392.822 395.024 392.181 394.596 391.476 394.304C390.77 394.012 390.014 393.862 389.251 393.863ZM335.215 491.522C331.812 491.506 328.554 490.147 326.148 487.741C323.742 485.335 322.383 482.077 322.367 478.674V458.849C322.367 455.442 323.721 452.174 326.13 449.764C328.54 447.355 331.808 446.001 335.215 446.001C338.623 446.001 341.89 447.355 344.3 449.764C346.709 452.174 348.063 455.442 348.063 458.849V478.674C348.047 482.077 346.688 485.335 344.282 487.741C341.876 490.147 338.618 491.506 335.215 491.522V491.522Z" fill="#E6E6E6"/>
<path d="M274.277 566.055V582.638C274.279 583.497 274.621 584.321 275.229 584.928C275.836 585.536 276.66 585.878 277.519 585.88H392.195C393.053 585.875 393.875 585.532 394.482 584.925C395.089 584.318 395.432 583.496 395.437 582.638V566.055L274.277 566.055Z" fill="#CCCCCC"/>
<path d="M569.422 125.627H104.326C100.33 125.633 96.4996 127.223 93.6741 130.049C90.8485 132.874 89.2583 136.705 89.252 140.7V454.549C89.2558 458.546 90.8452 462.378 93.6713 465.204C96.4974 468.03 100.329 469.619 104.326 469.623H569.422C573.418 469.619 577.25 468.03 580.076 465.204C582.902 462.378 584.492 458.546 584.495 454.549V140.7C584.489 136.705 582.899 132.874 580.073 130.049C577.248 127.223 573.417 125.633 569.422 125.627Z" fill="#E6E6E6"/>
<path d="M565.538 136.51H108.213C106.073 136.515 104.023 137.369 102.511 138.884C100.999 140.399 100.15 142.452 100.15 144.592V450.659C100.153 452.796 101.003 454.846 102.515 456.357C104.026 457.869 106.076 458.719 108.213 458.722H565.538C567.676 458.719 569.725 457.869 571.237 456.357C572.748 454.846 573.598 452.796 573.601 450.659V144.592C573.601 142.452 572.752 140.399 571.24 138.884C569.729 137.369 567.678 136.515 565.538 136.51V136.51Z" fill="white"/>
<path d="M158.374 441.176C158.384 447.167 157.317 453.11 155.223 458.723H108.212C106.075 458.72 104.027 457.869 102.516 456.358C101.005 454.847 100.154 452.799 100.15 450.662V391.533C102.777 391.108 105.434 390.895 108.095 390.896C114.697 390.896 121.236 392.196 127.336 394.723C133.437 397.249 138.98 400.953 143.649 405.622C148.318 410.291 152.021 415.834 154.548 421.934C157.074 428.035 158.375 434.573 158.374 441.176V441.176Z" fill="#AA276D"/>
<path d="M573.6 144.592V410.993C538.412 421.25 500.84 419.763 466.573 406.757C432.306 393.751 403.209 369.934 383.688 338.913C364.167 307.891 355.285 271.354 358.386 234.833C361.487 198.312 376.403 163.796 400.875 136.51H565.537C567.677 136.515 569.728 137.369 571.24 138.884C572.751 140.399 573.6 142.452 573.6 144.592V144.592Z" fill="#E6E6E6"/>
<path d="M542.55 178.684H114.631C114.186 178.674 113.762 178.491 113.451 178.173C113.139 177.855 112.965 177.427 112.965 176.982C112.965 176.537 113.139 176.11 113.451 175.791C113.762 175.473 114.186 175.29 114.631 175.28H542.55C542.995 175.29 543.419 175.473 543.73 175.791C544.042 176.11 544.216 176.537 544.216 176.982C544.216 177.427 544.042 177.855 543.73 178.173C543.419 178.491 542.995 178.674 542.55 178.684V178.684Z" fill="#CACACA"/>
<path d="M143.76 166.592C149.268 166.592 153.733 162.027 153.733 156.397C153.733 150.766 149.268 146.202 143.76 146.202C138.252 146.202 133.787 150.766 133.787 156.397C133.787 162.027 138.252 166.592 143.76 166.592Z" fill="#3F3D56"/>
<path d="M178.211 166.592C183.719 166.592 188.184 162.027 188.184 156.397C188.184 150.766 183.719 146.202 178.211 146.202C172.703 146.202 168.238 150.766 168.238 156.397C168.238 162.027 172.703 166.592 178.211 166.592Z" fill="#3F3D56"/>
<path d="M212.664 166.592C218.172 166.592 222.637 162.027 222.637 156.397C222.637 150.766 218.172 146.202 212.664 146.202C207.156 146.202 202.691 150.766 202.691 156.397C202.691 162.027 207.156 166.592 212.664 166.592Z" fill="#3F3D56"/>
<path d="M521.807 148.729H497.334C496.849 148.738 496.387 148.938 496.047 149.284C495.708 149.631 495.518 150.096 495.518 150.582C495.518 151.067 495.708 151.533 496.047 151.879C496.387 152.225 496.849 152.425 497.334 152.435H521.807C522.292 152.425 522.754 152.225 523.093 151.879C523.433 151.533 523.623 151.067 523.623 150.582C523.623 150.096 523.433 149.631 523.093 149.284C522.754 148.938 522.292 148.738 521.807 148.729Z" fill="#3F3D56"/>
<path d="M521.807 155.684H497.334C496.849 155.694 496.387 155.893 496.047 156.24C495.708 156.586 495.518 157.052 495.518 157.537C495.518 158.022 495.708 158.488 496.047 158.835C496.387 159.181 496.849 159.381 497.334 159.39H521.807C522.292 159.381 522.754 159.181 523.093 158.835C523.433 158.488 523.623 158.022 523.623 157.537C523.623 157.052 523.433 156.586 523.093 156.24C522.754 155.893 522.292 155.694 521.807 155.684Z" fill="#3F3D56"/>
<path d="M521.807 162.631H497.334C496.849 162.64 496.387 162.84 496.047 163.186C495.708 163.533 495.518 163.999 495.518 164.484C495.518 164.969 495.708 165.435 496.047 165.781C496.387 166.128 496.849 166.327 497.334 166.337H521.807C522.292 166.327 522.754 166.128 523.093 165.781C523.433 165.435 523.623 164.969 523.623 164.484C523.623 163.999 523.433 163.533 523.093 163.186C522.754 162.84 522.292 162.64 521.807 162.631Z" fill="#3F3D56"/>
<path d="M293.863 61.0181C295.37 57.8406 288.386 51.3732 278.265 46.5727C268.143 41.7722 258.716 40.4564 257.209 43.6339C255.702 46.8114 262.686 53.2788 272.807 58.0793C282.929 62.8798 292.356 64.1956 293.863 61.0181Z" fill="#2F2E41"/>
<path d="M377.398 93.7454C380.094 91.4878 376.45 82.6947 369.259 74.1055C362.067 65.5163 354.051 60.3835 351.355 62.6411C348.659 64.8987 352.302 73.6918 359.494 82.281C366.685 90.8702 374.701 96.003 377.398 93.7454Z" fill="#2F2E41"/>
<path d="M321.229 111.717C343.634 111.717 361.796 93.5541 361.796 71.1495C361.796 48.7449 343.634 30.5824 321.229 30.5824C298.825 30.5824 280.662 48.7449 280.662 71.1495C280.662 93.5541 298.825 111.717 321.229 111.717Z" fill="#2F2E41"/>
<path d="M338.398 102.987H326.074V125.068H338.398V102.987Z" fill="#2F2E41"/>
<path d="M313.752 102.987H301.428V125.068H313.752V102.987Z" fill="#2F2E41"/>
<path d="M328.13 129.176C333.802 129.176 338.4 127.452 338.4 125.324C338.4 123.197 333.802 121.473 328.13 121.473C322.457 121.473 317.859 123.197 317.859 125.324C317.859 127.452 322.457 129.176 328.13 129.176Z" fill="#2F2E41"/>
<path d="M303.481 128.662C309.153 128.662 313.751 126.938 313.751 124.811C313.751 122.684 309.153 120.96 303.481 120.96C297.809 120.96 293.211 122.684 293.211 124.811C293.211 126.938 297.809 128.662 303.481 128.662Z" fill="#2F2E41"/>
<path d="M308.492 20.1554C312.114 5.56749 328.103 -3.01719 344.205 0.980993C360.307 4.97918 370.424 20.0463 366.801 34.6342C363.179 49.2222 351.161 49.2692 335.06 45.271C318.958 41.2728 304.869 34.7434 308.492 20.1554Z" fill="#E6E6E6"/>
<path d="M315.164 76.1146C322.633 76.1146 328.689 70.0592 328.689 62.5895C328.689 55.1198 322.633 49.0645 315.164 49.0645C307.694 49.0645 301.639 55.1198 301.639 62.5895C301.639 70.0592 307.694 76.1146 315.164 76.1146Z" fill="white"/>
<path d="M314.315 72.6112C316.805 72.6112 318.823 70.5927 318.823 68.1028C318.823 65.6129 316.805 63.5945 314.315 63.5945C311.825 63.5945 309.807 65.6129 309.807 68.1028C309.807 70.5927 311.825 72.6112 314.315 72.6112Z" fill="#3F3D56"/>
<path d="M332.349 87.0767C333.241 91.976 321.291 100.362 316.392 101.254C314.039 101.682 311.613 101.158 309.646 99.7977C307.68 98.4369 306.334 96.3507 305.906 93.998L305.903 93.9806C305.016 89.0804 308.804 87.3464 313.705 86.4594C318.605 85.5723 331.462 82.1766 332.349 87.0767Z" fill="white"/>
<path d="M476.048 371.251C482.875 362.369 486.149 353.432 483.361 351.289C480.573 349.146 472.778 354.608 465.951 363.49C459.124 372.372 455.85 381.309 458.638 383.452C461.427 385.596 469.221 380.133 476.048 371.251Z" fill="#2F2E41"/>
<path d="M513.206 400.894C535.61 400.894 553.773 382.732 553.773 360.327C553.773 337.922 535.61 319.76 513.206 319.76C490.801 319.76 472.639 337.922 472.639 360.327C472.639 382.732 490.801 400.894 513.206 400.894Z" fill="#2F2E41"/>
<path d="M531.693 392.164H519.369V414.245H531.693V392.164Z" fill="#2F2E41"/>
<path d="M507.045 392.164H494.721V414.245H507.045V392.164Z" fill="#2F2E41"/>
<path d="M521.422 418.353C527.095 418.353 531.693 416.629 531.693 414.502C531.693 412.375 527.095 410.651 521.422 410.651C515.75 410.651 511.152 412.375 511.152 414.502C511.152 416.629 515.75 418.353 521.422 418.353Z" fill="#2F2E41"/>
<path d="M496.774 417.84C502.446 417.84 507.044 416.115 507.044 413.988C507.044 411.861 502.446 410.137 496.774 410.137C491.102 410.137 486.504 411.861 486.504 413.988C486.504 416.115 491.102 417.84 496.774 417.84Z" fill="#2F2E41"/>
<path d="M512.179 363.921C519.836 363.921 526.044 357.714 526.044 350.057C526.044 342.399 519.836 336.192 512.179 336.192C504.522 336.192 498.314 342.399 498.314 350.057C498.314 357.714 504.522 363.921 512.179 363.921Z" fill="white"/>
<path d="M511.237 361.272C513.789 361.272 515.858 359.203 515.858 356.65C515.858 354.098 513.789 352.029 511.237 352.029C508.684 352.029 506.615 354.098 506.615 356.65C506.615 359.203 508.684 361.272 511.237 361.272Z" fill="#3F3D56"/>
<path d="M552.557 322.601C555.833 307.931 545.362 293.108 529.17 289.492C512.978 285.877 497.197 294.838 493.921 309.508C490.645 324.177 501.376 329.588 517.568 333.203C533.76 336.819 549.282 337.27 552.557 322.601Z" fill="#AA276D"/>
<path d="M561.156 395.548C564.32 394.014 562.922 384.599 558.034 374.519C553.146 364.439 546.618 357.512 543.454 359.047C540.29 360.581 541.687 369.996 546.575 380.076C551.463 390.156 557.991 397.083 561.156 395.548Z" fill="#2F2E41"/>
<path d="M533.132 374.962C533.132 378.932 522.909 386.772 511.564 386.772C500.22 386.772 489.584 375.594 489.584 371.624C489.584 367.654 500.22 372.394 511.564 372.394C522.908 372.394 533.132 370.991 533.132 374.962Z" fill="white"/>
<path d="M482.794 537.476C505.198 537.476 523.361 519.314 523.361 496.909C523.361 474.504 505.198 456.342 482.794 456.342C460.389 456.342 442.227 474.504 442.227 496.909C442.227 519.314 460.389 537.476 482.794 537.476Z" fill="#2F2E41"/>
<path d="M476.631 528.747H464.307V550.827H476.631V528.747Z" fill="#2F2E41"/>
<path d="M501.279 528.747H488.955V550.827H501.279V528.747Z" fill="#2F2E41"/>
<path d="M482.921 558.295C483.83 556.372 480.408 552.849 475.279 550.427C470.15 548.005 465.256 547.601 464.348 549.525C463.439 551.448 466.861 554.971 471.99 557.393C477.119 559.814 482.013 560.219 482.921 558.295Z" fill="#2F2E41"/>
<path d="M507.802 557.254C508.6 555.282 504.986 551.957 499.73 549.827C494.473 547.697 489.564 547.568 488.765 549.539C487.966 551.511 491.58 554.836 496.837 556.966C502.094 559.096 507.003 559.225 507.802 557.254Z" fill="#2F2E41"/>
<path d="M443.442 459.183C440.166 444.513 450.637 429.69 466.829 426.075C483.021 422.459 498.802 431.42 502.078 446.09C505.354 460.76 494.623 466.17 478.431 469.786C462.239 473.401 446.717 473.853 443.442 459.183Z" fill="#AA276D"/>
<path d="M531.016 480.258C535.066 468.507 535.358 457.95 531.669 456.679C527.98 455.407 521.707 463.903 517.657 475.654C513.607 487.405 513.315 497.962 517.004 499.233C520.693 500.504 526.966 492.009 531.016 480.258Z" fill="#2F2E41"/>
<path d="M450.094 492.934C452.854 490.176 447.97 480.813 439.184 472.02C430.399 463.228 421.039 458.336 418.279 461.094C415.519 463.852 420.403 473.216 429.189 482.008C437.974 490.8 447.334 495.692 450.094 492.934Z" fill="#2F2E41"/>
<path d="M175.792 568.764C198.196 568.764 216.359 550.602 216.359 528.197C216.359 505.793 198.196 487.63 175.792 487.63C153.387 487.63 135.225 505.793 135.225 528.197C135.225 550.602 153.387 568.764 175.792 568.764Z" fill="#2F2E41"/>
<path d="M169.629 560.035H157.305V582.116H169.629V560.035Z" fill="#2F2E41"/>
<path d="M194.277 560.035H181.953V582.116H194.277V560.035Z" fill="#2F2E41"/>
<path d="M167.575 586.224C173.247 586.224 177.845 584.499 177.845 582.372C177.845 580.245 173.247 578.521 167.575 578.521C161.903 578.521 157.305 580.245 157.305 582.372C157.305 584.499 161.903 586.224 167.575 586.224Z" fill="#2F2E41"/>
<path d="M192.223 585.71C197.895 585.71 202.493 583.986 202.493 581.859C202.493 579.732 197.895 578.008 192.223 578.008C186.551 578.008 181.953 579.732 181.953 581.859C181.953 583.986 186.551 585.71 192.223 585.71Z" fill="#2F2E41"/>
<path d="M136.44 490.471C133.164 475.801 143.635 460.978 159.827 457.363C176.019 453.747 191.8 462.708 195.076 477.378C198.352 492.048 187.621 497.458 171.429 501.074C155.237 504.689 139.715 505.141 136.44 490.471Z" fill="#3F3D56"/>
<path d="M227.809 538.607C229.634 535.157 222.206 527.65 211.219 521.838C200.233 516.026 189.847 514.111 188.022 517.56C186.198 521.009 193.625 528.516 204.612 534.328C215.599 540.14 225.985 542.056 227.809 538.607Z" fill="#2F2E41"/>
<path d="M170.163 324.313C180.285 319.512 187.268 313.045 185.761 309.867C184.254 306.69 174.827 308.005 164.706 312.806C154.584 317.606 147.601 324.074 149.108 327.251C150.615 330.429 160.041 329.113 170.163 324.313Z" fill="#2F2E41"/>
<path d="M83.4773 348.514C90.6688 339.925 94.3127 331.132 91.6163 328.874C88.9199 326.617 80.9042 331.75 73.7127 340.339C66.5212 348.928 62.8773 357.721 65.5737 359.979C68.2701 362.236 76.2858 357.104 83.4773 348.514Z" fill="#2F2E41"/>
<path d="M121.743 377.95C144.147 377.95 162.31 359.787 162.31 337.383C162.31 314.978 144.147 296.816 121.743 296.816C99.3383 296.816 81.1758 314.978 81.1758 337.383C81.1758 359.787 99.3383 377.95 121.743 377.95Z" fill="#2F2E41"/>
<path d="M116.896 369.22H104.572V391.301H116.896V369.22Z" fill="#2F2E41"/>
<path d="M141.545 369.22H129.221V391.301H141.545V369.22Z" fill="#2F2E41"/>
<path d="M114.842 395.409C120.514 395.409 125.113 393.685 125.113 391.558C125.113 389.431 120.514 387.706 114.842 387.706C109.17 387.706 104.572 389.431 104.572 391.558C104.572 393.685 109.17 395.409 114.842 395.409Z" fill="#2F2E41"/>
<path d="M139.491 394.896C145.163 394.896 149.761 393.171 149.761 391.044C149.761 388.917 145.163 387.193 139.491 387.193C133.819 387.193 129.221 388.917 129.221 391.044C129.221 393.171 133.819 394.896 139.491 394.896Z" fill="#2F2E41"/>
<path d="M134.48 286.389C130.858 271.801 114.869 263.216 98.7667 267.214C82.6649 271.213 72.5483 286.28 76.1707 300.867C79.793 315.455 91.8107 315.503 107.912 311.504C124.014 307.506 138.103 300.977 134.48 286.389Z" fill="#AA276D"/>
<path d="M127.808 342.348C135.278 342.348 141.333 336.292 141.333 328.823C141.333 321.353 135.278 315.298 127.808 315.298C120.339 315.298 114.283 321.353 114.283 328.823C114.283 336.292 120.339 342.348 127.808 342.348Z" fill="white"/>
<path d="M128.657 338.845C131.147 338.845 133.165 336.826 133.165 334.336C133.165 331.846 131.147 329.828 128.657 329.828C126.167 329.828 124.148 331.846 124.148 334.336C124.148 336.826 126.167 338.845 128.657 338.845Z" fill="#3F3D56"/>
<path d="M119.324 357.001C119.111 358.166 119.131 359.362 119.381 360.519C119.631 361.677 120.106 362.773 120.78 363.747C121.454 364.721 122.313 365.552 123.308 366.194C124.303 366.836 125.415 367.275 126.58 367.487C127.745 367.699 128.94 367.68 130.097 367.43C131.255 367.18 132.352 366.705 133.325 366.031C134.299 365.357 135.13 364.498 135.772 363.503C136.414 362.508 136.853 361.396 137.065 360.231V360.231L137.069 360.214C137.956 355.314 134.167 353.58 129.267 352.693C124.367 351.806 120.211 352.101 119.324 357.001Z" fill="white"/>
<path d="M648.878 585.873L20.8358 586.163C20.6882 586.163 20.542 586.135 20.4056 586.079C20.2691 586.022 20.1451 585.94 20.0406 585.836C19.9361 585.731 19.8532 585.608 19.7966 585.471C19.7401 585.335 19.7109 585.189 19.7109 585.041C19.7109 584.894 19.7401 584.748 19.7966 584.611C19.8532 584.475 19.9361 584.351 20.0406 584.247C20.1451 584.143 20.2691 584.06 20.4056 584.004C20.542 583.948 20.6882 583.919 20.8358 583.92L648.878 583.63C649.175 583.631 649.46 583.75 649.669 583.96C649.879 584.17 649.997 584.455 649.997 584.752C649.997 585.049 649.879 585.334 649.669 585.544C649.46 585.754 649.175 585.873 648.878 585.873V585.873Z" fill="#CACACA"/>
</svg>
