<svg width="600" height="397" viewBox="0 0 600 397" fill="none" xmlns="http://www.w3.org/2000/svg">
<path d="M62.6777 112.417H49.668V129.33H62.6777V112.417Z" fill="#1C2359"/>
<path d="M350.906 349.433H337.896V366.346H350.906V349.433Z" fill="#1C2359"/>
<path d="M547.967 188.396V175.386H531.054V188.396H547.967Z" fill="#1C2359"/>
<path d="M504.422 364.241C532.803 364.241 555.81 341.233 555.81 312.852C555.81 284.471 532.803 261.464 504.422 261.464C476.041 261.464 453.033 284.471 453.033 312.852C453.033 341.233 476.041 364.241 504.422 364.241Z" fill="#1C2359"/>
<path d="M524.27 383.224L539.632 380.443L534.649 348.366L519.287 351.147L524.27 383.224Z" fill="#1C2359"/>
<path d="M493.544 384.232L508.906 381.451L503.924 353.928L488.562 356.709L493.544 384.232Z" fill="#1C2359"/>
<path d="M501.701 390.024C507.183 385.381 510.217 379.95 508.475 377.894C506.734 375.838 500.878 377.935 495.395 382.579C489.912 387.222 486.878 392.653 488.62 394.709C490.361 396.765 496.218 394.668 501.701 390.024Z" fill="#1C2359"/>
<path d="M531.784 389.132C537.267 384.488 540.301 379.057 538.559 377.001C536.818 374.945 530.962 377.042 525.479 381.686C519.996 386.329 516.962 391.761 518.704 393.817C520.445 395.873 526.301 393.775 531.784 389.132Z" fill="#1C2359"/>
<path d="M500.823 317.845C510.523 317.845 518.386 309.982 518.386 300.282C518.386 290.582 510.523 282.719 500.823 282.719C491.123 282.719 483.26 290.582 483.26 300.282C483.26 309.982 491.123 317.845 500.823 317.845Z" fill="white"/>
<path d="M493.604 299.841C496.838 299.841 499.459 297.22 499.459 293.987C499.459 290.753 496.838 288.132 493.604 288.132C490.371 288.132 487.75 290.753 487.75 293.987C487.75 297.22 490.371 299.841 493.604 299.841Z" fill="#1C2359"/>
<path d="M544.96 256.947C545.733 237.922 529.336 221.808 508.337 220.955C487.338 220.102 469.689 234.833 468.916 253.858C468.143 272.883 482.74 277.205 503.739 278.058C524.738 278.911 544.187 275.972 544.96 256.947Z" fill="#AA276D"/>
<path d="M482.017 309.231C483.012 304.888 472.606 298.798 458.774 295.628C444.942 292.457 432.922 293.407 431.927 297.749C430.932 302.092 441.338 308.182 455.17 311.352C469.002 314.523 481.021 313.573 482.017 309.231Z" fill="#1C2359"/>
<path d="M582.89 326.006C583.885 321.664 573.479 315.573 559.647 312.403C545.815 309.232 533.796 310.182 532.8 314.524C531.805 318.867 542.211 324.957 556.043 328.127C569.875 331.298 581.894 330.348 582.89 326.006Z" fill="#1C2359"/>
<path d="M518.535 333.103C518.81 334.617 518.784 336.17 518.459 337.673C518.134 339.177 517.515 340.601 516.639 341.866C515.763 343.13 514.646 344.209 513.353 345.042C512.059 345.875 510.615 346.444 509.101 346.718C507.587 346.992 506.034 346.965 504.531 346.639C503.028 346.313 501.604 345.693 500.34 344.816C499.076 343.939 497.997 342.822 497.166 341.528C496.334 340.234 495.765 338.789 495.492 337.275C494.34 330.912 499.26 328.66 505.623 327.508C511.986 326.356 517.383 326.74 518.535 333.103Z" fill="white"/>
<path d="M237.33 346.893L235.543 370.118L252.813 371.905L248.644 343.916L237.33 346.893Z" fill="#FFB9B9"/>
<path d="M177.158 135.394H177.158C191.879 139.93 199.731 156.851 194.697 173.187L188.301 193.943L181.917 191.976L180.591 183.147L179.145 191.122L138.114 178.478L136.909 170.451L135.594 177.701L130.975 176.278L135.997 159.981C141.79 141.182 160.218 130.173 177.158 135.394Z" fill="#1C2359"/>
<path d="M154.295 197.691C152.965 197.47 151.603 197.531 150.296 197.868C148.99 198.205 147.769 198.812 146.712 199.649C145.655 200.487 144.784 201.536 144.157 202.73C143.529 203.924 143.158 205.236 143.068 206.582C142.812 210.181 144.054 214.394 149.632 217.514C161.547 224.178 187.386 238.705 187.386 238.705L236.685 248.173C236.685 248.173 261.597 268.052 264.718 256.746C267.84 245.439 241.08 238.536 241.08 238.536L195.788 226.921L166.929 206.046C166.929 206.046 161.641 198.987 154.295 197.691Z" fill="#FFB9B9"/>
<path d="M138.539 244.011L143.494 257.975L173.225 250.768L165.567 240.407L138.539 244.011Z" fill="#FFB9B9"/>
<path d="M59.0308 375.322L36.5078 373.069L52.2741 357.754L63.5359 365.412L59.0308 375.322Z" fill="#FFB9B9"/>
<path d="M171.952 182.129C182.168 182.129 190.45 173.847 190.45 163.63C190.45 153.414 182.168 145.132 171.952 145.132C161.735 145.132 153.453 153.414 153.453 163.63C153.453 173.847 161.735 182.129 171.952 182.129Z" fill="#FFB9B9"/>
<path d="M157.458 166.531C157.458 166.531 147.097 178.693 141.691 180.495C136.286 182.297 122.772 199.415 129.529 210.676C136.286 221.938 161.062 207.974 161.062 207.974L160.161 196.712C160.161 196.712 170.521 178.693 172.774 177.342C175.026 175.99 157.458 166.531 157.458 166.531Z" fill="#FFB9B9"/>
<path d="M155.656 188.28C148.769 177.91 132.793 179.765 128.83 191.566C128.759 191.776 128.692 191.99 128.627 192.207C125.024 204.37 130.429 225.091 130.429 225.091L138.538 249.416C138.538 249.416 159.71 239.506 175.026 256.173L172.773 239.056C172.773 239.056 179.08 224.641 170.971 214.28C165.811 207.686 161.016 196.349 155.656 188.28Z" fill="#575A89"/>
<path d="M49.1204 372.169L48.2195 378.926C48.2195 378.926 18.4886 373.07 12.1821 378.475C5.87553 383.881 5.87553 387.485 0.920389 383.881C-1.18555 382.349 0.614066 378.621 3.37991 374.84C7.76011 368.907 13.5164 364.127 20.1533 360.912C27.5877 357.272 37.8587 351.983 37.8587 350.546C37.8587 348.294 45.9672 341.537 49.1204 345.141C52.2737 348.744 58.1298 358.655 58.1298 358.655L49.1204 372.169Z" fill="#1C2359"/>
<path d="M234.548 359.399C234.548 359.399 227.945 382.809 230.346 384.01C232.747 385.211 237.549 388.812 244.752 388.812C249.009 388.812 255.361 391.118 259.846 393.004C265.075 395.238 270.754 396.215 276.429 395.857C280.21 395.596 283.424 394.71 283.169 392.414C282.569 387.011 271.164 385.811 271.164 385.811L259.159 370.204C259.159 370.204 257.058 360.3 255.257 360.3C254.276 360.346 253.313 360.025 252.556 359.399L234.548 359.399Z" fill="#1C2359"/>
<path d="M167.071 141.207C168.884 139.88 170.979 138.988 173.192 138.602C175.406 138.215 177.679 138.344 179.835 138.977L180.358 139.139C190.448 142.248 195.813 153.898 192.343 165.161V165.161L188.962 164.119L189.697 159.795L187.616 163.704L167.565 157.525L166.968 153.491L166.305 157.137L162.36 155.921C157.702 164.495 157.53 174.452 161.843 185.79L155.124 183.72L153.931 175.652L152.604 182.943L139.795 178.996L142.259 162.046C145.991 149.934 156.194 141.832 167.071 141.207Z" fill="#1C2359"/>
<path d="M402.93 31.5623H249.883V318.006H402.93V31.5623Z" fill="#F2F2F2"/>
<path d="M439.854 318.601H249.289V0H439.854V318.601ZM250.48 317.41H438.663V1.19103H250.48V317.41Z" fill="#1C2359"/>
<path d="M600 394.733H26.2148V396.067H600V394.733Z" fill="#1C2359"/>
<path d="M416.629 167.34H272.514V35.1355H416.629V167.34ZM273.705 166.149H415.438V36.3265H273.705V166.149Z" fill="#1C2359"/>
<path d="M273.53 132.288L272.688 131.445L317.603 86.5298L343.975 112.902L415.314 41.563L416.156 42.405L343.975 114.586L317.603 88.214L273.53 132.288Z" fill="#1C2359"/>
<path d="M317.773 96.4736C322.706 96.4736 326.705 92.4743 326.705 87.5409C326.705 82.6075 322.706 78.6082 317.773 78.6082C312.839 78.6082 308.84 82.6075 308.84 87.5409C308.84 92.4743 312.839 96.4736 317.773 96.4736Z" fill="#AA276D"/>
<path d="M344.571 120.89C349.505 120.89 353.504 116.891 353.504 111.957C353.504 107.024 349.505 103.024 344.571 103.024C339.638 103.024 335.639 107.024 335.639 111.957C335.639 116.891 339.638 120.89 344.571 120.89Z" fill="#AA276D"/>
<path d="M416.032 50.6189C420.966 50.6189 424.965 46.6196 424.965 41.6862C424.965 36.7527 420.966 32.7534 416.032 32.7534C411.099 32.7534 407.1 36.7527 407.1 41.6862C407.1 46.6196 411.099 50.6189 416.032 50.6189Z" fill="#AA276D"/>
<path d="M398.763 204.262H290.379V214.981H398.763V204.262Z" fill="#1C2359"/>
<path d="M369.582 292.399H319.559V242.375H353.503V243.566H320.75V291.208H368.391V267.387H369.582V292.399Z" fill="#1C2359"/>
<path d="M344.313 279.351L333.732 265.243L337.544 262.384L344.829 272.097L378.32 238.607L381.688 241.975L344.313 279.351Z" fill="#AA276D"/>
<path d="M175.251 257.299C175.251 257.299 164.44 242.885 142.367 251.443L138.313 262.705C138.313 262.705 114.888 281.174 127.952 309.554L127.051 351.898L123.447 364.06L58.1293 358.655L55.877 379.376L67.5891 380.277C67.5891 380.277 133.808 406.404 144.169 390.187C154.529 373.971 176.152 310.004 176.152 310.004L232.239 318.403C232.239 318.403 230.597 335.956 232.399 338.208C234.201 340.46 233.3 349.92 234.201 351.722C235.102 353.524 234.351 358.208 234.351 358.208L252.96 357.593V348.584C252.96 348.584 255.213 336.421 255.213 333.268C255.213 330.115 268.727 288.672 245.302 285.068C221.878 281.464 181.557 274.868 181.557 274.868L175.251 257.299Z" fill="#1C2359"/>
<path d="M154.204 186.888C153.635 185.438 152.768 184.122 151.66 183.027C150.551 181.931 149.226 181.08 147.769 180.527C146.312 179.975 144.755 179.733 143.199 179.818C141.643 179.903 140.122 180.313 138.734 181.021C135.012 182.899 131.57 186.627 131.781 194.009C132.231 209.775 133.132 244.011 133.132 244.011L152.953 298.517C152.953 298.517 147.998 335.005 161.061 331.401C174.125 327.798 165.115 297.166 165.115 297.166L149.799 245.362L153.403 204.37C153.403 204.37 157.271 194.942 154.204 186.888Z" fill="#FFB9B9"/>
</svg>
